<svg width="223" height="88" viewBox="0 0 223 88" fill="none" xmlns="http://www.w3.org/2000/svg">
<g id="Frame 427319391">
<path id="Vector" d="M79.129 41.1836H76.5522L84.1708 28.5171L91.7455 41.1836H89.1368V41.0623C89.2485 41.0623 89.3402 41.038 89.4041 40.9935C89.4679 40.949 89.4998 40.8884 89.4998 40.8115C89.4998 40.7589 89.4918 40.7145 89.4799 40.67C89.4679 40.6295 89.4479 40.5931 89.432 40.5729L86.8672 36.2982H83.1616C82.9861 36.2982 82.8705 36.2982 82.8146 36.3103C82.7588 36.3184 82.7189 36.3386 82.695 36.3669L82.4476 36.5732L82.3639 36.5044L83.4409 34.6198H85.8421L84.1668 31.8212L78.8219 40.5648C78.8019 40.5972 78.782 40.6376 78.77 40.6821C78.758 40.7225 78.754 40.7711 78.754 40.8156C78.754 40.8924 78.786 40.949 78.8498 40.9975C78.9136 41.042 79.0053 41.0663 79.121 41.0663V41.1876L79.129 41.1836Z" fill="white"/>
<path id="Vector_2" d="M95.0523 39.5014H102.587C102.659 39.5014 102.727 39.4892 102.783 39.469C102.838 39.4447 102.902 39.4043 102.97 39.3477L103.301 39.0646L103.389 39.1293L102.308 41.1838H91.7456L99.2644 30.6122H92.9861C92.9103 30.6122 92.8465 30.6283 92.7867 30.6526C92.7268 30.6809 92.663 30.7213 92.5952 30.778L92.2721 31.053L92.1804 30.9842L93.2573 28.9419H102.587L95.0523 39.5054V39.5014Z" fill="white"/>
<path id="Vector_3" d="M113.572 37.8998V29.5687C113.564 29.5081 113.556 29.4515 113.536 29.411C113.52 29.3706 113.488 29.322 113.44 29.2776L113.237 29.0632V28.9419H115.67V29.0632L115.466 29.2776C115.423 29.318 115.391 29.3625 115.371 29.407C115.355 29.4555 115.343 29.5081 115.335 29.5728V38.4539C115.335 39.4326 114.912 40.1646 114.07 40.658C113.225 41.1514 111.96 41.3981 110.273 41.3981C108.586 41.3981 107.325 41.1514 106.476 40.658C105.626 40.1646 105.207 39.4286 105.207 38.4539V29.5728C105.207 29.5121 105.199 29.4555 105.183 29.4151C105.167 29.3746 105.132 29.3261 105.088 29.2816L104.884 29.0673V28.9459H107.317V29.0673L107.114 29.2816C107.066 29.322 107.034 29.3665 107.018 29.4151C106.998 29.4636 106.986 29.5162 106.986 29.5728V37.9039C106.986 38.5914 107.222 39.0727 107.692 39.3477C108.163 39.6186 109.017 39.7561 110.257 39.7561C111.498 39.7561 112.387 39.6227 112.862 39.3517C113.332 39.0808 113.572 38.5995 113.572 37.9079" fill="white"/>
<path id="Vector_4" d="M125.02 28.9375C125.838 28.9375 126.532 29.1761 127.106 29.6533C127.68 30.1305 128.043 30.7695 128.187 31.5662L125.147 33.8391C126.615 34.0696 127.776 34.7773 128.638 35.9664C129.499 37.1554 129.93 38.6517 129.93 40.4554V41.1794H127.824V41.058L128.051 40.8437C128.091 40.8033 128.119 40.7547 128.139 40.7062C128.159 40.6536 128.171 40.5929 128.171 40.5242V40.136C128.171 38.6962 127.736 37.5032 126.859 36.5609C125.981 35.6185 124.876 35.1494 123.54 35.1494C123.368 35.1494 123.189 35.1575 122.998 35.1696C122.806 35.1818 122.595 35.206 122.375 35.2343L125.598 32.6744C125.834 32.4802 126.001 32.3104 126.089 32.1688C126.181 32.0273 126.224 31.8736 126.224 31.6997C126.224 31.3559 126.081 31.085 125.79 30.8868C125.502 30.6887 125.096 30.5916 124.581 30.5916H120.349V40.5282C120.349 40.597 120.357 40.6577 120.381 40.7102C120.401 40.7588 120.433 40.8073 120.481 40.8477L120.684 41.0621V41.1834H118.255V41.0621L118.458 40.8477C118.498 40.8073 118.526 40.7588 118.546 40.7102C118.566 40.6577 118.578 40.597 118.578 40.5282V29.5684C118.578 29.5077 118.57 29.4511 118.554 29.4107C118.538 29.3702 118.506 29.3217 118.462 29.2772L118.259 29.0629V28.9415H125.024L125.02 28.9375Z" fill="white"/>
<path id="Vector_5" d="M132.523 41.1836H129.95L137.573 28.5171L145.143 41.1836H142.535V41.0623C142.65 41.0623 142.738 41.038 142.802 40.9935C142.866 40.949 142.898 40.8884 142.898 40.8115C142.898 40.7589 142.89 40.7145 142.878 40.67C142.866 40.6295 142.846 40.5931 142.83 40.5729L140.261 36.2982H136.556C136.38 36.2982 136.264 36.2982 136.209 36.3103C136.153 36.3184 136.113 36.3386 136.089 36.3669L135.842 36.5732L135.758 36.5044L136.839 34.6198H139.244L137.569 31.8212L132.224 40.5648C132.2 40.5972 132.184 40.6376 132.172 40.6821C132.16 40.7225 132.156 40.7711 132.156 40.8156C132.156 40.8924 132.188 40.949 132.252 40.9975C132.316 41.042 132.403 41.0663 132.519 41.0663V41.1876L132.523 41.1836Z" fill="white"/>
<path id="Vector_6" d="M156.212 30.5919H152.466V39.5014H156.152C156.938 39.5014 157.556 39.4407 158.003 39.3153C158.446 39.1899 158.852 38.9837 159.223 38.6885C159.75 38.276 160.145 37.7623 160.408 37.1557C160.671 36.5491 160.803 35.8454 160.803 35.0527C160.803 34.3288 160.671 33.6534 160.408 33.0225C160.145 32.3957 159.774 31.8659 159.291 31.4412C158.96 31.146 158.549 30.9316 158.051 30.7941C157.556 30.6566 156.942 30.5879 156.212 30.5879M150.364 41.1838V41.0624L150.588 40.8481C150.628 40.8076 150.659 40.7591 150.675 40.7106C150.695 40.658 150.707 40.5973 150.707 40.5286V29.5687C150.707 29.5081 150.699 29.4515 150.683 29.411C150.663 29.3706 150.635 29.322 150.588 29.2776L150.364 29.0632V28.9419H156.212C157.165 28.9419 157.979 29.043 158.657 29.2412C159.335 29.4393 159.929 29.7507 160.436 30.1754C161.154 30.778 161.704 31.514 162.083 32.3835C162.458 33.253 162.646 34.2034 162.646 35.2428C162.646 36.2053 162.47 37.0829 162.123 37.8715C161.776 38.6602 161.262 39.3315 160.579 39.8977C160.013 40.3628 159.415 40.6944 158.781 40.8926C158.146 41.0907 157.273 41.1878 156.156 41.1878H150.368L150.364 41.1838Z" fill="white"/>
<path id="Vector_7" d="M166.228 35.3074L166.958 33.625H175.278L174.165 35.7441H174.066L174.082 35.5702V35.5338C174.082 35.4651 174.054 35.4085 174.002 35.368C173.95 35.3235 173.874 35.3033 173.786 35.3033H166.232L166.228 35.3074ZM170.376 30.5918C169.658 30.5918 169.06 30.6565 168.581 30.79C168.106 30.9234 167.704 31.1256 167.372 31.4006C166.85 31.8495 166.459 32.3834 166.192 32.9981C165.925 33.6169 165.793 34.3004 165.793 35.0526C165.793 35.8533 165.925 36.553 166.184 37.1596C166.443 37.7662 166.834 38.2758 167.357 38.6883C167.723 38.9836 168.134 39.1898 168.585 39.3152C169.036 39.4365 169.654 39.5012 170.444 39.5012H175.677C175.753 39.5012 175.817 39.4891 175.873 39.4689C175.928 39.4446 175.992 39.4042 176.06 39.3475L176.391 39.0644H176.535L175.394 41.1836H170.44C169.295 41.1836 168.41 41.0825 167.775 40.8884C167.141 40.6902 166.551 40.3545 165.996 39.8935C165.318 39.3273 164.804 38.6519 164.453 37.8633C164.102 37.0747 163.93 36.193 163.93 35.2265C163.93 34.4742 164.03 33.7665 164.233 33.1073C164.433 32.4481 164.732 31.8415 165.131 31.2914C165.406 30.9072 165.725 30.5635 166.084 30.2561C166.439 29.9528 166.83 29.6899 167.257 29.4716C167.632 29.2815 168.035 29.148 168.465 29.0671C168.896 28.9862 169.534 28.9458 170.376 28.9458H176.375L175.242 31.0407H175.159L175.175 30.887V30.8506C175.175 30.7778 175.147 30.7172 175.091 30.6686C175.035 30.6242 174.963 30.5999 174.879 30.5999H170.376V30.5918Z" fill="white"/>
<path id="Vector_8" d="M178.389 40.5286V29.5687C178.389 29.5081 178.381 29.4515 178.365 29.411C178.35 29.3706 178.318 29.322 178.274 29.2776L178.07 29.0632V28.9419H180.499V29.0632L180.296 29.2776C180.252 29.318 180.216 29.3625 180.2 29.411C180.18 29.4596 180.168 29.5121 180.168 29.5687V39.5014H184.58C184.644 39.5014 184.7 39.4933 184.752 39.473C184.807 39.4528 184.871 39.4124 184.943 39.3477L185.266 39.0646L185.378 39.1293L184.281 41.1838H178.07V41.0624L178.274 40.8481C178.31 40.8076 178.342 40.7591 178.361 40.7106C178.381 40.658 178.389 40.5973 178.389 40.5286Z" fill="white"/>
<path id="Vector_9" d="M194.915 37.8998V29.5687C194.911 29.5081 194.899 29.4515 194.883 29.411C194.863 29.3706 194.835 29.322 194.787 29.2776L194.584 29.0632V28.9419H197.013V29.0632L196.81 29.2776C196.762 29.318 196.734 29.3625 196.714 29.407C196.698 29.4555 196.682 29.5081 196.678 29.5728V38.4539C196.678 39.4326 196.255 40.1646 195.414 40.658C194.572 41.1514 193.304 41.3981 191.616 41.3981C189.929 41.3981 188.669 41.1514 187.823 40.658C186.977 40.1646 186.555 39.4286 186.555 38.4539V29.5728C186.555 29.5121 186.547 29.4555 186.531 29.4151C186.515 29.3746 186.483 29.3261 186.435 29.2816L186.231 29.0673V28.9459H188.661V29.0673L188.457 29.2816C188.413 29.322 188.381 29.3665 188.361 29.4151C188.342 29.4636 188.334 29.5162 188.334 29.5728V37.9039C188.334 38.5914 188.569 39.0727 189.04 39.3477C189.51 39.6186 190.364 39.7561 191.604 39.7561C192.845 39.7561 193.734 39.6227 194.209 39.3517C194.68 39.0808 194.915 38.5995 194.915 37.9079" fill="white"/>
<path id="Vector_10" d="M203.998 33.3133L206.343 29.9971C206.435 29.8717 206.495 29.7706 206.526 29.7019C206.558 29.6291 206.57 29.5563 206.57 29.4835C206.57 29.4349 206.562 29.3905 206.538 29.3379C206.518 29.2853 206.495 29.2449 206.471 29.2166L206.311 29.0629V28.9415H209.167L204.935 34.6035L210.017 41.1834H207.057V41.0621L207.22 40.8963C207.248 40.8679 207.272 40.8275 207.292 40.7749C207.312 40.7224 207.32 40.6779 207.32 40.6374C207.32 40.5606 207.304 40.4837 207.268 40.4069C207.232 40.3301 207.173 40.233 207.089 40.1198L203.886 35.8288L200.846 40.1198C200.763 40.2532 200.699 40.3543 200.667 40.4312C200.631 40.504 200.615 40.5727 200.615 40.6374C200.615 40.69 200.623 40.7345 200.647 40.779C200.667 40.8194 200.691 40.8599 200.727 40.8922L200.898 41.058V41.1794H198.026L202.937 34.5994L198.553 28.9375H201.509V29.0588L201.349 29.2125C201.305 29.257 201.273 29.3015 201.253 29.3419C201.237 29.3824 201.229 29.4228 201.229 29.4592C201.229 29.536 201.249 29.621 201.289 29.718C201.329 29.8151 201.389 29.9081 201.461 29.993L204.002 33.3093L203.998 33.3133Z" fill="white"/>
<path id="Vector_11" d="M212.685 35.3074L213.415 33.625H221.736L220.623 35.7441H220.519L220.539 35.5702V35.5338C220.539 35.4651 220.511 35.4085 220.459 35.368C220.407 35.3235 220.332 35.3033 220.244 35.3033H212.689L212.685 35.3074ZM216.833 30.5918C216.111 30.5918 215.513 30.6565 215.038 30.79C214.564 30.9234 214.161 31.1256 213.834 31.4006C213.311 31.8495 212.92 32.3834 212.653 32.9981C212.386 33.6169 212.25 34.3004 212.25 35.0526C212.25 35.8533 212.382 36.553 212.641 37.1596C212.904 37.7662 213.295 38.2758 213.814 38.6883C214.181 38.9836 214.592 39.1898 215.042 39.3152C215.493 39.4365 216.111 39.5012 216.901 39.5012H222.134C222.206 39.5012 222.274 39.4891 222.33 39.4689C222.39 39.4446 222.45 39.4042 222.517 39.3475L222.848 39.0644H222.992L221.855 41.1836H216.901C215.756 41.1836 214.867 41.0825 214.237 40.8884C213.606 40.6902 213.012 40.3545 212.458 39.8935C211.78 39.3273 211.265 38.6519 210.918 37.8633C210.567 37.0747 210.396 36.193 210.396 35.2265C210.396 34.4742 210.495 33.7665 210.699 33.1073C210.902 32.4481 211.197 31.8415 211.596 31.2914C211.875 30.9072 212.19 30.5635 212.545 30.2561C212.904 29.9528 213.295 29.6899 213.718 29.4716C214.089 29.2815 214.492 29.148 214.923 29.0671C215.354 28.9862 215.992 28.9458 216.837 28.9458H222.836L221.708 31.0407H221.62L221.636 30.887V30.8506C221.636 30.7778 221.608 30.7172 221.552 30.6686C221.496 30.6242 221.424 30.5999 221.341 30.5999H216.837L216.833 30.5918Z" fill="white"/>
<path id="Vector_12" d="M221.069 26.333H221.249C221.456 26.333 221.628 26.2602 221.628 26.0863C221.628 25.9367 221.516 25.8315 221.277 25.8315C221.177 25.8315 221.105 25.8437 221.065 25.8518V26.329L221.069 26.333ZM221.057 27.2794H220.679V25.6172C220.83 25.5849 221.038 25.5646 221.309 25.5646C221.62 25.5646 221.759 25.6172 221.879 25.686C221.967 25.7588 222.039 25.8882 222.039 26.054C222.039 26.236 221.899 26.3775 221.696 26.4422V26.4624C221.855 26.5231 221.947 26.6444 221.999 26.8669C222.047 27.1217 222.079 27.2228 222.118 27.2834H221.708C221.66 27.2228 221.628 27.0691 221.58 26.879C221.552 26.697 221.448 26.6161 221.241 26.6161H221.057V27.2875V27.2794ZM220.048 26.4058C220.048 27.15 220.587 27.7364 221.329 27.7364C222.071 27.7364 222.581 27.15 222.581 26.418C222.581 25.686 222.051 25.0793 221.321 25.0793C220.591 25.0793 220.048 25.6779 220.048 26.4058ZM223 26.4058C223 27.3481 222.27 28.0923 221.321 28.0923C220.371 28.0923 219.625 27.3481 219.625 26.4058C219.625 25.4635 220.379 24.7437 221.321 24.7437C222.262 24.7437 223 25.4837 223 26.4058Z" fill="white"/>
<path id="Vector_13" fill-rule="evenodd" clip-rule="evenodd" d="M166.974 59.6777L168.082 63.1355H171.664L168.768 65.2668L169.877 68.7247L166.978 66.5893L164.082 68.7247L165.187 65.2668L162.291 63.1355H165.873L166.978 59.6777H166.974ZM149.774 59.6777L150.883 63.1355H154.465L151.569 65.2668L152.674 68.7247L149.774 66.5893L146.878 68.7247L147.983 65.2668L145.087 63.1355H148.669L149.774 59.6777ZM132.574 59.6777L133.683 63.1355H137.265L134.365 65.2668L135.47 68.7247L132.57 66.5893L129.675 68.7247L130.779 65.2668L127.88 63.1355H131.465L132.57 59.6777H132.574ZM184.177 59.6777L185.286 63.1355H188.868L185.968 65.2668L187.077 68.7247L184.177 66.5893L181.277 68.7247L182.382 65.2668L179.486 63.1355H183.068L184.177 59.6777ZM115.375 59.6777L116.484 63.1355H120.066L117.17 65.2668L118.275 68.7247L115.375 66.5893L112.479 68.7247L113.584 65.2668L110.688 63.1355H114.274L115.379 59.6777H115.375Z" fill="white"/>
<path id="Vector_14" fill-rule="evenodd" clip-rule="evenodd" d="M77.3936 46.3361C77.3936 46.0409 109.798 45.8022 149.774 45.8022C189.749 45.8022 222.154 46.0409 222.154 46.3361C222.154 46.6313 189.749 46.8699 149.774 46.8699C109.798 46.8699 77.3936 46.6313 77.3936 46.3361Z" fill="white"/>
<path id="Vector_15" d="M126.863 57.6882V50.3601C126.863 50.3196 126.859 50.2832 126.847 50.2549C126.835 50.2266 126.815 50.1983 126.783 50.1659L126.635 50.0203V49.9395H128.271V50.0203L128.123 50.1659C128.091 50.1942 128.071 50.2225 128.059 50.2549C128.047 50.2873 128.039 50.3237 128.039 50.3601V57.6882C128.039 57.7327 128.047 57.7731 128.059 57.8095C128.071 57.8419 128.095 57.8742 128.123 57.9025L128.271 58.0481V58.129H126.635V58.0481L126.783 57.9025C126.811 57.8742 126.831 57.8459 126.843 57.8095C126.855 57.7731 126.863 57.7327 126.863 57.6882ZM132.523 57.6882V54.1293H128.705C128.662 54.1293 128.622 54.1374 128.586 54.1495C128.55 54.1616 128.51 54.1899 128.462 54.2344L128.239 54.4245L128.171 54.3881L128.893 53.005H132.523V50.3601C132.523 50.3237 132.515 50.2873 132.503 50.2549C132.491 50.2225 132.467 50.1942 132.439 50.1659L132.291 50.0203V49.9395H133.935V50.0203L133.783 50.1659C133.755 50.1902 133.739 50.2145 133.727 50.2468C133.719 50.2792 133.711 50.3156 133.711 50.3641V57.6922C133.711 57.7448 133.715 57.7893 133.727 57.8216C133.739 57.854 133.755 57.8823 133.779 57.9066L133.931 58.0522V58.133H132.287V58.0522L132.435 57.9066C132.467 57.8783 132.487 57.8499 132.499 57.8136C132.511 57.7772 132.519 57.7367 132.519 57.6922L132.523 57.6882Z" fill="white"/>
<path id="Vector_16" d="M139.73 49.7939C140.341 49.7939 140.907 49.8829 141.434 50.0568C141.956 50.2307 142.407 50.4815 142.782 50.809C143.272 51.2296 143.639 51.7149 143.887 52.2569C144.134 52.7988 144.258 53.3893 144.258 54.0282C144.258 54.6672 144.134 55.2496 143.883 55.7956C143.631 56.3375 143.264 56.8188 142.782 57.2394C142.403 57.575 141.952 57.8298 141.426 58.0037C140.899 58.1817 140.337 58.2706 139.73 58.2706C139.124 58.2706 138.566 58.1817 138.039 58.0037C137.513 57.8258 137.062 57.571 136.683 57.2394C136.196 56.8228 135.825 56.3456 135.578 55.8037C135.331 55.2617 135.207 54.6713 135.207 54.0282C135.207 53.3852 135.331 52.8069 135.582 52.2609C135.833 51.715 136.2 51.2337 136.683 50.809C137.058 50.4815 137.509 50.2307 138.031 50.0568C138.554 49.8829 139.12 49.7939 139.726 49.7939H139.73ZM139.73 50.894C138.765 50.894 137.975 51.1852 137.369 51.7716C136.759 52.358 136.456 53.1102 136.456 54.0282C136.456 54.9463 136.759 55.7026 137.369 56.289C137.979 56.8754 138.765 57.1666 139.73 57.1666C140.696 57.1666 141.485 56.8754 142.096 56.289C142.706 55.7026 143.013 54.9503 143.013 54.0282C143.013 53.1062 142.706 52.358 142.096 51.7716C141.485 51.1852 140.696 50.894 139.73 50.894Z" fill="white"/>
<path id="Vector_17" d="M148.486 51.0435H145.247C145.211 51.0435 145.171 51.0516 145.139 51.0678C145.107 51.084 145.059 51.1163 145.004 51.1649L144.78 51.3387L144.712 51.3064L145.434 49.9395H153.548L152.786 51.3387H152.73V51.2134C152.73 51.1648 152.714 51.1244 152.678 51.0921C152.642 51.0597 152.598 51.0476 152.542 51.0476H149.674V57.6882C149.674 57.7408 149.678 57.7852 149.69 57.8136C149.698 57.8459 149.718 57.8742 149.746 57.8985L149.894 58.0441V58.125H148.258V58.0441L148.406 57.8985C148.438 57.8702 148.458 57.8419 148.47 57.8055C148.482 57.7691 148.49 57.7286 148.49 57.6841V51.0435H148.486Z" fill="white"/>
<path id="Vector_18" d="M158.342 51.0437C157.859 51.0437 157.46 51.0882 157.145 51.1771C156.826 51.2661 156.559 51.4036 156.339 51.5856C155.992 51.8849 155.729 52.2408 155.55 52.6533C155.37 53.0658 155.282 53.5228 155.282 54.0283C155.282 54.5621 155.37 55.0313 155.546 55.4357C155.721 55.8401 155.98 56.1798 156.331 56.4589C156.579 56.653 156.85 56.7945 157.153 56.8754C157.456 56.9563 157.867 57.0008 158.394 57.0008H161.892C161.94 57.0008 161.984 56.9927 162.023 56.9765C162.059 56.9604 162.103 56.9361 162.147 56.8956L162.37 56.7056H162.466L161.704 58.121H158.394C157.628 58.121 157.033 58.0563 156.615 57.9229C156.192 57.7894 155.797 57.567 155.426 57.2556C154.971 56.8795 154.628 56.4265 154.397 55.9008C154.166 55.375 154.046 54.7846 154.046 54.1334C154.046 53.632 154.114 53.1588 154.249 52.718C154.385 52.2772 154.584 51.8727 154.848 51.5047C155.031 51.2459 155.247 51.0154 155.482 50.8131C155.721 50.6109 155.98 50.437 156.268 50.2874C156.519 50.162 156.786 50.069 157.073 50.0164C157.361 49.9639 157.787 49.9355 158.35 49.9355H162.358L161.605 51.3348H161.549L161.561 51.2297V51.2054C161.561 51.1569 161.541 51.1165 161.505 51.0841C161.469 51.0518 161.421 51.0396 161.361 51.0396H158.35L158.342 51.0437ZM155.57 54.1941L156.056 53.0698H161.617L160.871 54.4853H160.803L160.815 54.368V54.3437C160.815 54.2993 160.799 54.2588 160.763 54.2305C160.727 54.2022 160.679 54.186 160.619 54.186H155.57V54.1941Z" fill="white"/>
<path id="Vector_19" d="M163.699 57.6882V50.3601C163.699 50.3196 163.695 50.2832 163.683 50.2549C163.671 50.2266 163.651 50.1983 163.619 50.1659L163.483 50.0203V49.9395H165.107V50.0203L164.971 50.1659C164.939 50.1942 164.919 50.2225 164.907 50.2549C164.895 50.2873 164.887 50.3237 164.887 50.3601V57.0007H167.835C167.875 57.0007 167.915 56.9926 167.951 56.9804C167.987 56.9683 168.031 56.94 168.078 56.8955L168.294 56.7054L168.37 56.7499L167.636 58.1209H163.483V58.04L163.619 57.8944C163.647 57.8661 163.667 57.8378 163.679 57.8014C163.691 57.765 163.699 57.7246 163.699 57.6801V57.6882Z" fill="white"/>
<path id="Vector_20" d="M171.812 52.7664L174.301 53.4175C175.27 53.6723 176.008 54.0767 176.515 54.6388C177.021 55.201 177.277 55.8885 177.277 56.7054V58.1209H168.693L169.183 56.9966H176.056C176.056 56.9683 176.064 56.94 176.064 56.9036C176.064 56.8672 176.064 56.8187 176.064 56.7499C176.064 56.1837 175.897 55.7186 175.558 55.3547C175.219 54.9866 174.704 54.7116 174.01 54.5215L170.671 53.6642C170.085 53.5105 169.646 53.2759 169.359 52.9605C169.072 52.645 168.928 52.2366 168.928 51.7432C168.928 51.177 169.12 50.7362 169.507 50.4167C169.893 50.0972 170.432 49.9395 171.126 49.9395H176.642L175.881 51.3387H175.813L175.825 51.2336V51.2093C175.825 51.1608 175.809 51.1204 175.773 51.088C175.737 51.0557 175.689 51.0435 175.629 51.0435H171.13C170.799 51.0435 170.552 51.0961 170.392 51.2093C170.233 51.3185 170.153 51.4884 170.153 51.7189C170.153 52.1355 170.683 52.4792 171.748 52.7502C171.78 52.7583 171.8 52.7623 171.816 52.7664H171.812Z" fill="white"/>
<g id="Group">
<path id="Vector_21" d="M34.0139 39.8579C34.0139 39.779 33.975 39.7396 33.9012 39.7396C33.8428 39.7396 33.769 39.8027 33.6834 39.9209C32.6337 41.4189 31.6228 42.1679 30.6469 42.1679C29.7916 42.1679 29.36 41.7934 29.36 41.0444C29.36 40.7448 29.57 40.1574 29.9899 39.2981C30.4603 38.3559 30.6936 37.5399 30.6936 36.8501C30.6936 35.9356 30.402 35.2063 29.8266 34.6781C29.2434 34.1538 28.4425 33.8896 27.416 33.8896C25.0949 33.8896 22.941 34.8003 20.9543 36.6215C18.9675 38.4466 17.9761 40.4255 17.9761 42.5621C17.9761 43.7368 18.3104 44.675 18.9869 45.3845C19.6634 46.0941 20.5538 46.4489 21.6658 46.4489C23.3026 46.4489 24.7839 45.7748 26.0941 44.4306C26.4596 44.064 26.8095 43.6146 27.1517 43.0666C27.4938 42.5305 27.6649 42.1521 27.6649 41.9392C27.6649 41.8407 27.6182 41.7894 27.5327 41.7894C27.4821 41.7894 27.4433 41.8407 27.4122 41.9392C26.9534 43.1139 26.168 44.1152 25.0483 44.9509C23.9324 45.7827 22.8244 46.2005 21.7202 46.2005C20.7054 46.2005 19.8773 45.8694 19.2397 45.1993C18.5981 44.5331 18.2793 43.6698 18.2793 42.6173C18.2793 40.5398 19.2358 38.6122 21.1409 36.8343C23.0499 35.0525 25.1183 34.1616 27.3538 34.1616C28.1392 34.1616 28.8002 34.343 29.3367 34.7017C29.881 35.0604 30.1532 35.494 30.1532 36.0026C30.1532 36.3849 30.0015 36.8737 29.6983 37.4572C29.0529 38.7225 28.7263 39.641 28.7263 40.2047C28.7263 40.8749 28.9051 41.4149 29.2589 41.821C29.6127 42.2309 30.0793 42.4359 30.643 42.4359C31.5334 42.4359 32.4743 41.8486 33.4735 40.6581C33.8312 40.2363 34.01 39.9643 34.01 39.85" fill="white"/>
<path id="Vector_22" d="M45.0478 36.9128C43.7609 37.2518 42.2524 38.3161 40.5106 40.0979C38.7416 41.8915 37.2369 43.9138 35.9928 46.1726H30.4408C33.2868 42.9046 35.7906 40.5749 37.964 39.1873C40.1412 37.8037 42.5012 37.0429 45.0478 36.9128ZM49.694 37.0941C49.694 36.6408 49.0136 36.4082 47.6605 36.4082C47.0579 36.4082 46.4047 36.4831 45.7127 36.6211C42.7151 36.6408 39.8769 37.4134 37.1864 38.939C34.4998 40.4606 31.7238 42.8731 28.8661 46.1726C27.8825 46.1528 26.9183 46.145 25.9813 46.145L25.8063 46.417H28.6406L28.2013 46.89C27.3732 47.7375 26.2573 48.9201 24.8654 50.4378C24.1617 51.2144 23.5241 51.8412 22.9487 52.3182C20.4293 54.4508 18.1198 55.523 16.0203 55.523C14.5585 55.523 13.3221 55.1801 12.319 54.4981C11.3159 53.8201 10.8105 52.9804 10.8105 51.991C10.8105 51.7269 10.861 51.4667 10.9582 51.2144C11.0554 50.966 11.1565 50.836 11.2498 50.836C11.3392 50.836 11.3859 50.8911 11.3859 50.9858C11.3859 51.0607 11.3742 51.1158 11.3587 51.1592L11.3276 51.4588C11.3276 51.9161 11.5569 52.1447 12.0157 52.1447C12.3112 52.1447 12.5639 52.0264 12.7855 51.786C13.0072 51.5495 13.116 51.2617 13.116 50.9306C13.116 50.292 12.7972 49.9727 12.1635 49.9727C11.693 49.9727 11.3003 50.1698 10.9699 50.5679C10.6433 50.9621 10.48 51.4391 10.48 51.9949C10.48 53.0671 11.0204 53.9777 12.0974 54.7228C13.1782 55.4757 14.4846 55.8502 16.0242 55.8502C18.7263 55.8502 21.6112 54.5651 24.6633 51.9949C25.9735 50.8911 27.8203 49.0345 30.2075 46.4209H35.8411C33.6289 50.221 32.1359 52.5468 31.3622 53.4061C30.5807 54.2694 29.4377 54.8844 27.9291 55.2589C27.2215 55.1603 26.6033 55.1052 26.0707 55.1052C25.3048 55.1052 24.9276 55.2313 24.9276 55.4678C24.9276 55.6807 25.2115 55.7871 25.7752 55.7871C26.5839 55.7871 27.3032 55.6807 27.9291 55.4678C28.9517 55.6807 29.8187 55.7871 30.5302 55.7871C31.7705 55.7871 32.8163 55.5388 33.6794 55.0381C34.5348 54.5375 35.4873 53.623 36.5293 52.2984C37.6529 50.8754 38.2128 50.0988 38.2128 49.9411C38.2011 49.9056 38.1661 49.8859 38.1117 49.8859C38.0612 49.8859 37.9912 49.9529 37.9018 50.0988C37.1242 51.3918 36.1444 52.6177 34.9664 53.7728C33.7455 54.9672 32.2409 55.5624 30.4408 55.5624C29.877 55.5624 29.2083 55.4994 28.4346 55.3811C32.1204 54.4902 35.1491 51.5889 37.513 46.6811C39.0526 43.4841 40.4251 41.1702 41.6303 39.7431C42.8317 38.3122 44.2236 37.3543 45.7982 36.8576C46.4864 36.8576 47.3534 36.968 48.3993 37.1887C48.963 37.3149 49.2935 37.374 49.379 37.374C49.5851 37.374 49.6901 37.2794 49.6901 37.0981L49.694 37.0941Z" fill="white"/>
<path id="Vector_23" d="M29.5386 87.4103V86.4958C29.5386 86.3972 29.6163 86.3145 29.7096 86.3145H29.9935C30.0829 86.3145 30.1606 86.3972 30.1606 86.4958V87.4892C30.1606 87.5917 30.0829 87.6705 29.9935 87.6705H29.768C29.768 87.6705 29.7641 87.6705 29.7602 87.6705C29.6202 87.6705 29.5386 87.5049 29.5386 87.4103Z" fill="white"/>
<path id="Vector_24" d="M30.5805 87.4892V86.4958C30.5805 86.3972 30.6544 86.3145 30.7477 86.3145H31.0316C31.1249 86.3145 31.1987 86.3972 31.1987 86.4958V87.4103C31.1987 87.5089 31.1171 87.6784 30.9732 87.6705H30.7438C30.6505 87.6705 30.5767 87.5917 30.5767 87.4892" fill="white"/>
<path id="Vector_25" d="M31.9299 85.9202H28.8117C28.8117 85.9202 28.6484 85.9084 28.6484 86.0306C28.6484 86.3617 28.9478 86.3381 29.1539 86.3381C29.1539 86.6337 29.0917 87.3236 29.3172 87.6902C29.5427 88.0489 30.3747 87.9977 30.3747 87.9977C30.3747 87.9977 31.2067 88.0489 31.4322 87.6902C31.6616 87.3236 31.5955 86.6337 31.5955 86.3381C31.8016 86.3381 32.1048 86.3578 32.1048 86.0306C32.1048 85.9281 31.9804 85.9202 31.9493 85.9202H31.9377" fill="white"/>
<path id="Vector_26" d="M27.9365 81.4893H26.5913C26.5641 81.4893 26.5252 81.509 26.5291 81.5523C26.5446 81.9308 27.3455 82.0451 27.3533 82.187C27.3533 83.953 27.8277 85.2066 28.8891 85.2302C28.9668 85.2421 28.9241 85.1474 28.8657 85.1001C28.2203 84.5088 28.057 83.5509 28.0493 81.6036C28.0493 81.5681 28.0454 81.4932 27.9404 81.4932L27.9365 81.4893Z" fill="white"/>
<path id="Vector_27" d="M32.8047 81.4893C32.7037 81.4893 32.6959 81.5642 32.6959 81.5997C32.692 83.547 32.5287 84.5049 31.8794 85.0962C31.8289 85.1435 31.7783 85.2381 31.86 85.2263C32.9175 85.2066 33.3957 83.9491 33.3957 82.1831C33.3996 82.0451 34.2044 81.9269 34.22 81.5484C34.22 81.5051 34.1811 81.4854 34.1577 81.4854H32.8125L32.8047 81.4893Z" fill="white"/>
<path id="Vector_28" d="M29.216 81.4893H28.73C28.6405 81.4893 28.6211 81.5484 28.6211 81.576C28.6289 83.4839 28.8272 85.0568 29.6475 85.246C29.7058 85.2499 29.7058 85.2263 29.6747 85.1711C29.3909 84.5995 29.3287 83.3854 29.3287 81.5839C29.3287 81.5523 29.3209 81.4893 29.216 81.4893Z" fill="white"/>
<path id="Vector_29" d="M31.4122 81.5839C31.4122 83.3814 31.3461 84.5995 31.0623 85.1711C31.0311 85.2302 31.035 85.2539 31.0934 85.246C31.9137 85.0568 32.112 83.4839 32.1159 81.576C32.1159 81.5484 32.0964 81.4893 32.007 81.4893H31.521C31.4199 81.4893 31.4122 81.5563 31.4122 81.5839Z" fill="white"/>
<path id="Vector_30" d="M29.9351 81.6233C29.9351 84.7651 30.0245 85.2973 30.3706 85.2973C30.7166 85.2973 30.8021 84.7651 30.806 81.6233C30.8099 81.5366 30.7982 81.4854 30.6971 81.4854H30.044C29.9468 81.4854 29.9312 81.5366 29.9351 81.6233Z" fill="white"/>
<path id="Vector_31" d="M26.292 80.2514V79.254C26.292 79.1555 26.3659 79.0767 26.4631 79.0767H26.7469C26.8402 79.0767 26.9141 79.1594 26.9141 79.254V80.2514C26.9141 80.3499 26.8363 80.4327 26.7469 80.4327H26.4631C26.3659 80.4327 26.292 80.3499 26.292 80.2514Z" fill="white"/>
<path id="Vector_32" d="M27.3574 80.2514V79.254C27.3574 79.1555 27.4352 79.0767 27.5285 79.0767H27.8123C27.9056 79.0767 27.9834 79.1594 27.9834 79.254V80.2514C27.9834 80.3499 27.9056 80.4327 27.8123 80.4327H27.5285C27.4352 80.4327 27.3574 80.3499 27.3574 80.2514Z" fill="white"/>
<path id="Vector_33" d="M28.4189 80.2514V79.254C28.4189 79.1555 28.4928 79.0767 28.59 79.0767H28.87C28.9633 79.0767 29.0371 79.1594 29.0371 79.254V80.2514C29.0371 80.3499 28.9633 80.4327 28.87 80.4327H28.59C28.4928 80.4327 28.4189 80.3499 28.4189 80.2514Z" fill="white"/>
<path id="Vector_34" d="M29.4839 80.2514V79.254C29.4839 79.1555 29.5616 79.0767 29.6511 79.0767H29.9349C30.0282 79.0767 30.106 79.1594 30.106 79.254V80.2514C30.106 80.3499 30.0282 80.4327 29.9349 80.4327H29.6511C29.5578 80.4327 29.4839 80.3499 29.4839 80.2514Z" fill="white"/>
<path id="Vector_35" d="M30.6348 80.2514V79.254C30.6348 79.1555 30.7086 79.0767 30.802 79.0767H31.0858C31.1791 79.0767 31.2529 79.1594 31.2529 79.254V80.2514C31.2529 80.3499 31.1791 80.4327 31.0858 80.4327H30.802C30.7086 80.4327 30.6348 80.3499 30.6348 80.2514Z" fill="white"/>
<path id="Vector_36" d="M31.7002 80.2514V79.254C31.7002 79.1555 31.778 79.0767 31.8674 79.0767H32.1512C32.2445 79.0767 32.3223 79.1594 32.3223 79.254V80.2514C32.3223 80.3499 32.2445 80.4327 32.1512 80.4327H31.8674C31.7741 80.4327 31.7002 80.3499 31.7002 80.2514Z" fill="white"/>
<path id="Vector_37" d="M32.7617 80.2514V79.254C32.7617 79.1555 32.8395 79.0767 32.9328 79.0767H33.2166C33.3138 79.0767 33.3838 79.1594 33.3838 79.254V80.2514C33.3838 80.3499 33.3099 80.4327 33.2166 80.4327H32.9328C32.8395 80.4327 32.7617 80.3499 32.7617 80.2514Z" fill="white"/>
<path id="Vector_38" d="M33.8267 80.2514V79.254C33.8267 79.1555 33.9044 79.0767 33.9938 79.0767H34.2738C34.371 79.0767 34.4448 79.1594 34.4448 79.254V80.2514C34.4448 80.3499 34.3671 80.4327 34.2738 80.4327H33.9938C33.9005 80.4327 33.8267 80.3499 33.8267 80.2514Z" fill="white"/>
<path id="Vector_39" d="M25.5107 78.6787C25.5107 78.6787 25.3979 78.6866 25.3979 78.7891C25.4057 79.1163 25.6973 79.0966 25.9034 79.0966C25.9345 80.6655 25.9539 80.7601 26.6615 80.7601H34.0837C34.7874 80.7601 34.8107 80.6655 34.8418 79.0966C35.0479 79.0966 35.3434 79.1163 35.3511 78.7891C35.3511 78.6866 35.2423 78.6787 35.2423 78.6787H25.5146H25.5107Z" fill="white"/>
<path id="Vector_40" d="M30.2381 68.2203C29.8493 68.6855 29.7755 69.0363 29.7521 69.3675C29.7094 69.9391 29.9699 70.7629 29.8377 70.8142C29.721 70.8615 29.2545 70.1835 29.0406 69.7577C28.9901 69.6671 28.9162 69.7301 28.8812 69.805C28.6363 70.3766 28.3991 71.6262 29.3556 72.6709C29.5344 72.8916 29.931 73.1439 29.8066 73.2622C29.686 73.3844 29.2156 72.931 28.7257 72.7418C28.2358 72.5487 27.2911 72.2964 27.1433 72.659C26.9917 73.0217 27.7265 73.7313 28.1658 74.0979C28.6674 74.5078 29.6044 75.3948 29.3245 75.3948C28.4302 74.9533 27.7032 75.2292 27.4699 75.7338C27.2327 76.2384 27.4893 76.7193 27.7226 76.9164C27.7576 76.944 27.7732 76.9006 27.7848 76.8652C27.8587 76.6208 28.1697 76.3921 28.5235 76.4394C28.9084 76.4907 29.3633 77.0386 29.41 77.7324C29.4139 77.7639 29.4411 77.831 29.5305 77.8388H29.966C30.0748 77.8349 30.0826 77.7837 30.0826 77.7521C30.0943 76.9401 29.4372 75.4382 27.9442 76.0492C27.8626 76.061 27.8976 75.9861 27.9442 75.9388C28.3952 75.4539 29.3633 75.5131 30.0048 76.4749C30.0321 76.5104 30.0865 76.5222 30.0787 76.4355V75.312C29.7288 74.5157 28.7646 73.6288 28.0259 73.2267C27.917 73.1715 27.9987 73.1005 28.092 73.1124C28.749 73.1833 29.6666 74.0624 30.0282 74.5C30.0593 74.5394 30.1098 74.5512 30.1098 74.4566C30.1098 73.9757 30.1215 72.9705 30.1332 72.7261C29.6549 72.1623 29.1184 71.5159 29.1028 70.8299C29.1028 70.7669 29.1456 70.7314 29.1923 70.8142C29.3983 71.2478 29.7599 71.7918 30.0593 72.1032C30.0943 72.1348 30.1565 72.1584 30.1565 72.0835C30.1681 71.5592 30.2226 70.8536 30.2809 70.2308C30.3003 70.0613 30.3314 69.9272 30.3625 69.9154C30.3975 69.9272 30.4247 70.0613 30.4442 70.2308C30.5064 70.8536 30.5569 71.5553 30.5725 72.0835C30.5725 72.1623 30.6386 72.1387 30.6736 72.1032C30.973 71.7879 31.3306 71.2478 31.5367 70.8142C31.5795 70.7314 31.6261 70.7708 31.6222 70.8299C31.6067 71.5159 31.0701 72.1623 30.5958 72.7261C30.6036 72.9665 30.6191 73.9717 30.6153 74.4566C30.6191 74.5512 30.6697 74.5394 30.6969 74.5C31.0585 74.0624 31.976 73.1833 32.637 73.1124C32.7264 73.1045 32.812 73.1715 32.7031 73.2267C31.9644 73.6288 31.0002 74.5157 30.6502 75.312V76.4355C30.6386 76.5261 30.6969 76.5143 30.7241 76.4749C31.3656 75.5091 32.3337 75.4539 32.7886 75.9388C32.8392 75.9861 32.8742 76.061 32.7886 76.0492C31.2956 75.4382 30.6386 76.9401 30.6502 77.7521C30.6502 77.7837 30.658 77.8349 30.763 77.8388H31.1985C31.2918 77.831 31.3151 77.7639 31.3151 77.7324C31.3656 77.0386 31.8205 76.4867 32.2015 76.4394C32.5592 76.3961 32.8703 76.6247 32.9403 76.8652C32.9519 76.9046 32.9675 76.944 32.9986 76.9164C33.2319 76.7193 33.4924 76.2384 33.2552 75.7338C33.0219 75.2292 32.291 74.9533 31.4006 75.3948C31.1168 75.3948 32.0616 74.5078 32.5592 74.0979C33.0025 73.7313 33.7373 73.0217 33.5857 72.659C33.434 72.2964 32.4931 72.5487 32.0033 72.7418C31.5134 72.931 31.0429 73.3844 30.9185 73.2622C30.798 73.1439 31.1946 72.8916 31.3734 72.6709C32.326 71.6262 32.0888 70.3766 31.8477 69.805C31.8166 69.7301 31.7428 69.6671 31.6883 69.7577C31.4784 70.1835 31.0118 70.8575 30.8952 70.8142C30.763 70.7629 31.0235 69.9391 30.9807 69.3675C30.9574 69.0363 30.8874 68.6815 30.4947 68.2203C30.4597 68.1809 30.4209 68.1533 30.3625 68.1533C30.3081 68.1533 30.2692 68.1809 30.2304 68.2203" fill="white"/>
<path id="Vector_41" d="M18.2482 63.1471C17.976 63.3088 18.8974 63.9119 18.6097 64.109C18.532 64.1484 18.3259 63.8961 17.9293 63.6438C17.4433 63.3324 16.6696 63.021 15.5149 63.2654C15.4294 63.2851 15.4333 63.3718 15.5227 63.3955C16.8796 63.7424 18.2676 64.3652 19.7606 65.8119C19.8111 65.8592 19.9005 65.8435 19.8811 65.6976C19.7839 64.9802 19.5467 64.2864 19.1579 63.837C19.1152 63.7857 19.2279 63.8015 19.3251 63.8685C19.9316 64.2982 20.3282 65.1536 20.3204 66.419C20.6626 66.8881 21.1913 67.5937 21.4752 68.1535C21.5879 67.7317 21.7162 67.2547 21.6734 66.5649C21.6657 66.4545 21.7318 66.4427 21.7629 66.553C22.0311 67.436 21.8445 68.2323 21.7201 68.6817C21.899 69.0759 22.175 69.8762 22.3072 70.3216C22.3383 70.4201 22.416 70.3965 22.4394 70.3177C22.5716 69.8801 22.7776 69.5214 23.0887 69.2021C23.3919 68.8907 23.7652 68.8039 24.084 68.8985C24.1695 68.9222 24.1617 69.001 24.084 69.0129C23.7302 69.0562 23.4114 69.2849 23.182 69.5963C22.8593 70.0338 22.5793 70.7592 22.5599 71.5633C22.6493 71.9457 22.6921 72.5646 22.7388 72.9706C22.7504 73.0771 22.8165 73.081 22.8359 73.0061C23.0459 72.2768 23.3258 71.6934 23.8196 71.3347C24.2201 71.0469 24.6788 71.0036 25.0871 71.315C25.1571 71.3702 25.1337 71.4648 25.056 71.449C24.5778 71.3505 24.1773 71.4411 23.8118 71.8196C23.2753 72.3833 22.9215 73.3057 23.1509 74.6893C23.3569 75.9508 24.154 76.8575 24.9549 77.4448C25.0365 77.5039 25.0949 77.4566 25.0521 77.366C24.7333 76.6958 24.6166 75.529 25.4798 75.123C25.5497 75.0875 25.6158 75.123 25.5497 75.2097C24.7022 76.274 25.4214 77.8548 26.1329 77.8745C26.9377 77.8745 27.9642 77.8705 27.9642 77.8705C28.0925 77.8745 28.0458 77.7247 27.8942 77.7129C26.6112 77.6261 26.063 77.2083 25.8452 76.5027C25.6742 75.939 25.9619 75.2136 26.5256 75.5408C26.5917 75.5802 26.685 75.5921 26.685 75.4226C26.6889 75.0441 26.5645 74.6775 26.1174 74.4883C25.6664 74.2912 25.3204 74.5317 25.0599 74.78C24.8577 74.9732 24.7061 75.1624 24.6089 75.1387C24.4689 75.0008 25.0754 74.4134 24.6944 74.4252C24.43 74.4449 23.9051 74.7642 23.9518 75.6197C23.9596 75.7064 23.8818 75.7497 23.8274 75.6394C23.4502 74.8904 23.0731 73.0061 25.3709 73.2899C25.7403 73.3806 25.4603 72.5055 24.5505 72.5055C24.049 72.4858 25.9035 71.4332 26.2768 72.8997C26.3157 73.0889 26.6112 72.9825 26.5567 72.5212C26.4984 72.0088 25.9502 69.612 23.5358 70.7434C23.217 70.9366 23.2053 70.6921 23.4775 70.4517C23.6913 70.2585 24.0918 70.0654 24.6555 70.093C24.7955 70.1048 24.8188 70.0259 24.7566 69.951C24.6827 69.8643 24.4922 69.7776 24.2162 69.821C24.4572 69.6396 24.776 69.1824 25.227 69.8604C25.507 70.2309 25.5847 68.7014 24.2278 68.3585C23.3297 68.1298 22.661 68.9182 22.4899 69.3519C22.5482 68.6423 22.7038 68.3112 23.0031 67.9485C23.2986 67.5858 23.7069 66.9118 23.0459 66.3205C22.9487 66.2337 22.9137 66.4624 22.8748 66.6871C22.8243 66.9906 22.7815 67.2902 22.6027 66.8369C22.4433 66.352 22.1517 65.2285 21.1719 65.0393C21.0864 65.0354 21.1136 65.2009 21.1214 65.3665C21.1369 65.5478 21.1369 65.7292 20.9697 65.6897C20.7637 65.6464 20.6742 64.519 19.9083 63.6833C19.4612 63.1944 19.0763 63.021 18.7419 63.021C18.567 63.021 18.4076 63.0722 18.2598 63.1471" fill="white"/>
<path id="Vector_42" d="M40.845 63.6833C40.0791 64.519 39.9935 65.6464 39.7875 65.6897C39.6164 65.7252 39.6164 65.5478 39.632 65.3665C39.6436 65.2009 39.6708 65.0314 39.5814 65.0393C38.6017 65.2285 38.3062 66.3559 38.1507 66.8369C37.9718 67.2902 37.9251 66.9906 37.8785 66.6871C37.8396 66.4624 37.8007 66.2377 37.7074 66.3205C37.0426 66.9118 37.4547 67.5898 37.7502 67.9485C38.0457 68.3112 38.2012 68.6423 38.2556 69.3519C38.0884 68.9143 37.4197 68.1298 36.5216 68.3585C35.1647 68.7054 35.2425 70.2309 35.5224 69.8604C35.9734 69.1824 36.2961 69.6396 36.5333 69.821C36.2572 69.7776 36.0667 69.8643 35.9928 69.951C35.9267 70.0259 35.9539 70.1008 36.0939 70.093C36.6577 70.0614 37.0542 70.2546 37.272 70.4517C37.5441 70.6921 37.5286 70.9366 37.2098 70.7434C34.7953 69.612 34.2471 72.0088 34.1888 72.5212C34.1383 72.9825 34.426 73.0889 34.4726 72.8997C34.842 71.4332 36.7004 72.4858 36.195 72.5055C35.2852 72.5055 35.0014 73.3806 35.3785 73.2899C37.6724 73.01 37.2953 74.8943 36.9182 75.6394C36.8598 75.7458 36.786 75.7024 36.7899 75.6197C36.8404 74.7642 36.3116 74.4449 36.0512 74.4252C35.6624 74.4173 36.2767 75.0008 36.1328 75.1387C36.0356 75.1624 35.8879 74.9692 35.6818 74.78C35.4252 74.5356 35.0753 74.2912 34.6204 74.4883C34.181 74.6815 34.0489 75.0481 34.0566 75.4226C34.0566 75.5921 34.1499 75.5802 34.216 75.5408C34.7759 75.2097 35.0675 75.939 34.8964 76.5027C34.6826 77.2083 34.1344 77.6261 32.8514 77.7129C32.6997 77.7247 32.6531 77.8745 32.7775 77.8705C32.7775 77.8705 33.8117 77.8745 34.6126 77.8745C35.3202 77.8548 36.0434 76.274 35.1919 75.2097C35.1258 75.119 35.1919 75.0875 35.2619 75.123C36.125 75.529 36.0084 76.6958 35.6896 77.366C35.6468 77.4566 35.709 77.5039 35.7868 77.4448C36.5916 76.8614 37.3886 75.9547 37.5947 74.6893C37.8202 73.3018 37.4703 72.3793 36.9298 71.8196C36.5683 71.4411 36.1678 71.3505 35.6857 71.449C35.6079 71.4648 35.5807 71.3702 35.6546 71.315C36.0628 71.0075 36.5255 71.0509 36.9221 71.3347C37.4158 71.6934 37.6919 72.2768 37.9018 73.0061C37.9213 73.081 37.9874 73.0771 37.999 72.9706C38.0379 72.5646 38.0884 71.9457 38.1779 71.5633C38.1545 70.7592 37.8785 70.0338 37.5519 69.5963C37.3225 69.2849 37.0076 69.0562 36.6499 69.0129C36.5721 69.001 36.5605 68.9222 36.646 68.8985C36.9687 68.8039 37.3381 68.8907 37.6452 69.2021C37.9563 69.5174 38.1584 69.8762 38.2945 70.3177C38.3178 70.3965 38.3956 70.4201 38.4228 70.3216C38.555 69.8722 38.8349 69.0759 39.0138 68.6817C38.8894 68.2363 38.7027 67.436 38.971 66.553C39.006 66.4427 39.0682 66.4545 39.0643 66.5649C39.0216 67.2547 39.1499 67.7317 39.2665 68.1535C39.5464 67.5937 40.0752 66.8881 40.4134 66.419C40.4057 65.1536 40.8061 64.2982 41.4126 63.8685C41.506 63.8015 41.6187 63.7857 41.5759 63.837C41.1833 64.2864 40.95 64.9841 40.8528 65.6976C40.8333 65.8435 40.9228 65.8592 40.9733 65.8119C42.4624 64.3692 43.8543 63.7424 45.2073 63.3955C45.2967 63.3718 45.3006 63.2851 45.2151 63.2654C44.0604 63.021 43.2866 63.3324 42.8006 63.6438C42.408 63.8961 42.198 64.1484 42.1203 64.109C41.8364 63.9119 42.7579 63.3088 42.4857 63.1471C42.338 63.0683 42.1786 63.021 42.0036 63.021C41.6731 63.021 41.2882 63.1984 40.8372 63.6833" fill="white"/>
<path id="Vector_43" d="M9.7565 63.0091C9.86925 63.4191 10.3008 63.6398 10.9618 63.6674C11.2106 63.6595 11.3428 63.7896 11.1873 63.8487C11.0318 63.9118 10.1492 64.1602 10.122 65.3349C10.0948 66.6318 11.2028 66.7816 11.6383 66.4189C11.7083 66.3638 11.7666 66.277 11.5216 66.1193C11.2145 65.9262 11.4128 65.6778 11.6966 65.3507C12.0271 64.9683 12.8047 64.4046 14.2704 64.4243C14.3676 64.4243 14.3987 64.5307 14.3054 64.5938C13.2246 65.327 11.8443 67.3768 13.7261 68.792C14.181 69.0837 14.8692 69.0246 14.6203 68.5121C14.321 67.8972 14.8964 66.9038 15.3007 66.8723C15.4718 66.8604 15.5185 67.0339 15.5457 67.2113C15.5846 67.4754 15.5807 67.7395 15.8723 67.365C16.6226 66.4308 17.8085 66.2691 18.4928 67.1364C18.5861 67.2468 18.6716 67.3611 18.4422 67.3926C18.2167 67.4202 16.3816 67.2546 15.8256 69.4425C15.7712 69.6672 15.8684 70.0456 16.2533 69.8485C16.6343 69.6514 17.3536 69.064 18.3139 69.6238C19.2742 70.1796 19.1887 69.8643 19.7991 70.1205C20.1607 70.2742 20.3162 70.4004 20.3823 70.5029C20.429 70.5699 20.3745 70.6487 20.2462 70.6369C18.9438 70.5029 18.0534 71.1848 17.6218 71.7919C17.373 72.1388 17.2447 72.5685 17.3847 72.7892C17.5246 73.0179 17.9484 73.0849 18.5627 72.7853C18.9982 72.5685 20.4445 72.1427 21.4943 73.7235C21.6226 73.8772 21.6692 74.0191 21.4282 74.0152C21.0549 74.0112 20.3823 73.9482 19.9818 73.6643C19.8613 73.5855 19.7797 73.6801 19.7641 73.755C19.6552 74.2478 19.8808 74.977 20.6467 75.3988C21.4243 75.8167 22.7501 76.3016 23.4771 76.6563C23.5821 76.7076 23.5938 76.6445 23.5277 76.5657C23.1194 76.1123 22.9561 75.7654 22.8823 75.6235C22.0969 75.3791 21.0938 75.0598 20.6234 74.575C20.5611 74.5119 20.5922 74.4449 20.6817 74.4882C21.1638 74.7326 22.0619 75.0362 22.5323 75.1465C22.6373 75.1702 22.6995 75.119 22.6529 74.9731C22.3924 74.1059 22.0386 72.8799 20.6622 72.0442C20.1257 71.7209 19.6825 71.7998 19.2431 71.8865C19.177 71.8983 19.1265 71.8155 19.1887 71.7604C19.6164 71.4213 20.8333 71.2164 22.0347 72.8129C22.0969 72.8957 22.1513 72.8523 22.1397 72.7774C22.0347 71.8786 21.8364 70.6684 21.7081 70.3176C21.0394 69.2808 19.7836 67.9366 17.6646 68.4924C17.5752 68.5161 17.548 68.453 17.6335 68.4018C18.9282 67.5937 20.2112 68.2401 21.1327 69.0483C21.2027 69.1113 21.2649 69.0364 21.2221 68.9339C20.6972 67.7119 19.7524 66.5175 19.2237 66.0918C19.1459 66.0287 18.9826 65.938 18.9088 65.9104C17.1786 65.3507 14.7409 65.1102 13.9477 67.432C13.9166 67.5227 13.8583 67.4951 13.8661 67.3926C13.9866 65.4729 15.8451 64.8697 18.0379 65.2955C18.1351 65.3152 18.1856 65.2285 18.1001 65.1654C17.027 64.3494 14.6709 63.5689 13.5628 63.7975C12.0543 64.1089 11.3506 64.7672 11.0201 65.1772C10.9579 65.256 10.8412 65.1614 10.8646 65.0471C11.0201 64.4322 11.9726 63.762 12.8047 63.6004C11.8171 63.5019 10.7207 63.2299 9.89258 62.8751C9.87314 62.8672 9.85759 62.8672 9.84204 62.8672C9.76039 62.8672 9.74095 62.95 9.75261 63.0052" fill="white"/>
<path id="Vector_44" d="M50.8521 62.8829C50.0201 63.2416 48.9315 63.5096 47.9401 63.6082C48.7721 63.7698 49.7285 64.4399 49.884 65.0549C49.9112 65.1692 49.7907 65.2599 49.7285 65.185C49.398 64.775 48.6943 64.1167 47.1819 63.8053C46.0777 63.5766 43.7216 64.3532 42.6485 65.1732C42.563 65.2402 42.6135 65.3269 42.7107 65.3032C44.9036 64.8775 46.762 65.4846 46.8825 67.4004C46.8903 67.5068 46.832 67.5344 46.8009 67.4398C46.0077 65.1219 43.57 65.3584 41.8437 65.9182C41.766 65.9418 41.6066 66.0325 41.5288 66.0995C40.9962 66.5253 40.0553 67.7158 39.5265 68.9417C39.4837 69.0442 39.5459 69.1191 39.6159 69.056C40.5374 68.2479 41.8204 67.6014 43.1151 68.4095C43.2006 68.4608 43.1773 68.5239 43.084 68.5002C40.9689 67.9444 39.7131 69.2886 39.0444 70.3254C38.9122 70.6762 38.71 71.8864 38.6089 72.7852C38.6012 72.8601 38.6517 72.9034 38.7178 72.8207C39.9192 71.2241 41.1361 71.4331 41.5599 71.7681C41.626 71.8233 41.5716 71.9061 41.5094 71.8943C41.07 71.8076 40.6268 71.7248 40.0903 72.052C38.7139 72.8877 38.364 74.1136 38.0996 74.9809C38.0569 75.1267 38.1191 75.178 38.2202 75.1543C38.6906 75.0439 39.5926 74.7404 40.0747 74.496C40.1564 74.4526 40.1913 74.5157 40.1291 74.5827C39.6587 75.0676 38.6556 75.3869 37.8702 75.6313C37.8003 75.7693 37.6331 76.1201 37.2248 76.5734C37.1587 76.6523 37.1704 76.7154 37.2793 76.6641C38.0024 76.3093 39.3321 75.8245 40.1058 75.4066C40.8756 74.9888 41.1011 74.2555 40.9884 73.7628C40.9728 73.684 40.8912 73.5933 40.7707 73.6721C40.3741 73.952 39.6976 74.0151 39.3243 74.023C39.0872 74.023 39.1299 73.885 39.2582 73.7313C40.308 72.1466 41.7543 72.5763 42.1936 72.7931C42.8041 73.0927 43.2278 73.0256 43.3678 72.797C43.5078 72.5723 43.3795 72.1426 43.1306 71.7997C42.6991 71.1926 41.8049 70.5106 40.5024 70.6447C40.3741 70.6565 40.3196 70.5776 40.3702 70.5106C40.4363 70.4081 40.5879 70.282 40.9534 70.1283C41.5599 69.872 41.4744 70.1874 42.4386 69.6316C43.395 69.0718 44.1182 69.6592 44.4992 69.8563C44.8802 70.0534 44.9813 69.6749 44.923 69.4502C44.3709 67.2624 42.5358 67.428 42.3103 67.4004C42.0848 67.3689 42.1625 67.2545 42.2597 67.1442C42.9401 66.2769 44.126 66.4385 44.8763 67.3728C45.1679 67.7473 45.1679 67.4832 45.2068 67.2191C45.2301 67.0417 45.2807 66.8643 45.4518 66.88C45.8561 66.9116 46.4315 67.905 46.136 68.5199C45.8833 69.0324 46.5754 69.0915 47.0264 68.7998C48.9159 67.3846 47.5318 65.3308 46.451 64.6016C46.3577 64.5385 46.3888 64.4321 46.486 64.4321C47.9517 64.4123 48.7293 64.9761 49.0598 65.3584C49.3436 65.6817 49.5419 65.93 49.2309 66.1271C48.982 66.2809 49.0442 66.3715 49.1142 66.4267C49.5497 66.7854 50.6577 66.6396 50.6305 65.3427C50.6072 64.164 49.7207 63.9196 49.5652 63.8565C49.4097 63.7974 49.5419 63.6713 49.7907 63.6752C50.4517 63.6476 50.8832 63.4308 50.9921 63.0169C51.0077 62.9656 50.9921 62.8789 50.9066 62.8789C50.8949 62.8789 50.8755 62.8789 50.8599 62.8868" fill="white"/>
<path id="Vector_45" d="M10.9927 45.132C11.261 46.4801 10.7944 47.7219 9.97017 47.7574C9.75633 47.7652 9.74466 47.3553 9.61247 47.3356C9.55027 47.3277 9.47639 47.3908 9.39863 47.4578C9.31699 47.5287 9.23145 47.5997 9.14203 47.576C8.97096 47.5366 8.78434 47.0044 8.87765 46.7285C9.01373 46.3422 9.27033 46.4407 9.44917 46.5432C9.58914 46.6221 9.68246 46.7009 9.61247 46.5314C9.40252 45.9164 8.68714 45.9874 8.33333 46.2318C7.89399 46.5235 7.74236 46.9414 7.78902 47.375C7.79679 47.4341 7.7307 47.4105 7.65294 47.3829C7.57907 47.3592 7.49742 47.3356 7.4391 47.3829C7.38078 47.6036 7.45465 48.0767 7.9873 48.6404C8.46552 49.141 9.06038 49.1844 9.51916 49.0622C9.67079 49.0227 9.58526 48.9518 9.43362 48.9203C8.84266 48.8099 8.36832 48.4038 8.36055 47.5997C8.36832 47.3001 8.51218 47.3316 8.58994 47.5051C9.1498 49.1095 10.7011 48.6049 11.1988 47.8559C11.7547 47.0163 11.5448 45.7588 11.1482 45.065C11.0977 44.9861 11.0627 44.9546 11.0394 44.9546C10.9966 44.9546 10.981 45.0492 11.0005 45.132" fill="white"/>
<path id="Vector_46" d="M49.6006 45.065C49.2001 45.7588 48.9902 47.0163 49.5461 47.8559C50.0477 48.6088 51.5951 49.1095 52.155 47.5051C52.2288 47.3316 52.3766 47.3001 52.3843 47.5997C52.3805 48.4038 51.9022 48.8099 51.3074 48.9203C51.1596 48.9518 51.0702 49.0227 51.2257 49.0622C51.6845 49.1844 52.2833 49.141 52.7537 48.6404C53.2863 48.0767 53.3563 47.6036 53.3019 47.3829C53.2475 47.3356 53.1619 47.3592 53.0881 47.3829C53.0103 47.4105 52.9481 47.4341 52.9559 47.375C53.0025 46.9414 52.847 46.5235 52.4077 46.2318C52.05 45.9874 51.3346 45.9164 51.1285 46.5314C51.0585 46.7009 51.148 46.6221 51.2918 46.5432C51.4668 46.4447 51.7234 46.3461 51.8634 46.7285C51.9567 47.0005 51.77 47.5327 51.599 47.576C51.5095 47.5957 51.4201 47.5248 51.3385 47.4578C51.2607 47.3908 51.1907 47.3277 51.1285 47.3356C50.9925 47.3553 50.9847 47.7692 50.7708 47.7574C49.9505 47.7219 49.48 46.4762 49.7483 45.132C49.7639 45.0492 49.7483 44.9546 49.7094 44.9546C49.6861 44.9546 49.6472 44.9861 49.6006 45.065Z" fill="white"/>
<path id="Vector_47" d="M6.98853 45.2778C6.17595 45.672 5.52277 46.3697 5.09509 47.0044C5.02122 47.1108 5.05233 47.1936 5.18063 47.1345C5.56554 46.9886 5.89601 46.9847 6.16428 47.0517C6.26926 47.0793 6.23815 47.17 6.12929 47.1857C5.65885 47.2606 5.14175 47.505 4.62465 47.9584C4.16976 48.3605 3.82373 50.434 3.82373 51.8649C3.82373 52.1921 3.96758 52.0265 4.02979 51.9398C4.52356 51.2618 4.92791 50.7217 5.66662 50.497C5.81048 50.4537 5.86102 50.5522 5.72494 50.6468C4.94735 51.1869 4.17753 52.0857 3.95981 52.8425C3.80429 53.3826 4.41859 55.5862 4.90069 56.8003C4.95513 56.9422 5.04455 56.9264 5.04455 56.7767C5.04844 55.6729 5.40613 53.9581 6.48698 53.1106C6.74359 52.9095 6.82135 53.0041 6.58418 53.284C5.73272 54.2814 5.24672 56.1499 5.46445 57.8252C5.47611 57.9356 5.51499 58.1169 5.59275 58.3022C5.83381 58.9014 6.61528 59.8987 7.59505 60.7502C7.68447 60.8251 7.78945 60.762 7.75835 60.6556C7.2568 58.9487 7.30734 56.6781 9.21244 55.9291C9.43017 55.8424 9.4846 55.9094 9.28631 56.0198C6.97686 57.368 7.9333 61.0774 8.52816 61.4676C8.90141 61.712 10.0289 62.2955 10.8259 62.5596C10.9154 62.5911 11.0126 62.528 10.9309 62.3704C10.4488 61.377 10.6082 60.5452 10.9815 59.9736C11.0359 59.8948 11.0942 59.9303 11.0748 60.0209C10.8182 61.0261 10.9231 62.2087 11.7746 62.8119C12.28 62.9065 13.0693 63.0839 14.3134 63.1942C14.4845 63.21 14.5234 63.0602 14.3912 62.938C13.6058 62.2127 13.497 60.7699 13.1587 60.7305C12.801 60.6911 12.6533 61.2508 12.5872 61.8342C12.5678 61.9722 12.4589 61.921 12.4161 61.8579C11.9612 61.2508 12.1556 60.285 12.6338 59.9421C12.871 59.7923 12.3228 59.3863 11.8718 59.7174C11.6308 59.9184 11.5413 59.1537 11.9262 58.6964C11.9768 58.6373 12.0118 58.5033 11.864 58.4835C11.1759 58.3968 10.4683 58.8344 10.2777 59.4296C10.0484 60.2259 9.67122 60.6241 9.50015 60.6241C9.22022 60.6241 8.76533 59.3784 9.50015 58.3535C9.92394 57.7622 9.75287 57.7622 9.53514 57.7661C9.40295 57.7661 9.25521 57.7661 9.21633 57.6281C8.95584 56.7293 10.27 55.866 11.2653 56.2405C11.3392 56.2681 11.4869 56.2642 11.4675 56.1144C11.3625 55.0225 10.6938 54.6243 10.025 54.7662C9.67511 54.8372 8.95973 55.2866 8.83531 54.9949C8.72256 54.7938 9.36019 54.4627 9.08025 54.1946C8.89363 54.0172 8.14714 54.5573 7.80889 54.9318C7.50174 55.2708 6.90299 56.2484 6.68138 57.4941C6.65805 57.6202 6.54142 57.6518 6.52198 57.4704C6.4481 56.9264 6.49087 56.0671 6.72415 55.3891C6.94576 54.7505 7.57173 54.4824 7.67281 53.8635C7.76612 53.288 7.83611 52.5272 8.48151 52.7519C8.62148 52.7992 8.67202 52.677 8.67591 52.6297C8.74589 51.7072 6.77858 51.2854 5.04066 52.9214C4.97845 52.9805 4.75295 52.9963 4.83849 52.744C5.01733 52.0305 6.22649 51.1475 6.47921 50.9031C7.53285 49.89 7.4512 48.9557 6.91466 49.2474C5.98155 49.748 5.04844 49.8269 4.85404 49.5273C4.68686 49.2789 4.89681 48.5576 5.50722 48.0333C6.0943 47.5287 6.7708 47.5997 6.96131 47.3671C7.09739 47.1976 7.07407 46.8861 6.8369 46.693C6.63084 46.5274 6.42089 46.3106 6.76303 46.0307C7.29568 45.5695 8.02662 45.199 8.9364 45.1359C9.11525 45.1241 9.193 44.9624 8.94029 44.927C8.82753 44.9112 8.70312 44.9033 8.57482 44.9033C8.08882 44.9033 7.50563 45.0137 7.00019 45.2581" fill="white"/>
<path id="Vector_48" d="M51.8166 44.9468C51.5639 44.9823 51.6417 45.14 51.8244 45.1557C52.7264 45.2188 53.4651 45.5894 53.9939 46.0506C54.3321 46.3305 54.1222 46.5473 53.9161 46.7128C53.6828 46.902 53.6556 47.2135 53.7956 47.3869C53.9861 47.6195 54.6626 47.5485 55.2497 48.0531C55.8562 48.5774 56.0662 49.2988 55.9029 49.5471C55.7046 49.8467 54.7754 49.7679 53.8422 49.2673C53.3018 48.9755 53.2202 49.9098 54.2777 50.9229C54.5343 51.1673 55.7396 52.0503 55.9184 52.7638C56.0039 53.0161 55.7823 52.9964 55.7162 52.9412C53.9744 51.3053 52.011 51.731 52.0771 52.6495C52.0771 52.6968 52.1315 52.819 52.2715 52.7717C52.9169 52.547 52.9869 53.3078 53.0802 53.8833C53.1774 54.5022 53.8034 54.7742 54.025 55.4089C54.2583 56.083 54.301 56.9463 54.2272 57.4903C54.2038 57.6716 54.0872 57.644 54.0677 57.5139C53.8422 56.2683 53.2435 55.2906 52.9363 54.9516C52.5942 54.5732 51.8516 54.0331 51.665 54.2145C51.3812 54.4825 52.0227 54.8137 51.9099 55.0147C51.7816 55.3064 51.0662 54.857 50.7202 54.7861C50.0476 54.6442 49.3789 55.0423 49.2739 56.1342C49.2544 56.284 49.4022 56.288 49.4761 56.2604C50.4714 55.8859 51.7816 56.7492 51.525 57.648C51.4861 57.7859 51.3384 57.7859 51.2023 57.7859C50.9846 57.7859 50.8135 57.782 51.2373 58.3733C51.9721 59.3982 51.5172 60.6439 51.2373 60.6439C51.0662 60.6439 50.693 60.2418 50.4636 59.4495C50.2731 58.8503 49.5655 58.4167 48.8773 58.5034C48.7296 58.5231 48.7607 58.6571 48.8112 58.7162C49.1922 59.1735 49.1067 59.9383 48.8618 59.7372C48.4108 59.41 47.8664 59.8121 48.0997 59.9619C48.5779 60.3049 48.7723 61.2707 48.3136 61.8777C48.2708 61.9369 48.158 61.9921 48.1464 61.8541C48.0803 61.2707 47.9364 60.707 47.5748 60.7503C47.2366 60.7858 47.1316 62.2325 46.3463 62.9579C46.2102 63.0801 46.2491 63.2299 46.4201 63.2141C47.6604 63.1037 48.4535 62.9263 48.959 62.8317C49.8065 62.2325 49.9115 61.046 49.6588 60.0408C49.6355 59.9462 49.6977 59.9146 49.7482 59.9935C50.1215 60.5651 50.2809 61.3968 49.7988 62.3902C49.7171 62.5479 49.8182 62.607 49.9076 62.5794C50.7008 62.3114 51.8283 61.7319 52.2015 61.4875C52.8003 61.0933 53.7528 57.3839 51.4434 56.0396C51.249 55.9253 51.2995 55.8622 51.5172 55.949C53.4262 56.7019 53.4729 58.9725 52.9713 60.6754C52.9402 60.7819 53.0491 60.841 53.1346 60.77C54.1183 59.9186 54.8959 58.9212 55.1369 58.322C55.2147 58.1368 55.2536 57.9515 55.2691 57.8451C55.4868 56.1697 54.997 54.3012 54.1494 53.3039C53.9122 53.024 53.99 52.9294 54.2466 53.1304C55.3236 53.978 55.6812 55.6927 55.6851 56.7965C55.6851 56.9463 55.7784 56.9621 55.8329 56.8201C56.315 55.606 56.9254 53.4024 56.7699 52.8624C56.556 52.1055 55.7862 51.2067 55.0047 50.6667C54.8687 50.5721 54.9192 50.4696 55.0631 50.5169C55.8057 50.7416 56.21 51.2816 56.7038 51.9596C56.766 52.0464 56.9098 52.2119 56.9098 51.8847C56.9098 50.4538 56.5638 48.3803 56.105 47.9782C55.5918 47.5249 55.0708 47.2805 54.6043 47.2056C54.4954 47.1898 54.4643 47.0992 54.5693 47.0716C54.8453 47.0006 55.1719 47.0085 55.5568 47.1543C55.6851 47.2135 55.7162 47.1307 55.6463 47.0243C55.2147 46.3896 54.5654 45.6919 53.7528 45.2977C53.2474 45.0532 52.6642 44.9429 52.1782 44.9429C52.0499 44.9429 51.9255 44.9508 51.8127 44.9665" fill="white"/>
<path id="Vector_49" d="M5.50729 44.0283C5.00186 44.4107 4.81134 44.7024 4.55474 45.2149C4.3098 45.7116 4.16206 46.4054 3.9871 46.3896C3.81991 46.3738 3.73438 45.6958 3.55165 45.6524C3.3728 45.6091 2.08589 47.3751 2.71574 51.1042C2.73517 51.2107 2.67685 51.2777 2.61465 51.1752C2.35804 50.7534 1.99646 50.0517 1.89538 49.3895C1.86816 49.2121 1.77096 49.2002 1.71653 49.2436C1.10612 49.7561 0.332414 51.8177 2.47468 54.6284C2.52911 54.6993 2.52911 54.8137 2.39692 54.8334C1.65432 54.8886 1.29274 55.5232 1.08668 56.0515C1.00892 56.2091 1.12556 56.3432 1.20332 56.3589C1.87982 56.5245 3.22117 56.8832 4.48864 58.5704C4.54696 58.6492 4.52364 58.7636 4.39145 58.7478C4.04542 58.665 3.68384 58.6689 3.41168 58.8266C3.30671 58.8858 3.31448 58.9882 3.39613 59.0829C4.04153 59.8397 5.0524 60.565 5.795 61.0736C6.48706 61.5466 7.3463 61.9881 8.32217 62.2286C8.46214 62.2641 8.48936 62.1773 8.36883 62.0985C7.66511 61.657 7.07025 61.0854 6.78254 60.8528C6.58037 60.7661 5.35566 60.1511 4.94742 59.6939C4.88133 59.6229 4.93965 59.548 4.99797 59.5756C5.38287 59.7491 5.67836 59.8949 5.91552 60.0013C6.00106 60.0408 6.09437 60.0526 5.95052 59.8555C5.4062 59.142 5.10294 58.5665 4.76469 57.9357C4.67915 57.782 4.48864 57.51 4.43421 57.4509C3.95211 56.9463 3.29504 56.4181 2.65353 56.2446C2.51745 56.2091 2.51745 56.0751 2.65353 56.0672C3.06565 56.0436 3.50888 56.2801 3.99099 56.5915C4.15817 56.7098 4.23982 56.7019 4.16206 56.5087C3.93267 55.8977 3.78104 55.3537 3.68773 55.0462C3.64107 54.8452 3.49333 54.6323 3.42723 54.5535C2.94513 53.978 1.9187 52.5391 1.8565 51.5024C1.84872 51.3881 1.93426 51.3802 1.96925 51.4827C2.26084 52.3381 2.78572 53.091 3.23672 53.6547C3.31448 53.7533 3.4389 53.8518 3.40779 53.5877C3.16674 51.9636 3.18229 50.0911 3.5011 49.1924C3.54387 49.0386 3.53221 48.8809 3.48944 48.676C3.4039 48.0649 3.30282 47.4027 3.36502 46.9888C3.38058 46.8863 3.48166 46.8469 3.49721 46.9533C3.54387 47.3593 3.62163 47.718 3.71494 47.9703C3.7616 48.0847 3.85102 48.2069 3.92878 47.994C4.18538 47.446 4.4692 46.8863 4.92798 46.3147C5.01741 46.2043 5.02907 46.0387 5.03296 45.9599C5.04851 45.5499 5.09517 45.1084 5.309 44.8128C5.4062 44.6788 5.51895 44.7103 5.5034 44.7773C5.45675 45.0257 5.40232 45.2858 5.37899 45.546C5.36732 45.6327 5.39065 45.7628 5.53839 45.6327C5.74834 45.4435 5.96218 45.2582 6.19546 45.1124C7.31519 44.4225 9.68296 44.0126 10.5461 45.6091C10.6588 45.889 10.8105 45.475 10.445 44.8522C10.3011 44.6078 9.99788 44.3082 9.80349 44.2491C9.63242 44.1978 9.33304 44.0283 9.81515 43.8943C9.6363 43.4725 7.92171 43.3858 6.60758 44.2846C6.44817 44.3949 6.07104 44.5841 6.25378 44.2688C6.43651 43.9534 6.66201 43.6144 6.42096 43.5513C6.40152 43.5474 6.38208 43.5435 6.35875 43.5435C6.10215 43.5435 5.70557 43.8746 5.51118 44.0204" fill="white"/>
<path id="Vector_50" d="M54.3241 43.5591C54.0792 43.6222 54.3047 43.9612 54.4874 44.2765C54.6702 44.5919 54.293 44.4027 54.1375 44.2923C52.8195 43.3935 51.1088 43.4842 50.9299 43.902C51.4082 44.0321 51.1088 44.2056 50.9377 44.2568C50.7394 44.3159 50.4401 44.6155 50.2962 44.8599C49.9307 45.4828 50.0785 45.8967 50.1951 45.6168C51.0544 44.0203 53.4221 44.4263 54.5457 45.1201C54.7829 45.266 54.9929 45.4512 55.2028 45.6405C55.3506 45.7705 55.37 45.6405 55.3622 45.5537C55.335 45.2936 55.2845 45.0334 55.2378 44.785C55.2222 44.7141 55.335 44.6865 55.4322 44.8205C55.646 45.1162 55.6888 45.5577 55.7082 45.9676C55.7082 46.0465 55.7277 46.2121 55.8171 46.3224C56.272 46.894 56.5597 47.4498 56.8124 48.0017C56.8902 48.2146 56.9796 48.0924 57.0263 47.9781C57.1196 47.7218 57.1973 47.3671 57.2479 46.961C57.2595 46.8546 57.3606 46.894 57.3762 46.9965C57.4423 47.4065 57.3373 48.0727 57.2518 48.6837C57.209 48.8887 57.1973 49.0464 57.244 49.2001C57.5589 50.0989 57.5745 51.9713 57.3334 53.5954C57.2984 53.8596 57.4267 53.761 57.5045 53.6625C57.9555 53.0948 58.4804 52.3458 58.772 51.4904C58.8031 51.3879 58.8886 51.3958 58.8808 51.5101C58.8225 52.5469 57.7922 53.9857 57.3101 54.5612C57.2479 54.6401 57.1001 54.8529 57.0535 55.054C56.9563 55.3615 56.8085 55.9055 56.5791 56.5165C56.5014 56.7096 56.583 56.7175 56.7502 56.5992C57.2323 56.2878 57.6717 56.0513 58.0838 56.075C58.2199 56.0828 58.2199 56.2129 58.0877 56.2524C57.4462 56.4258 56.7852 56.954 56.307 57.4586C56.2564 57.5177 56.062 57.7897 55.9765 57.9435C55.6344 58.5742 55.3389 59.1458 54.7907 59.8632C54.6468 60.0603 54.7401 60.0485 54.8257 60.0091C55.0628 59.9027 55.3583 59.7568 55.7393 59.5833C55.7977 59.5597 55.856 59.6346 55.7938 59.7016C55.3817 60.1589 54.1569 60.7738 53.9509 60.8606C53.6671 61.0892 53.0722 61.6647 52.3685 62.1062C52.2402 62.1851 52.2713 62.2718 52.4112 62.2363C53.391 61.9959 54.2464 61.5544 54.9423 61.0813C55.6849 60.5728 56.6997 59.8475 57.3412 59.0906C57.4228 58.996 57.4306 58.8935 57.3256 58.8344C57.0535 58.6767 56.688 58.6688 56.3459 58.7555C56.2098 58.7713 56.1865 58.657 56.2448 58.5781C57.5123 56.887 58.8536 56.5283 59.534 56.3667C59.6118 56.347 59.7284 56.2169 59.6506 56.0592C59.4485 55.531 59.0869 54.8963 58.3443 54.8411C58.2082 54.8214 58.216 54.7071 58.2665 54.6361C60.4088 51.8255 59.6351 49.7677 59.0247 49.2513C58.9702 49.204 58.873 49.2198 58.8458 49.3972C58.7486 50.0595 58.3793 50.7611 58.1266 51.1829C58.0643 51.2854 58.0099 51.2184 58.0255 51.112C58.6553 47.3828 57.3723 45.6168 57.1896 45.6602C57.0068 45.7035 56.9213 46.3816 56.7541 46.3973C56.583 46.4131 56.4353 45.7154 56.1903 45.2226C55.9337 44.7101 55.7471 44.4184 55.2378 44.0361C55.0473 43.8902 54.6468 43.5591 54.3902 43.5591C54.3708 43.5591 54.3475 43.563 54.328 43.567" fill="white"/>
<path id="Vector_51" d="M8.13919 29.6087C7.37326 30.4444 7.28773 31.5678 7.07778 31.6151C6.90671 31.6506 6.90671 31.4693 6.92226 31.288C6.93392 31.1224 6.96114 30.9568 6.87171 30.9608C5.89195 31.15 5.60035 32.2774 5.44094 32.7583C5.2621 33.2156 5.21933 32.9121 5.16879 32.6085C5.1338 32.3838 5.09491 32.1591 4.99772 32.2459C4.33287 32.8332 4.745 33.5112 5.04048 33.8739C5.33986 34.2366 5.49538 34.5677 5.54981 35.2773C5.38263 34.8397 4.7139 34.0552 3.81189 34.2839C2.45499 34.6308 2.53275 36.1563 2.81657 35.7858C3.26757 35.1078 3.59028 35.565 3.82744 35.7464C3.5514 35.7069 3.357 35.7897 3.28702 35.8764C3.22481 35.9513 3.24813 36.0262 3.3881 36.0144C3.95185 35.9829 4.35231 36.18 4.56615 36.3731C4.83831 36.6136 4.82665 36.858 4.50783 36.6609C2.09341 35.5335 1.54132 37.9263 1.483 38.4427C1.43246 38.9 1.72405 39.0103 1.76682 38.8211C2.14007 37.3508 3.99073 38.4072 3.4853 38.4269C2.5794 38.4269 2.29947 39.2981 2.66883 39.2114C4.96273 38.9276 4.58948 40.8158 4.20846 41.5608C4.15403 41.6673 4.07627 41.6239 4.08405 41.5411C4.13459 40.6857 3.60972 40.3664 3.34145 40.3467C2.95654 40.3349 3.56695 40.9183 3.42698 41.0602C3.3259 41.0799 3.17815 40.8907 2.97598 40.6975C2.71548 40.4531 2.36946 40.2127 1.91845 40.4058C1.47522 40.599 1.34692 40.9695 1.35081 41.348C1.35081 41.5135 1.44412 41.5017 1.51022 41.4623C2.07008 41.1311 2.36168 41.8604 2.19061 42.4202C1.97289 43.1258 1.42468 43.5437 0.141654 43.6304C-0.00608814 43.6422 -0.0527438 43.792 0.0716709 43.7881C0.0716709 43.7881 1.10198 43.792 1.91068 43.792C2.61829 43.7723 3.33756 42.1915 2.48998 41.1272C2.42389 41.0365 2.48998 41.005 2.55997 41.0365C3.41921 41.4465 3.30645 42.6133 2.98764 43.2795C2.94487 43.3702 3.00319 43.4175 3.08484 43.3584C3.88576 42.775 4.68279 41.8683 4.88885 40.6029C5.11436 39.2153 4.76444 38.2968 4.22401 37.7292C3.86243 37.3508 3.46197 37.264 2.98375 37.3626C2.90599 37.3784 2.88267 37.2798 2.95265 37.2286C3.36089 36.9211 3.81966 36.9605 4.22012 37.2483C4.71389 37.607 4.98994 38.1904 5.20378 38.9157C5.22322 38.9906 5.28932 38.9867 5.30098 38.8803C5.34763 38.4742 5.3904 37.8593 5.47983 37.4769C5.46039 36.6688 5.17656 35.9435 4.85775 35.5098C4.62836 35.1984 4.30955 34.9698 3.95574 34.9225C3.8741 34.9146 3.86243 34.8318 3.95186 34.8082C4.27067 34.7136 4.64391 34.8042 4.94717 35.1117C5.2621 35.4271 5.46816 35.7858 5.60035 36.2273C5.62757 36.3061 5.70144 36.3298 5.73254 36.2273C5.86473 35.7779 6.14467 34.9816 6.32351 34.5874C6.19521 34.142 6.00859 33.3378 6.27686 32.4587C6.30796 32.3483 6.37406 32.3602 6.36628 32.4706C6.3274 33.1643 6.45181 33.6374 6.56845 34.0592C6.84839 33.4955 7.38104 32.7938 7.71929 32.3247C7.71151 31.0593 8.10809 30.2039 8.71461 29.7742C8.81181 29.7033 8.92456 29.6914 8.88179 29.7427C8.48911 30.1921 8.25583 30.8859 8.15863 31.6033C8.13919 31.7492 8.22472 31.7649 8.27527 31.7176C9.76436 30.2749 11.1562 29.652 12.5131 29.3051C12.6065 29.2815 12.6065 29.1908 12.5209 29.175C11.3701 28.9306 10.5964 29.242 10.1065 29.5574C9.71381 29.8097 9.50387 30.062 9.42999 30.0226C9.14229 29.8255 10.0676 29.2223 9.79157 29.0607C9.64383 28.9858 9.48442 28.9346 9.30558 28.9346C8.9751 28.9346 8.59019 29.108 8.14308 29.6008" fill="white"/>
<path id="Vector_52" d="M51.2374 29.0685C50.9613 29.2301 51.8867 29.8332 51.6029 30.0303C51.5251 30.0697 51.3151 29.8174 50.9225 29.5651C50.4326 29.2537 49.6628 28.9423 48.5041 29.1828C48.4225 29.2025 48.4225 29.2892 48.5119 29.3129C49.8688 29.6558 51.2568 30.2826 52.7498 31.7254C52.8003 31.7727 52.8898 31.7569 52.8664 31.6111C52.7692 30.8936 52.5321 30.2038 52.1472 29.7504C52.1044 29.6992 52.2171 29.711 52.3105 29.782C52.917 30.2116 53.3135 31.0671 53.3058 32.3324C53.6479 32.8015 54.1767 33.5032 54.4605 34.0669C54.5732 33.6412 54.7015 33.1681 54.6588 32.4783C54.651 32.3679 54.7171 32.3561 54.7521 32.4665C55.0204 33.3455 54.8337 34.1497 54.7054 34.5952C54.8843 34.9894 55.1603 35.7856 55.2964 36.235C55.3275 36.3336 55.4053 36.3099 55.4247 36.235C55.5569 35.7975 55.763 35.4348 56.074 35.1194C56.3812 34.808 56.7505 34.7174 57.0771 34.8159C57.1626 34.8435 57.151 34.9223 57.0693 34.9302C56.7155 34.9775 56.3967 35.2022 56.1673 35.5176C55.8485 35.9551 55.5686 36.6765 55.5452 37.4846C55.6347 37.867 55.6813 38.482 55.7241 38.888C55.7319 38.9984 55.798 39.0023 55.8213 38.9235C56.0312 38.1942 56.3073 37.6147 56.8011 37.256C57.1976 36.9682 57.6603 36.9249 58.0685 37.2363C58.1385 37.2915 58.1152 37.3861 58.0374 37.3703C57.5553 37.2718 57.1549 37.3585 56.7933 37.7369C56.2528 38.3006 55.9029 39.2231 56.1323 40.6107C56.3384 41.876 57.1354 42.7827 57.9402 43.3661C58.018 43.4253 58.0763 43.3779 58.0335 43.2873C57.7147 42.6171 57.602 41.4542 58.4612 41.0443C58.5312 41.0127 58.5973 41.0443 58.5312 41.1349C57.6797 42.1993 58.4029 43.78 59.1144 43.7997C59.9153 43.7997 60.9456 43.7958 60.9456 43.7958C61.0739 43.7997 61.0273 43.646 60.8756 43.6381C59.5926 43.5514 59.0444 43.1335 58.8267 42.4279C58.6556 41.8642 58.9433 41.1389 59.5071 41.47C59.5732 41.5094 59.6665 41.5213 59.6665 41.3557C59.6743 40.9773 59.5421 40.6067 59.1027 40.4136C58.6517 40.2204 58.3057 40.4609 58.0452 40.7053C57.8391 40.8984 57.6914 41.0916 57.5942 41.0679C57.4542 40.926 58.0646 40.3426 57.6758 40.3544C57.4115 40.3741 56.8866 40.6934 56.9332 41.5489C56.9371 41.6316 56.8594 41.675 56.8088 41.5686C56.4317 40.8235 56.0507 38.9353 58.3485 39.2191C58.7217 39.3059 58.4379 38.4347 57.5281 38.4347C57.0266 38.415 58.8772 37.3585 59.2505 38.8289C59.2932 39.0181 59.5848 38.9077 59.5304 38.4504C59.4721 37.934 58.9239 35.5412 56.5095 36.6686C56.1868 36.8618 56.1751 36.6174 56.4472 36.3809C56.6689 36.1877 57.0615 35.9906 57.6253 36.0222C57.7653 36.034 57.7925 35.9551 57.7264 35.8842C57.6525 35.7975 57.462 35.7107 57.186 35.7541C57.427 35.5728 57.7458 35.1155 58.2007 35.7935C58.4806 36.1641 58.5584 34.6385 57.2015 34.2916C56.3034 34.063 55.6347 34.8474 55.4636 35.285C55.5219 34.5794 55.6774 34.2443 55.9768 33.8816C56.2723 33.5229 56.6805 32.841 56.0157 32.2536C55.9185 32.1669 55.8796 32.3916 55.8446 32.6163C55.7941 32.9198 55.7513 33.2233 55.5725 32.7661C55.4169 32.2851 55.1215 31.1577 54.1378 30.9685C54.0523 30.9646 54.0795 31.1301 54.0911 31.2957C54.1067 31.477 54.1067 31.6584 53.9395 31.6229C53.7296 31.5795 53.644 30.4521 52.8781 29.6164C52.4271 29.1276 52.0461 28.9502 51.7156 28.9502C51.5368 28.9502 51.3773 29.0014 51.2335 29.0763" fill="white"/>
<path id="Vector_53" d="M18.1428 28.8042C17.3108 29.159 16.2222 29.431 15.2269 29.5295C16.0628 29.6951 17.0153 30.3652 17.1708 30.9802C17.1981 31.0945 17.0814 31.1891 17.0153 31.1103C16.6848 30.7003 15.9772 30.042 14.4726 29.7306C13.3645 29.5019 11.0084 30.2785 9.93535 31.0984C9.84981 31.1655 9.90036 31.2522 9.99756 31.2285C12.1943 30.8067 14.0527 31.4099 14.1732 33.3257C14.181 33.4321 14.1227 33.4597 14.0916 33.369C13.2984 31.0511 10.8646 31.2877 9.13054 31.8514C9.05667 31.875 8.89338 31.9657 8.81562 32.0327C8.28297 32.4584 7.33819 33.6529 6.8172 34.8749C6.77055 34.9774 6.83276 35.0483 6.90663 34.9853C7.83196 34.1772 9.11499 33.5307 10.4058 34.3388C10.4874 34.39 10.4641 34.4531 10.3747 34.4294C8.25575 33.8776 7.00383 35.2218 6.33121 36.2546C6.20291 36.6054 6.00074 37.8156 5.89576 38.7144C5.88798 38.7893 5.93853 38.8327 6.00073 38.7499C7.206 37.1534 8.42293 37.3623 8.84672 37.6974C8.91282 37.7526 8.8545 37.8353 8.79229 37.8235C8.34906 37.7368 7.90972 37.654 7.37318 37.9812C5.99296 38.8169 5.64304 40.0429 5.38255 40.9101C5.33589 41.056 5.3981 41.1072 5.50308 41.0836C5.96963 40.9771 6.87164 40.6696 7.35763 40.4292C7.44317 40.3858 7.47816 40.4489 7.41207 40.5159C6.94162 41.0008 5.93853 41.3201 5.15316 41.5645C5.07929 41.7025 4.91599 42.0493 4.50776 42.5066C4.43778 42.5815 4.45333 42.6446 4.56219 42.5933C5.28535 42.2386 6.61114 41.7537 7.38874 41.3319C8.15466 40.918 8.38017 40.1848 8.2713 39.692C8.25186 39.6132 8.17022 39.5225 8.05358 39.6014C7.657 39.8852 6.9805 39.9483 6.60725 39.9522C6.37009 39.9522 6.41286 39.8103 6.54116 39.6605C7.5948 38.0797 9.03723 38.5055 9.47657 38.7223C10.087 39.0219 10.5108 38.9509 10.6507 38.7262C10.7946 38.5015 10.6663 38.0719 10.4136 37.725C9.98201 37.1218 9.09166 36.4399 7.78531 36.5739C7.65701 36.5857 7.60646 36.5029 7.65312 36.4399C7.71532 36.3413 7.87084 36.2152 8.23242 36.0614C8.83894 35.8052 8.75341 36.1206 9.71762 35.5647C10.6779 35.005 11.3972 35.5963 11.7782 35.7894C12.1593 35.9826 12.2603 35.6081 12.202 35.3834C11.6499 33.1995 9.81482 33.3651 9.58543 33.3336C9.36382 33.302 9.44158 33.1877 9.53489 33.0773C10.2192 32.2101 11.405 32.3717 12.1515 33.306C12.447 33.6805 12.4431 33.4163 12.482 33.1522C12.5092 32.9748 12.5597 32.7975 12.7269 32.8172C13.1313 32.8487 13.7067 33.8421 13.4112 34.457C13.1624 34.9695 13.8466 35.0286 14.3054 34.7369C16.1872 33.3217 14.8109 31.268 13.7261 30.5387C13.6328 30.4756 13.6639 30.3692 13.7611 30.3692C15.2308 30.3534 16.0045 30.9171 16.3349 31.2995C16.6188 31.6267 16.817 31.875 16.5099 32.0682C16.2611 32.2259 16.3194 32.3086 16.3933 32.3678C16.8248 32.7265 17.9329 32.5806 17.9096 31.2837C17.8823 30.1011 17.0037 29.8528 16.8443 29.7936C16.6887 29.7345 16.8209 29.6084 17.0698 29.6123C17.7307 29.5847 18.1623 29.3679 18.275 28.9579C18.2906 28.9027 18.2672 28.82 18.1856 28.82C18.1739 28.82 18.1545 28.82 18.1351 28.8279" fill="white"/>
<path id="Vector_54" d="M42.7462 28.9385C42.859 29.3484 43.2906 29.5653 43.9515 29.5929C44.2003 29.5889 44.3325 29.7111 44.177 29.7742C44.0215 29.8333 43.1389 30.0817 43.1117 31.2643C43.0845 32.5612 44.1926 32.707 44.628 32.3483C44.698 32.2892 44.7602 32.2064 44.5114 32.0487C44.2081 31.8556 44.4025 31.6072 44.6863 31.28C45.0168 30.8977 45.7905 30.3339 47.2602 30.3497C47.3574 30.3497 47.3885 30.4562 47.2913 30.5192C46.2104 31.2485 44.8302 33.3023 46.712 34.7175C47.1707 35.0092 47.855 34.95 47.6062 34.4376C47.3107 33.8266 47.8822 32.8292 48.2905 32.7977C48.4577 32.7819 48.5082 32.9593 48.5354 33.1328C48.5743 33.3969 48.5743 33.661 48.8659 33.2865C49.6163 32.3523 50.8021 32.1906 51.4825 33.0579C51.5797 33.1683 51.6575 33.2826 51.432 33.3141C51.2026 33.3456 49.3674 33.1801 48.8154 35.364C48.7609 35.5886 48.862 35.9671 49.2391 35.77C49.6202 35.5729 50.3394 34.9855 51.2998 35.5453C52.2601 36.1051 52.1746 35.7897 52.785 36.042C53.1465 36.1957 53.3021 36.3258 53.3682 36.4204C53.4148 36.4874 53.3643 36.5702 53.236 36.5544C51.9335 36.4204 51.0393 37.1024 50.6077 37.7055C50.3589 38.0563 50.2306 38.4821 50.3705 38.7068C50.5144 38.9315 50.9343 39.0024 51.5486 38.7028C51.9879 38.486 53.4304 38.0603 54.4801 39.641C54.6084 39.7948 54.6551 39.9367 54.414 39.9327C54.0408 39.9327 53.3682 39.8657 52.9716 39.5819C52.8511 39.5031 52.7694 39.5937 52.7539 39.6726C52.6411 40.1653 52.8666 40.8985 53.6364 41.3124C54.4179 41.7342 55.7398 42.2152 56.4669 42.5739C56.5718 42.6251 56.5835 42.5621 56.5174 42.4872C56.1092 42.0299 55.942 41.683 55.872 41.545C55.0866 41.3006 54.0835 40.9813 53.6131 40.4965C53.5509 40.4294 53.582 40.3664 53.6675 40.4097C54.1496 40.6502 55.0516 40.9577 55.5182 41.0641C55.6232 41.0877 55.6854 41.0404 55.6426 40.8907C55.3821 40.0234 55.0283 38.7974 53.652 37.9617C53.1154 37.6385 52.6761 37.7173 52.229 37.8041C52.1668 37.8198 52.1123 37.7331 52.1784 37.6779C52.6061 37.3389 53.823 37.13 55.0244 38.7304C55.0866 38.8132 55.1411 38.7699 55.1294 38.695C55.0283 37.8001 54.8261 36.5899 54.6978 36.2351C54.0291 35.2023 52.7733 33.8581 50.6544 34.41C50.5649 34.4336 50.5416 34.3706 50.6233 34.3193C51.9179 33.5112 53.1971 34.1577 54.1224 34.9658C54.1924 35.0289 54.2546 34.9579 54.2118 34.8554C53.6831 33.6295 52.7422 32.439 52.2095 32.0132C52.1318 31.9502 51.9724 31.8556 51.8946 31.8319C50.1645 31.2682 47.7306 31.0317 46.9336 33.3496C46.9025 33.4442 46.8442 33.4127 46.8519 33.3062C46.9725 31.3904 48.8309 30.7873 51.0237 31.2091C51.1209 31.2288 51.1753 31.146 51.0859 31.079C50.0128 30.263 47.6529 29.4825 46.5487 29.7111C45.0401 30.0225 44.3325 30.6848 44.0059 31.0908C43.9437 31.1697 43.8271 31.075 43.8543 30.9607C44.0098 30.3497 44.9624 29.6756 45.7944 29.5101C44.803 29.4115 43.7105 29.1395 42.8823 28.7847C42.8629 28.7808 42.8473 28.7769 42.8318 28.7769C42.7501 28.7769 42.7307 28.8596 42.7424 28.9148" fill="white"/>
<path id="Vector_55" d="M29.5386 19.2605V18.342C29.5386 18.2434 29.6163 18.1606 29.7096 18.1606H29.9935C30.0829 18.1606 30.1606 18.2434 30.1606 18.342V19.3393C30.1606 19.4379 30.0829 19.5206 29.9935 19.5206H29.7602C29.6202 19.5206 29.5386 19.3551 29.5386 19.2605Z" fill="white"/>
<path id="Vector_56" d="M30.5805 19.3393V18.342C30.5805 18.2434 30.6544 18.1606 30.7477 18.1606H31.0316C31.1249 18.1606 31.1987 18.2434 31.1987 18.342V19.2605C31.1987 19.359 31.1171 19.5246 30.9732 19.5206H30.7438C30.6505 19.5206 30.5767 19.4379 30.5767 19.3393" fill="white"/>
<path id="Vector_57" d="M31.9299 17.7667H28.8117C28.8117 17.7667 28.6484 17.7588 28.6484 17.8771C28.6484 18.2043 28.9478 18.1846 29.1539 18.1846C29.1539 18.4802 29.0917 19.1701 29.3172 19.5367C29.5427 19.8993 30.3747 19.8481 30.3747 19.8481C30.3747 19.8481 31.2067 19.8993 31.4322 19.5367C31.6616 19.1701 31.5955 18.4802 31.5955 18.1846C31.8016 18.1846 32.1048 18.2043 32.1048 17.8771C32.1048 17.7746 31.9804 17.7667 31.9493 17.7667H31.9377" fill="white"/>
<path id="Vector_58" d="M27.9365 13.3359H26.5913C26.5641 13.3359 26.5252 13.3517 26.5291 13.399C26.5446 13.7774 27.3455 13.8918 27.3533 14.0337C27.3533 15.7957 27.8277 17.0533 28.8891 17.073C28.9668 17.0848 28.9241 16.9902 28.8657 16.9429C28.2203 16.3516 28.057 15.3937 28.0493 13.4503C28.0493 13.4108 28.0454 13.3359 27.9404 13.3359H27.9365Z" fill="white"/>
<path id="Vector_59" d="M32.8042 13.3359C32.7031 13.3359 32.6915 13.4108 32.6915 13.4503C32.6876 15.3976 32.5243 16.3516 31.875 16.9429C31.8245 16.9902 31.7739 17.0848 31.8556 17.073C32.9131 17.0533 33.3913 15.7957 33.3913 14.0337C33.3952 13.8957 34.2 13.7774 34.2156 13.399C34.2156 13.3556 34.1767 13.3359 34.1534 13.3359H32.8081H32.8042Z" fill="white"/>
<path id="Vector_60" d="M29.2155 13.3359H28.7334C28.644 13.3359 28.6245 13.3951 28.6245 13.4227C28.6323 15.3306 28.8306 16.9074 29.6509 17.0927C29.7093 17.1006 29.7092 17.0769 29.6781 17.0178C29.3943 16.4462 29.3321 15.232 29.3321 13.4345C29.3321 13.403 29.3243 13.3359 29.2194 13.3359H29.2155Z" fill="white"/>
<path id="Vector_61" d="M31.4122 13.4345C31.4122 15.232 31.3461 16.4462 31.0623 17.0178C31.0311 17.0769 31.035 17.1006 31.0934 17.0927C31.9137 16.9074 32.112 15.3306 32.1159 13.4227C32.1159 13.3951 32.0964 13.3359 32.007 13.3359H31.5249C31.4199 13.3359 31.4122 13.403 31.4122 13.4345Z" fill="white"/>
<path id="Vector_62" d="M29.9351 13.4739C29.9351 16.6157 30.0245 17.1479 30.3705 17.1479C30.7165 17.1479 30.8021 16.6157 30.806 13.4739C30.8099 13.3872 30.7982 13.3359 30.6971 13.3359H30.0478C29.9506 13.3359 29.9351 13.3872 29.939 13.4739" fill="white"/>
<path id="Vector_63" d="M16.8911 10.9903C16.4945 11.6841 16.2807 12.9416 16.8406 13.7812C17.3382 14.5342 18.8895 15.0348 19.4494 13.4304C19.5271 13.2569 19.6749 13.2254 19.6826 13.525C19.6749 14.3292 19.1967 14.7313 18.6096 14.8456C18.4541 14.8771 18.3685 14.952 18.524 14.9875C18.9828 15.1097 19.5777 15.0703 20.0559 14.5657C20.5885 14.002 20.6585 13.5329 20.6002 13.3082C20.5419 13.2569 20.4602 13.2845 20.3864 13.3082C20.3086 13.3318 20.2464 13.3594 20.2542 13.2964C20.3008 12.8627 20.1453 12.4449 19.7099 12.1492C19.3522 11.9088 18.6368 11.8378 18.4268 12.4528C18.3607 12.6223 18.4502 12.5434 18.5901 12.4646C18.769 12.3661 19.0256 12.2675 19.1617 12.6538C19.2589 12.9258 19.0684 13.458 18.9012 13.4974C18.8117 13.5171 18.7262 13.4462 18.6446 13.3792C18.5668 13.3121 18.4929 13.2491 18.4268 13.257C18.2985 13.2806 18.2869 13.6906 18.0691 13.6787C17.2488 13.6433 16.7822 12.4015 17.0505 11.0534C17.066 10.9706 17.0505 10.876 17.0116 10.876C16.9844 10.876 16.9494 10.9075 16.9028 10.9903" fill="white"/>
<path id="Vector_64" d="M43.9825 11.0534C44.2508 12.4015 43.7842 13.6433 42.9639 13.6787C42.75 13.6866 42.7384 13.2767 42.6062 13.257C42.544 13.2491 42.4701 13.3121 42.3923 13.3792C42.3107 13.4501 42.2252 13.5171 42.1357 13.4974C41.9647 13.458 41.7742 12.9219 41.8714 12.6538C42.0074 12.2675 42.264 12.3661 42.4429 12.4646C42.5829 12.5434 42.6723 12.6223 42.6062 12.4528C42.4001 11.8418 41.6847 11.9088 41.327 12.1492C40.8916 12.4449 40.7361 12.8627 40.7827 13.2964C40.7905 13.3555 40.7283 13.3318 40.6505 13.3082C40.5767 13.2845 40.4911 13.2569 40.4328 13.3082C40.3784 13.5289 40.4484 13.998 40.981 14.5657C41.4592 15.0703 42.0502 15.1097 42.5129 14.9875C42.6684 14.952 42.579 14.8771 42.4273 14.8456C41.8364 14.7352 41.3582 14.3292 41.3543 13.525C41.3582 13.2254 41.5059 13.253 41.5837 13.4304C42.1435 15.0348 43.6948 14.5342 44.1925 13.7812C44.7523 12.9376 44.5385 11.6841 44.138 10.9903C44.0914 10.9075 44.0525 10.876 44.0253 10.876C43.9825 10.876 43.967 10.9706 43.9864 11.0534" fill="white"/>
<path id="Vector_65" d="M19.1031 10.8722C18.8543 10.9038 18.9282 11.0615 19.1109 11.0772C20.0168 11.1403 20.7477 11.5109 21.2804 11.9721C21.6148 12.2559 21.4087 12.4727 21.2026 12.6383C20.9694 12.8275 20.9421 13.1428 21.0821 13.3124C21.2687 13.541 21.9491 13.474 22.5362 13.9825C23.1466 14.5068 23.3566 15.2242 23.1933 15.4726C22.995 15.7722 22.0619 15.6973 21.1288 15.1927C20.5922 14.9049 20.5106 15.8352 21.5642 16.8523C21.8208 17.1006 23.0261 17.9797 23.2049 18.6971C23.2905 18.9494 23.065 18.9297 23.0028 18.8706C21.261 17.2386 19.2975 17.6604 19.3636 18.5828C19.3675 18.6341 19.422 18.7523 19.558 18.705C20.2034 18.4803 20.2773 19.2411 20.3667 19.8167C20.4639 20.4316 21.0938 20.7076 21.3115 21.3422C21.5487 22.0163 21.5914 22.8836 21.5215 23.4236C21.4942 23.6049 21.3776 23.5734 21.3582 23.4473C21.1365 22.2016 20.5339 21.2279 20.2268 20.885C19.8885 20.5065 19.142 19.9665 18.9554 20.1478C18.6716 20.4159 19.3092 20.743 19.2003 20.948C19.0759 21.2397 18.3605 20.7864 18.0145 20.7154C17.3458 20.5735 16.6732 20.9717 16.5682 22.0636C16.5488 22.2174 16.6965 22.2174 16.7704 22.1898C17.7657 21.8153 19.0759 22.6825 18.8193 23.5813C18.7804 23.7193 18.6288 23.7153 18.4966 23.7153C18.2789 23.7153 18.1078 23.7114 18.5316 24.3027C19.2664 25.3276 18.8115 26.5733 18.5316 26.5733C18.3644 26.5733 17.9873 26.1712 17.7579 25.3749C17.5674 24.7797 16.8559 24.3382 16.1716 24.4288C16.0239 24.4485 16.0589 24.5826 16.1094 24.6417C16.4904 25.099 16.4049 25.8637 16.1638 25.6627C15.7128 25.3355 15.1646 25.7415 15.4018 25.8874C15.8839 26.2303 16.0744 27.1961 15.6195 27.8032C15.5768 27.8623 15.464 27.9136 15.4485 27.7756C15.3863 27.1922 15.2385 26.6285 14.8769 26.6718C14.5426 26.7073 14.4298 28.154 13.6444 28.8794C13.5123 29.0016 13.5511 29.1514 13.7222 29.1356C14.9664 29.0252 15.7517 28.8478 16.261 28.7571C17.1086 28.154 17.2175 26.9675 16.9609 25.9623C16.9414 25.8716 16.9998 25.8361 17.0542 25.9189C17.4274 26.4865 17.5868 27.3183 17.1047 28.3117C17.0192 28.4733 17.1203 28.5325 17.2097 28.5009C18.0067 28.2329 19.1304 27.6534 19.5036 27.405C20.1023 27.0108 21.0549 23.3014 18.7454 21.9572C18.5472 21.8429 18.6016 21.7758 18.8193 21.8626C20.7283 22.6116 20.775 24.8861 20.2734 26.589C20.2423 26.6955 20.3512 26.7585 20.4367 26.6837C21.4204 25.8322 22.198 24.8348 22.439 24.2317C22.5168 24.0464 22.5556 23.8612 22.5712 23.7547C22.785 22.0833 22.299 20.2109 21.4476 19.2135C21.2104 18.9337 21.2882 18.839 21.5448 19.0401C22.6256 19.8876 22.9833 21.6024 22.9833 22.7062C22.9833 22.852 23.0727 22.8717 23.1311 22.7298C23.6132 21.5117 24.2236 19.3081 24.072 18.772C23.8542 18.0152 23.0883 17.1164 22.3068 16.5763C22.1707 16.4817 22.2213 16.3792 22.3613 16.4226C23.1039 16.6512 23.5082 17.1913 24.002 17.8693C24.0642 17.956 24.208 18.1216 24.208 17.7944C24.208 16.3635 23.862 14.29 23.4071 13.8839C22.89 13.4267 22.3729 13.1862 21.9025 13.1113C21.7936 13.0955 21.7664 13.0049 21.8675 12.9812C22.1396 12.9103 22.4701 12.9182 22.855 13.064C22.9833 13.1231 23.0144 13.0404 22.9444 12.9339C22.5168 12.3032 21.8636 11.6015 21.051 11.2073C20.5417 10.9629 19.9585 10.8525 19.4725 10.8525C19.3403 10.8525 19.2198 10.8604 19.107 10.8762" fill="white"/>
<path id="Vector_66" d="M39.9774 11.203C39.1648 11.5972 38.5116 12.2949 38.0839 12.9296C38.0139 13.036 38.0412 13.1188 38.1695 13.0596C38.5544 12.9138 38.8848 12.9059 39.157 12.9769C39.2581 13.0045 39.2348 13.0912 39.122 13.107C38.6477 13.1818 38.1345 13.4263 37.6174 13.8796C37.1625 14.2817 36.8126 16.3552 36.8164 17.7901C36.8164 18.1172 36.9603 17.9517 37.0225 17.865C37.5163 17.1909 37.9206 16.6508 38.6632 16.4182C38.8071 16.3749 38.8615 16.4774 38.7215 16.572C37.944 17.112 37.1741 18.0108 36.9564 18.7677C36.8009 19.3077 37.4152 21.5113 37.8973 22.7255C37.9556 22.8674 38.045 22.8477 38.045 22.7018C38.0489 21.598 38.4066 19.8833 39.4875 19.0357C39.7441 18.8347 39.8257 18.9293 39.5847 19.2092C38.7332 20.2065 38.2472 22.075 38.461 23.7504C38.4727 23.8568 38.5116 24.046 38.5932 24.2274C38.8343 24.8265 39.6119 25.8278 40.5955 26.6793C40.6811 26.7542 40.786 26.6911 40.7549 26.5847C40.2534 24.8778 40.3039 22.6072 42.209 21.8582C42.4307 21.7715 42.4812 21.8385 42.2829 21.9528C39.9735 23.297 40.926 27.0065 41.5248 27.4007C41.898 27.649 43.0216 28.2285 43.8225 28.4966C43.9081 28.5241 44.0092 28.465 43.9275 28.3073C43.4415 27.3139 43.6009 26.4822 43.9781 25.9145C44.0325 25.8357 44.0908 25.8712 44.0675 25.9579C43.8109 26.9631 43.9159 28.1497 44.7634 28.7528C45.2728 28.8435 46.062 29.0208 47.3062 29.1312C47.4772 29.147 47.5161 29.0011 47.38 28.875C46.5947 28.1536 46.4858 26.7069 46.1475 26.6675C45.7899 26.628 45.6421 27.1878 45.5799 27.7712C45.5644 27.9092 45.4555 27.8579 45.4088 27.7988C44.9539 27.1878 45.1483 26.222 45.6266 25.883C45.8598 25.7332 45.3155 25.3311 44.8645 25.6583C44.6235 25.8593 44.5379 25.0946 44.919 24.6373C44.9656 24.5782 45.0006 24.4442 44.8529 24.4245C44.1686 24.3338 43.461 24.7753 43.2705 25.3705C43.0411 26.1629 42.6639 26.5689 42.4929 26.5689C42.2129 26.5689 41.758 25.3232 42.4929 24.2983C42.9167 23.707 42.7456 23.707 42.5317 23.711C42.3957 23.711 42.244 23.711 42.209 23.5769C41.9486 22.6782 43.2627 21.8148 44.258 22.1854C44.328 22.213 44.4757 22.213 44.4563 22.0593C44.3513 20.9673 43.6787 20.5692 43.01 20.7111C42.6639 20.782 41.9447 21.2354 41.8241 20.9437C41.7114 20.7426 42.3529 20.4115 42.0691 20.1434C41.8825 19.966 41.136 20.5061 40.7977 20.8806C40.4906 21.2235 39.8918 22.1972 39.6702 23.4429C39.6469 23.569 39.5302 23.6006 39.5069 23.4192C39.4369 22.8752 39.4797 22.0119 39.713 21.3379C39.9346 20.6993 40.5605 20.4273 40.6616 19.8123C40.7511 19.2368 40.8249 18.476 41.4703 18.7007C41.6064 18.748 41.6608 18.6258 41.6647 18.5785C41.7347 17.656 39.7674 17.2342 38.0295 18.8662C37.9673 18.9254 37.7379 18.9451 37.8273 18.6928C38.0023 17.9793 39.2114 17.0963 39.468 16.8479C40.5217 15.8348 40.4361 14.9006 39.8996 15.1883C38.9665 15.6929 38.0373 15.7717 37.839 15.4682C37.6718 15.2199 37.8856 14.4985 38.496 13.9781C39.0831 13.4696 39.7635 13.5406 39.9501 13.308C40.0901 13.1385 40.0668 12.8231 39.8296 12.6339C39.6274 12.4683 39.4136 12.2515 39.7518 11.9677C40.2845 11.5065 41.0193 11.1359 41.9213 11.0729C42.1041 11.061 42.1779 10.9034 41.9252 10.8679C41.8125 10.8521 41.6919 10.8442 41.5598 10.8442C41.0738 10.8442 40.4906 10.9546 39.9851 11.199" fill="white"/>
<path id="Vector_67" d="M26.292 12.102V11.1086C26.292 11.01 26.3659 10.9272 26.4631 10.9272H26.7469C26.8402 10.9272 26.9141 11.01 26.9141 11.1086V12.102C26.9141 12.2005 26.8363 12.2833 26.7469 12.2833H26.4631C26.3659 12.2833 26.292 12.2045 26.292 12.102Z" fill="white"/>
<path id="Vector_68" d="M27.3574 12.102V11.1086C27.3574 11.01 27.4352 10.9272 27.5285 10.9272H27.8123C27.9056 10.9272 27.9834 11.01 27.9834 11.1086V12.102C27.9834 12.2005 27.9056 12.2833 27.8123 12.2833H27.5285C27.4352 12.2833 27.3574 12.2045 27.3574 12.102Z" fill="white"/>
<path id="Vector_69" d="M28.4189 12.102V11.1086C28.4189 11.01 28.4928 10.9272 28.59 10.9272H28.87C28.9633 10.9272 29.0371 11.01 29.0371 11.1086V12.102C29.0371 12.2005 28.9633 12.2833 28.87 12.2833H28.59C28.4928 12.2833 28.4189 12.2045 28.4189 12.102Z" fill="white"/>
<path id="Vector_70" d="M29.4839 12.102V11.1086C29.4839 11.01 29.5616 10.9272 29.6511 10.9272H29.9349C30.0282 10.9272 30.106 11.01 30.106 11.1086V12.102C30.106 12.2005 30.0282 12.2833 29.9349 12.2833H29.6511C29.5578 12.2833 29.4839 12.2045 29.4839 12.102Z" fill="white"/>
<path id="Vector_71" d="M30.6348 12.102V11.1086C30.6348 11.01 30.7086 10.9272 30.802 10.9272H31.0858C31.1791 10.9272 31.2529 11.01 31.2529 11.1086V12.102C31.2529 12.2005 31.1791 12.2833 31.0858 12.2833H30.802C30.7086 12.2833 30.6348 12.2045 30.6348 12.102Z" fill="white"/>
<path id="Vector_72" d="M31.7002 12.102V11.1086C31.7002 11.01 31.778 10.9272 31.8674 10.9272H32.1512C32.2445 10.9272 32.3223 11.01 32.3223 11.1086V12.102C32.3223 12.2005 32.2445 12.2833 32.1512 12.2833H31.8674C31.7741 12.2833 31.7002 12.2045 31.7002 12.102Z" fill="white"/>
<path id="Vector_73" d="M32.7617 12.102V11.1086C32.7617 11.01 32.8395 10.9272 32.9328 10.9272H33.2166C33.3138 10.9272 33.3838 11.01 33.3838 11.1086V12.102C33.3838 12.2005 33.3099 12.2833 33.2166 12.2833H32.9328C32.8395 12.2833 32.7617 12.2045 32.7617 12.102Z" fill="white"/>
<path id="Vector_74" d="M33.8267 12.102V11.1086C33.8267 11.01 33.9044 10.9272 33.9938 10.9272H34.2738C34.371 10.9272 34.4448 11.01 34.4448 11.1086V12.102C34.4448 12.2005 34.3671 12.2833 34.2738 12.2833H33.9938C33.9005 12.2833 33.8267 12.2045 33.8267 12.102Z" fill="white"/>
<path id="Vector_75" d="M25.5107 10.5293C25.5107 10.5293 25.3979 10.5332 25.3979 10.6357C25.4057 10.9669 25.6973 10.9432 25.9034 10.9432C25.9345 12.5121 25.9539 12.6067 26.6615 12.6067H34.0837C34.7874 12.6067 34.8107 12.5082 34.8418 10.9432C35.0479 10.9432 35.3434 10.9629 35.3511 10.6357C35.3511 10.5332 35.2423 10.5293 35.2423 10.5293H25.5146H25.5107Z" fill="white"/>
<path id="Vector_76" d="M21.6151 9.48438C21.3702 9.54745 21.5957 9.88252 21.7823 10.2018C21.9651 10.5172 21.5879 10.328 21.4285 10.2176C20.1144 9.31487 18.3998 9.40948 18.2209 9.83127C18.7031 9.95742 18.3998 10.1309 18.2287 10.1821C18.0304 10.2412 17.7311 10.5448 17.5872 10.7852C17.2179 11.4081 17.3695 11.822 17.4822 11.546C18.3454 9.94953 20.7092 10.3556 21.8329 11.0494C22.07 11.1991 22.28 11.3805 22.4899 11.5697C22.6377 11.6998 22.661 11.5697 22.6493 11.483C22.6221 11.2228 22.5716 10.9666 22.5249 10.7143C22.5094 10.6473 22.6221 10.6197 22.7193 10.7498C22.9332 11.0494 22.9798 11.4869 22.9954 11.9008C22.9993 11.9757 23.0148 12.1452 23.1003 12.2556C23.563 12.8233 23.8429 13.383 24.0995 13.9349C24.1773 14.1478 24.2667 14.0256 24.3134 13.9073C24.4067 13.6511 24.4845 13.3002 24.5311 12.8903C24.5428 12.7878 24.6439 12.8233 24.6594 12.9297C24.7255 13.3397 24.6205 14.0059 24.535 14.6169C24.4922 14.8219 24.4806 14.9795 24.5233 15.1333C24.8383 16.0321 24.8538 17.9045 24.6128 19.5286C24.5816 19.7927 24.7061 19.6942 24.7838 19.5956C25.2348 19.028 25.7597 18.279 26.0513 17.4196C26.0863 17.3211 26.1718 17.325 26.164 17.4433C26.1057 18.4761 25.0715 19.9149 24.5933 20.4944C24.5272 20.5693 24.3795 20.7822 24.3328 20.9832C24.2395 21.2946 24.0879 21.8386 23.8585 22.4457C23.7807 22.6428 23.8663 22.6467 24.0296 22.5324C24.5117 22.221 24.9549 21.9845 25.3631 22.0042C25.5031 22.0121 25.5031 22.1461 25.3709 22.1816C24.7255 22.359 24.0645 22.8872 23.5863 23.3918C23.5319 23.447 23.3414 23.7229 23.2559 23.8767C22.9176 24.5074 22.6182 25.079 22.07 25.7964C21.9301 25.9935 22.0195 25.9777 22.105 25.9423C22.3422 25.8358 22.6377 25.686 23.0187 25.5126C23.077 25.485 23.1353 25.5638 23.0731 25.6348C22.6649 26.0881 21.4363 26.7031 21.2341 26.7937C20.9464 27.0224 20.3554 27.594 19.6478 28.0394C19.5234 28.1183 19.5506 28.205 19.6906 28.1656C20.6704 27.9251 21.5296 27.4875 22.2217 27.0145C22.9643 26.502 23.979 25.7806 24.6244 25.0277C24.7022 24.9331 24.71 24.8306 24.605 24.7675C24.3328 24.6099 23.9712 24.602 23.6252 24.6887C23.493 24.7045 23.4697 24.5902 23.528 24.5113C24.7994 22.8202 26.1368 22.4615 26.8172 22.2998C26.895 22.2801 27.0116 22.1461 26.9339 21.9924C26.7278 21.4602 26.3662 20.8255 25.6275 20.7703C25.4914 20.7506 25.4953 20.6363 25.5459 20.5693C27.6881 17.7587 26.9144 15.697 26.304 15.1845C26.2496 15.1412 26.1524 15.1569 26.1252 15.3304C26.0241 15.9926 25.6625 16.6943 25.4059 17.1161C25.3476 17.2186 25.2854 17.1516 25.3048 17.0451C25.9347 13.316 24.6477 11.55 24.4689 11.5933C24.2862 11.6407 24.2006 12.3187 24.0334 12.3305C23.8624 12.3463 23.7146 11.6485 23.4658 11.1558C23.2131 10.6433 23.0226 10.3516 22.5171 9.96924C22.3266 9.82339 21.9262 9.4962 21.6735 9.4962C21.654 9.4962 21.6307 9.4962 21.6112 9.50409" fill="white"/>
<path id="Vector_77" d="M38.5001 9.94978C37.9908 10.3322 37.8042 10.6239 37.5514 11.1363C37.3065 11.6291 37.1549 12.3268 36.9838 12.311C36.8166 12.2953 36.7311 11.6173 36.5484 11.5739C36.3695 11.5305 35.0826 13.2965 35.7124 17.0257C35.7319 17.1321 35.6736 17.1991 35.6114 17.0966C35.3548 16.6748 34.9893 15.9732 34.8921 15.3109C34.8649 15.1375 34.7677 15.1217 34.7132 15.1651C34.1028 15.6775 33.3252 17.7392 35.4714 20.5498C35.5258 20.6208 35.5258 20.7312 35.3936 20.7509C34.6549 20.8061 34.2895 21.4407 34.0873 21.9729C34.0095 22.1266 34.1262 22.2607 34.2039 22.2804C34.8804 22.442 36.2218 22.8007 37.4931 24.4919C37.5515 24.5707 37.5242 24.6811 37.392 24.6692C37.046 24.5825 36.6844 24.5904 36.4123 24.7481C36.3073 24.8072 36.3151 24.9097 36.3967 25.0083C37.0382 25.7612 38.053 26.4865 38.7956 26.995C39.4877 27.472 40.343 27.9056 41.3267 28.1461C41.4666 28.1855 41.4938 28.0948 41.3694 28.02C40.6696 27.5745 40.0747 27.0029 39.7831 26.7743C39.581 26.6876 38.3563 26.0726 37.9441 25.6153C37.878 25.5444 37.9403 25.4695 37.9947 25.4931C38.3796 25.6666 38.6751 25.8124 38.9083 25.9228C38.9978 25.9622 39.0872 25.974 38.9472 25.7769C38.399 25.0634 38.0997 24.4879 37.7614 23.8572C37.672 23.7035 37.4854 23.4275 37.4309 23.3723C36.9527 22.8677 36.2918 22.3395 35.6464 22.1621C35.5142 22.1266 35.5142 21.9966 35.6502 21.9847C36.0624 21.9611 36.5056 22.2015 36.9877 22.513C37.151 22.6312 37.2365 22.6233 37.1588 22.4262C36.9333 21.8192 36.7777 21.2752 36.6844 20.9638C36.6378 20.7627 36.4861 20.5498 36.4239 20.4749C35.9418 19.8994 34.9154 18.4606 34.8532 17.4238C34.8493 17.3056 34.931 17.3016 34.966 17.4002C35.2614 18.2595 35.7824 19.0085 36.2334 19.5762C36.3112 19.6747 36.4395 19.7693 36.4045 19.5092C36.1634 17.885 36.179 16.0126 36.4939 15.1138C36.5367 14.9601 36.525 14.8063 36.4862 14.5974C36.4006 13.9864 36.2956 13.3202 36.3617 12.9102C36.3773 12.8038 36.4784 12.7683 36.49 12.8708C36.5367 13.2808 36.6222 13.6316 36.7117 13.8878C36.7583 14.0061 36.8477 14.1283 36.9255 13.9154C37.1782 13.3636 37.4581 12.8038 37.9208 12.2361C38.0102 12.1258 38.0219 11.9563 38.0258 11.8814C38.0413 11.4714 38.088 11.0299 38.3018 10.7303C38.399 10.6002 38.5079 10.6278 38.4962 10.6948C38.4457 10.9471 38.3951 11.2033 38.3679 11.4635C38.3563 11.5502 38.3835 11.6803 38.5273 11.5502C38.7334 11.361 38.9472 11.1757 39.1805 11.0299C40.3002 10.3361 42.668 9.93007 43.5311 11.5266C43.6439 11.8065 43.7955 11.3926 43.43 10.7658C43.2862 10.5253 42.9868 10.2218 42.7885 10.1627C42.6175 10.1114 42.3181 9.9419 42.8002 9.81181C42.6213 9.39002 40.9068 9.29935 39.5926 10.1981C39.4332 10.3085 39.0561 10.4977 39.2388 10.1824C39.4216 9.86306 39.651 9.52799 39.4021 9.46492C39.3827 9.45703 39.3632 9.45703 39.3399 9.45703C39.0833 9.45703 38.6828 9.78816 38.4923 9.93007" fill="white"/>
<path id="Vector_78" d="M30.2381 0.0709562C29.8493 0.532171 29.7755 0.890894 29.7521 1.21808C29.7094 1.78967 29.9699 2.61355 29.8377 2.6648C29.721 2.70816 29.2545 2.03408 29.0406 1.60834C28.9901 1.51373 28.9162 1.58075 28.8812 1.65959C28.6363 2.22723 28.3991 3.48079 29.3556 4.52543C29.5344 4.74618 29.931 4.99847 29.8066 5.11673C29.686 5.23893 29.2156 4.7856 28.7257 4.59638C28.2358 4.40322 27.2911 4.15488 27.1433 4.51754C26.9917 4.88021 27.7265 5.58977 28.1658 5.95637C28.6674 6.37029 29.6044 7.2533 29.3245 7.2533C28.4302 6.81573 27.7032 7.09167 27.4699 7.59625C27.2327 8.09689 27.4893 8.57781 27.7226 8.77491C27.7576 8.80251 27.7732 8.75914 27.7848 8.72366C27.8587 8.47926 28.1697 8.25062 28.5235 8.29399C28.9084 8.34129 29.3633 8.89317 29.41 9.58302C29.4139 9.6185 29.4411 9.68157 29.5305 9.6934H29.966C30.0748 9.68946 30.0826 9.63427 30.0826 9.60273C30.0943 8.79068 29.4372 7.28877 27.9442 7.89979C27.8626 7.91161 27.8976 7.84066 27.9442 7.78941C28.3952 7.30454 29.3633 7.35973 30.0048 8.32552C30.0321 8.361 30.0865 8.37677 30.0787 8.2861V7.16263C29.7288 6.36634 28.7646 5.47939 28.0259 5.07337C27.917 5.01818 27.9987 4.95116 28.092 4.95905C28.749 5.02606 29.6666 5.90907 30.0282 6.34663C30.0593 6.38211 30.1098 6.39788 30.1098 6.30327C30.1098 5.82235 30.1215 4.81713 30.1332 4.57273C29.6549 4.00902 29.1184 3.35859 29.1028 2.67662C29.1028 2.61355 29.1456 2.57807 29.1923 2.66086C29.3983 3.09448 29.7599 3.63453 30.0593 3.94989C30.0943 3.98537 30.1565 4.00902 30.1565 3.93018C30.1681 3.4059 30.2226 2.70028 30.2809 2.07744C30.3003 1.90793 30.3314 1.7739 30.3625 1.76208C30.3975 1.7739 30.4247 1.90793 30.4442 2.07744C30.5064 2.70028 30.5569 3.4059 30.5725 3.93018C30.5725 4.00902 30.6386 3.98537 30.6736 3.94989C30.973 3.63847 31.3306 3.09448 31.5367 2.66086C31.5795 2.57807 31.6261 2.61355 31.6222 2.67662C31.6067 3.36253 31.0701 4.01296 30.5958 4.57273C30.6036 4.81319 30.6191 5.8184 30.6153 6.30327C30.6191 6.39788 30.6697 6.38605 30.6969 6.34663C31.0585 5.91301 31.976 5.03 32.637 4.95905C32.7264 4.94722 32.812 5.01818 32.7031 5.07337C31.9644 5.47939 31.0002 6.36634 30.6502 7.16263V8.2861C30.6386 8.37677 30.6969 8.36494 30.7241 8.32552C31.3656 7.35973 32.3337 7.30454 32.7886 7.78941C32.8392 7.84066 32.8742 7.91161 32.7886 7.89979C31.2956 7.28877 30.6386 8.79068 30.6502 9.60273C30.6502 9.63427 30.658 9.68552 30.763 9.6934H31.1985C31.2918 9.68157 31.3151 9.62244 31.3151 9.58302C31.3656 8.88923 31.8205 8.34129 32.2015 8.29399C32.5592 8.25062 32.8703 8.47926 32.9403 8.72366C32.9519 8.7552 32.9675 8.79856 32.9986 8.77491C33.2319 8.57781 33.4924 8.09689 33.2552 7.59625C33.0219 7.09167 32.291 6.81573 31.4006 7.2533C31.1168 7.2533 32.0616 6.37029 32.5592 5.95637C33.0025 5.58977 33.7373 4.88021 33.5857 4.51754C33.434 4.15488 32.4931 4.40717 32.0033 4.59638C31.5134 4.7856 31.0429 5.23893 30.9185 5.11673C30.798 4.99847 31.1946 4.74618 31.3734 4.52543C32.326 3.47685 32.0888 2.22723 31.8477 1.65959C31.8166 1.58469 31.7428 1.51767 31.6883 1.60834C31.4784 2.03408 31.0118 2.70816 30.8952 2.6648C30.763 2.61355 31.0235 1.78967 30.9807 1.21808C30.9574 0.890894 30.8874 0.532171 30.4947 0.0709562C30.4597 0.0275941 30.4209 0.00394201 30.3625 0C30.3081 0 30.2692 0.0275941 30.2304 0.0709562" fill="white"/>
</g>
</g>
</svg>
