<svg width="121" height="93" viewBox="0 0 121 93" fill="none" xmlns="http://www.w3.org/2000/svg">
<g id="Vector">
<path d="M120.519 44.0441C120.519 43.4644 120.229 43.1746 119.679 43.1746C119.244 43.1746 118.693 43.6383 118.056 44.5078C110.232 55.5213 102.697 61.028 95.4235 61.028C89.0482 61.028 85.8316 58.2746 85.8316 52.7679C85.8316 50.5652 87.3964 46.2468 90.5261 39.9286C94.0326 33.0017 95.7713 27.0023 95.7713 21.9303C95.7713 15.2063 93.5979 9.84448 89.309 5.96079C84.9622 2.10609 78.9926 0.164246 71.3422 0.164246C54.0419 0.164246 37.9877 6.85926 23.1795 20.2493C8.3714 33.6683 0.981812 48.2176 0.981812 63.9263C0.981812 72.5631 3.47396 79.461 8.51626 84.6779C13.5586 89.8948 20.1947 92.5032 28.4827 92.5032C40.6827 92.5032 51.7236 87.5472 61.4895 77.6641C64.2135 74.9687 66.8215 71.6646 69.3716 67.636C71.9218 63.6944 73.1968 60.912 73.1968 59.347C73.1968 58.6224 72.8491 58.2456 72.2116 58.2456C71.8349 58.2456 71.5451 58.6224 71.3132 59.347C67.8938 67.9838 62.04 75.3454 53.6942 81.4898C45.3773 87.6051 37.1183 90.6773 28.8884 90.6773C21.3249 90.6773 15.1524 88.2428 10.3999 83.3157C5.61841 78.4176 3.24215 72.0704 3.24215 64.332C3.24215 49.0581 10.3709 34.8856 24.5705 21.8144C38.7991 8.71416 54.2158 2.16406 70.8785 2.16406C76.7322 2.16406 81.6587 3.49725 85.6577 6.13468C89.7147 8.77211 91.7432 11.9602 91.7432 15.699C91.7432 18.5103 90.6131 22.1042 88.3527 26.3936C83.5423 35.6971 81.108 42.45 81.108 46.5946C81.108 51.5216 82.4411 55.4923 85.0781 58.4775C87.7152 61.4917 91.1927 62.9988 95.3946 62.9988C102.031 62.9988 109.044 58.6804 116.491 49.9276C119.157 46.8264 120.49 44.8266 120.49 43.9861" fill="white" style="mix-blend-mode:overlay"/>
</g>
</svg>
