<svg width="455" height="647" viewBox="0 0 455 647" fill="none" xmlns="http://www.w3.org/2000/svg">
<path d="M253.519 293.044C253.519 292.464 253.229 292.175 252.679 292.175C252.244 292.175 251.693 292.638 251.056 293.508C243.232 304.521 235.697 310.028 228.424 310.028C222.048 310.028 218.832 307.275 218.832 301.768C218.832 299.565 220.396 295.247 223.526 288.929C227.033 282.002 228.771 276.002 228.771 270.93C228.771 264.206 226.598 258.844 222.309 254.961C217.962 251.106 211.993 249.164 204.342 249.164C187.042 249.164 170.988 255.859 156.18 269.249C141.371 282.668 133.982 297.218 133.982 312.926C133.982 321.563 136.474 328.461 141.516 333.678C146.559 338.895 153.195 341.503 161.483 341.503C173.683 341.503 184.724 336.547 194.489 326.664C197.213 323.969 199.822 320.665 202.372 316.636C204.922 312.694 206.197 309.912 206.197 308.347C206.197 307.622 205.849 307.246 205.212 307.246C204.835 307.246 204.545 307.622 204.313 308.347C200.894 316.984 195.04 324.345 186.694 330.49C178.377 336.605 170.118 339.677 161.888 339.677C154.325 339.677 148.152 337.243 143.4 332.316C138.618 327.418 136.242 321.07 136.242 313.332C136.242 298.058 143.371 283.886 157.571 270.814C171.799 257.714 187.216 251.164 203.879 251.164C209.732 251.164 214.659 252.497 218.658 255.135C222.715 257.772 224.743 260.96 224.743 264.699C224.743 267.51 223.613 271.104 221.353 275.394C216.542 284.697 214.108 291.45 214.108 295.595C214.108 300.522 215.441 304.492 218.078 307.477C220.715 310.492 224.193 311.999 228.395 311.999C235.031 311.999 242.044 307.68 249.491 298.928C252.157 295.826 253.49 293.827 253.49 292.986" fill="white" style="mix-blend-mode:overlay"/>
<path d="M335.762 271.394C326.17 273.887 314.926 281.712 301.944 294.812C288.758 307.999 277.544 322.867 268.27 339.475H226.889C248.101 315.448 266.764 298.319 282.963 288.117C299.191 277.944 316.781 272.351 335.762 271.394ZM370.392 272.727C370.392 269.394 365.32 267.684 355.236 267.684C350.744 267.684 345.876 268.235 340.717 269.249C318.375 269.394 297.22 275.075 277.167 286.291C257.143 297.479 236.452 315.216 215.152 339.475C207.821 339.33 200.634 339.272 193.65 339.272L192.346 341.272H213.472L210.197 344.749C204.025 350.981 195.708 359.676 185.333 370.834C180.088 376.543 175.336 381.152 171.047 384.659C152.269 400.338 135.055 408.222 119.407 408.222C108.511 408.222 99.2954 405.7 91.8189 400.686C84.3424 395.701 80.5751 389.528 80.5751 382.253C80.5751 380.311 80.9518 378.398 81.6763 376.543C82.4008 374.718 83.1542 373.761 83.8497 373.761C84.5162 373.761 84.864 374.167 84.864 374.862C84.864 375.413 84.777 375.819 84.6611 376.138L84.4293 378.34C84.4293 381.702 86.139 383.383 89.5585 383.383C91.7609 383.383 93.6445 382.514 95.2963 380.746C96.9481 379.007 97.7595 376.891 97.7595 374.457C97.7595 369.762 95.3833 367.414 90.6597 367.414C87.1533 367.414 84.2264 368.863 81.7632 371.79C79.329 374.689 78.1119 378.195 78.1119 382.282C78.1119 390.165 82.14 396.86 90.1671 402.338C98.2232 407.874 107.96 410.627 119.436 410.627C139.576 410.627 161.078 401.179 183.826 382.282C193.592 374.167 207.357 360.516 225.15 341.3H267.14C250.651 369.24 239.524 386.34 233.757 392.658C227.932 399.005 219.412 403.526 208.169 406.28C202.894 405.555 198.287 405.149 194.317 405.149C188.608 405.149 185.797 406.077 185.797 407.816C185.797 409.381 187.912 410.163 192.114 410.163C198.142 410.163 203.503 409.381 208.169 407.816C215.79 409.381 222.252 410.163 227.555 410.163C236.8 410.163 244.595 408.338 251.028 404.657C257.403 400.976 264.503 394.252 272.27 384.514C280.644 374.051 284.817 368.341 284.817 367.182C284.73 366.921 284.47 366.776 284.064 366.776C283.687 366.776 283.166 367.269 282.499 368.341C276.703 377.848 269.401 386.861 260.62 395.353C251.521 404.135 240.306 408.511 226.889 408.511C222.687 408.511 217.703 408.048 211.936 407.178C239.408 400.628 261.982 379.297 279.601 343.213C291.077 319.708 301.306 302.695 310.29 292.204C319.244 281.683 329.618 274.64 341.355 270.988C346.484 270.988 352.946 271.8 360.742 273.423C364.944 274.35 367.407 274.785 368.044 274.785C369.58 274.785 370.363 274.09 370.363 272.756L370.392 272.727Z" fill="white" style="mix-blend-mode:overlay"/>
<path d="M220.163 642.663V635.939C220.163 635.214 220.743 634.606 221.438 634.606H223.553C224.22 634.606 224.8 635.214 224.8 635.939V643.243C224.8 643.996 224.22 644.576 223.553 644.576H221.873C221.873 644.576 221.844 644.576 221.815 644.576C220.771 644.576 220.163 643.359 220.163 642.663Z" fill="white" style="mix-blend-mode:overlay"/>
<path d="M227.93 643.243V635.939C227.93 635.214 228.481 634.606 229.176 634.606H231.292C231.987 634.606 232.538 635.214 232.538 635.939V642.663C232.538 643.388 231.929 644.634 230.857 644.576H229.147C228.452 644.576 227.901 643.996 227.901 643.243" fill="white" style="mix-blend-mode:overlay"/>
<path d="M237.987 631.708H214.746C214.746 631.708 213.529 631.621 213.529 632.519C213.529 634.954 215.76 634.78 217.296 634.78C217.296 636.953 216.833 642.025 218.513 644.721C220.194 647.358 226.396 646.981 226.396 646.981C226.396 646.981 232.597 647.358 234.278 644.721C235.987 642.025 235.495 636.953 235.495 634.78C237.031 634.78 239.291 634.925 239.291 632.519C239.291 631.766 238.364 631.708 238.132 631.708H238.045" fill="white" style="mix-blend-mode:overlay"/>
<path d="M208.224 599.131H198.197C197.994 599.131 197.704 599.276 197.733 599.595C197.849 602.377 203.819 603.217 203.877 604.261C203.877 617.245 207.412 626.462 215.323 626.636C215.903 626.722 215.584 626.027 215.149 625.679C210.339 621.332 209.122 614.289 209.064 599.971C209.064 599.711 209.035 599.16 208.253 599.16L208.224 599.131Z" fill="white" style="mix-blend-mode:overlay"/>
<path d="M244.506 599.131C243.753 599.131 243.695 599.682 243.695 599.943C243.666 614.26 242.449 621.303 237.609 625.65C237.233 625.998 236.856 626.694 237.465 626.607C245.347 626.462 248.911 617.216 248.911 604.232C248.94 603.218 254.939 602.348 255.055 599.566C255.055 599.247 254.765 599.102 254.591 599.102H244.564L244.506 599.131Z" fill="white" style="mix-blend-mode:overlay"/>
<path d="M217.759 599.131H214.136C213.47 599.131 213.325 599.566 213.325 599.769C213.383 613.796 214.861 625.36 220.975 626.751C221.41 626.78 221.41 626.607 221.178 626.201C219.063 621.998 218.599 613.072 218.599 599.827C218.599 599.595 218.541 599.131 217.759 599.131Z" fill="white" style="mix-blend-mode:overlay"/>
<path d="M234.13 599.827C234.13 613.043 233.637 621.998 231.522 626.201C231.29 626.636 231.319 626.809 231.753 626.751C237.868 625.36 239.346 613.796 239.375 599.769C239.375 599.566 239.23 599.131 238.563 599.131H234.941C234.188 599.131 234.13 599.624 234.13 599.827Z" fill="white" style="mix-blend-mode:overlay"/>
<path d="M223.118 600.116C223.118 623.216 223.785 627.128 226.364 627.128C228.943 627.128 229.581 623.216 229.61 600.116C229.639 599.479 229.552 599.102 228.798 599.102H223.93C223.205 599.102 223.089 599.479 223.118 600.116Z" fill="white" style="mix-blend-mode:overlay"/>
<path d="M195.965 590.031V582.698C195.965 581.973 196.515 581.394 197.24 581.394H199.355C200.051 581.394 200.601 582.002 200.601 582.698V590.031C200.601 590.755 200.022 591.364 199.355 591.364H197.24C196.515 591.364 195.965 590.755 195.965 590.031Z" fill="white" style="mix-blend-mode:overlay"/>
<path d="M203.907 590.031V582.698C203.907 581.973 204.487 581.394 205.182 581.394H207.298C207.993 581.394 208.573 582.002 208.573 582.698V590.031C208.573 590.755 207.993 591.364 207.298 591.364H205.182C204.487 591.364 203.907 590.755 203.907 590.031Z" fill="white" style="mix-blend-mode:overlay"/>
<path d="M211.819 590.031V582.698C211.819 581.973 212.37 581.394 213.094 581.394H215.181C215.876 581.394 216.427 582.002 216.427 582.698V590.031C216.427 590.755 215.876 591.364 215.181 591.364H213.094C212.37 591.364 211.819 590.755 211.819 590.031Z" fill="white" style="mix-blend-mode:overlay"/>
<path d="M219.759 590.031V582.698C219.759 581.973 220.339 581.394 221.005 581.394H223.121C223.816 581.394 224.396 582.002 224.396 582.698V590.031C224.396 590.755 223.816 591.364 223.121 591.364H221.005C220.31 591.364 219.759 590.755 219.759 590.031Z" fill="white" style="mix-blend-mode:overlay"/>
<path d="M228.335 590.031V582.698C228.335 581.973 228.886 581.394 229.581 581.394H231.697C232.392 581.394 232.943 582.002 232.943 582.698V590.031C232.943 590.755 232.392 591.364 231.697 591.364H229.581C228.886 591.364 228.335 590.755 228.335 590.031Z" fill="white" style="mix-blend-mode:overlay"/>
<path d="M236.275 590.031V582.698C236.275 581.973 236.855 581.394 237.521 581.394H239.637C240.332 581.394 240.912 582.002 240.912 582.698V590.031C240.912 590.755 240.332 591.364 239.637 591.364H237.521C236.826 591.364 236.275 590.755 236.275 590.031Z" fill="white" style="mix-blend-mode:overlay"/>
<path d="M244.187 590.031V582.698C244.187 581.973 244.767 581.394 245.462 581.394H247.578C248.302 581.394 248.824 582.002 248.824 582.698V590.031C248.824 590.755 248.273 591.364 247.578 591.364H245.462C244.767 591.364 244.187 590.755 244.187 590.031Z" fill="white" style="mix-blend-mode:overlay"/>
<path d="M252.128 590.031V582.698C252.128 581.973 252.707 581.394 253.374 581.394H255.46C256.185 581.394 256.735 582.002 256.735 582.698V590.031C256.735 590.755 256.156 591.364 255.46 591.364H253.374C252.678 591.364 252.128 590.755 252.128 590.031Z" fill="white" style="mix-blend-mode:overlay"/>
<path d="M190.143 578.466C190.143 578.466 189.302 578.524 189.302 579.278C189.36 581.683 191.534 581.538 193.07 581.538C193.302 593.074 193.446 593.769 198.721 593.769H254.041C259.286 593.769 259.46 593.074 259.692 581.538C261.228 581.538 263.43 581.683 263.488 579.278C263.488 578.524 262.677 578.466 262.677 578.466H190.172H190.143Z" fill="white" style="mix-blend-mode:overlay"/>
<path d="M225.381 501.575C222.483 504.995 221.932 507.575 221.758 510.009C221.44 514.212 223.381 520.269 222.396 520.646C221.527 520.994 218.049 516.009 216.455 512.878C216.079 512.212 215.528 512.675 215.267 513.226C213.442 517.429 211.674 526.616 218.803 534.297C220.136 535.92 223.091 537.775 222.164 538.644C221.266 539.542 217.759 536.209 214.108 534.818C210.457 533.398 203.415 531.543 202.314 534.21C201.184 536.876 206.661 542.093 209.935 544.788C213.673 547.803 220.657 554.324 218.571 554.324C211.906 551.078 206.487 553.106 204.748 556.816C202.98 560.526 204.893 564.062 206.632 565.511C206.892 565.714 207.008 565.395 207.095 565.134C207.646 563.337 209.964 561.656 212.601 562.004C215.47 562.381 218.861 566.409 219.208 571.51C219.237 571.742 219.44 572.235 220.107 572.293H223.352C224.164 572.264 224.222 571.887 224.222 571.655C224.309 565.685 219.411 554.642 208.283 559.135C207.675 559.222 207.936 558.671 208.283 558.323C211.645 554.758 218.861 555.193 223.642 562.265C223.845 562.526 224.251 562.613 224.193 561.975V553.715C221.585 547.861 214.398 541.339 208.892 538.383C208.08 537.977 208.689 537.456 209.385 537.543C214.282 538.064 221.121 544.528 223.816 547.745C224.048 548.034 224.425 548.121 224.425 547.426C224.425 543.89 224.511 536.499 224.598 534.702C221.034 530.558 217.035 525.805 216.919 520.762C216.919 520.298 217.238 520.037 217.586 520.646C219.121 523.834 221.816 527.833 224.048 530.123C224.309 530.355 224.772 530.529 224.772 529.978C224.859 526.123 225.265 520.936 225.7 516.356C225.844 515.11 226.076 514.125 226.308 514.038C226.569 514.125 226.772 515.11 226.917 516.356C227.38 520.936 227.757 526.094 227.873 529.978C227.873 530.558 228.366 530.384 228.626 530.123C230.858 527.804 233.524 523.834 235.06 520.646C235.379 520.037 235.726 520.327 235.697 520.762C235.581 525.805 231.582 530.558 228.047 534.702C228.105 536.47 228.221 543.861 228.192 547.426C228.221 548.121 228.597 548.034 228.8 547.745C231.495 544.528 238.334 538.064 243.261 537.543C243.927 537.485 244.565 537.977 243.753 538.383C238.247 541.339 231.061 547.861 228.453 553.715V561.975C228.366 562.642 228.8 562.555 229.003 562.265C233.785 555.164 241 554.758 244.391 558.323C244.768 558.671 245.028 559.222 244.391 559.135C233.263 554.642 228.366 565.685 228.453 571.655C228.453 571.887 228.511 572.264 229.293 572.293H232.539C233.234 572.235 233.408 571.742 233.408 571.51C233.785 566.409 237.175 562.352 240.015 562.004C242.681 561.685 244.999 563.366 245.521 565.134C245.608 565.424 245.724 565.714 245.956 565.511C247.694 564.062 249.636 560.526 247.868 556.816C246.13 553.106 240.682 551.078 234.045 554.324C231.93 554.324 238.972 547.803 242.681 544.788C245.985 542.093 251.462 536.876 250.332 534.21C249.201 531.543 242.189 533.398 238.537 534.818C234.886 536.209 231.379 539.542 230.452 538.644C229.554 537.775 232.51 535.92 233.843 534.297C240.942 526.616 239.175 517.429 237.378 513.226C237.146 512.675 236.596 512.212 236.19 512.878C234.625 516.009 231.148 520.965 230.278 520.646C229.293 520.269 231.235 514.212 230.916 510.009C230.742 507.575 230.22 504.966 227.293 501.575C227.033 501.285 226.743 501.082 226.308 501.082C225.902 501.082 225.613 501.285 225.323 501.575" fill="white" style="mix-blend-mode:overlay"/>
<path d="M136.011 464.274C133.982 465.463 140.85 469.897 138.706 471.346C138.126 471.636 136.59 469.781 133.634 467.926C130.012 465.637 124.245 463.347 115.639 465.144C115.001 465.289 115.03 465.926 115.697 466.1C125.81 468.651 136.156 473.23 147.283 483.867C147.66 484.214 148.327 484.099 148.182 483.026C147.457 477.751 145.69 472.65 142.792 469.346C142.473 468.97 143.313 469.085 144.038 469.578C148.558 472.737 151.514 479.027 151.456 488.33C154.006 491.779 157.948 496.967 160.063 501.082C160.903 497.981 161.86 494.474 161.541 489.402C161.483 488.591 161.976 488.504 162.207 489.315C164.207 495.808 162.816 501.662 161.889 504.966C163.222 507.864 165.279 513.748 166.264 517.023C166.496 517.747 167.076 517.574 167.25 516.994C168.235 513.777 169.771 511.139 172.089 508.792C174.349 506.502 177.131 505.865 179.508 506.56C180.145 506.734 180.087 507.314 179.508 507.401C176.871 507.719 174.494 509.4 172.785 511.69C170.379 514.907 168.293 520.24 168.148 526.152C168.815 528.964 169.133 533.514 169.481 536.499C169.568 537.282 170.061 537.311 170.206 536.76C171.77 531.398 173.857 527.109 177.537 524.471C180.522 522.356 183.941 522.037 186.984 524.327C187.506 524.732 187.332 525.428 186.752 525.312C183.188 524.587 180.203 525.254 177.479 528.036C173.48 532.181 170.843 538.963 172.553 549.136C174.089 558.41 180.029 565.076 185.999 569.395C186.608 569.829 187.042 569.482 186.723 568.815C184.347 563.888 183.478 555.309 189.911 552.324C190.433 552.063 190.925 552.324 190.433 552.961C184.115 560.787 189.476 572.409 194.78 572.554C200.778 572.554 208.429 572.525 208.429 572.525C209.385 572.554 209.037 571.452 207.907 571.366C198.344 570.728 194.258 567.656 192.635 562.468C191.36 558.323 193.504 552.99 197.706 555.396C198.199 555.686 198.894 555.773 198.894 554.527C198.923 551.744 197.996 549.049 194.664 547.658C191.302 546.209 188.723 547.976 186.781 549.802C185.274 551.223 184.144 552.614 183.42 552.44C182.377 551.425 186.897 547.107 184.057 547.194C182.087 547.339 178.175 549.686 178.522 555.976C178.58 556.613 178.001 556.932 177.595 556.121C174.784 550.614 171.973 536.76 189.1 538.847C191.853 539.513 189.766 533.079 182.985 533.079C179.247 532.934 193.07 525.196 195.852 535.978C196.141 537.369 198.344 536.586 197.938 533.195C197.504 529.428 193.418 511.806 175.422 520.124C173.045 521.544 172.959 519.747 174.987 517.979C176.581 516.559 179.566 515.139 183.768 515.342C184.811 515.429 184.985 514.849 184.521 514.299C183.97 513.661 182.55 513.023 180.493 513.342C182.29 512.009 184.666 508.647 188.027 513.632C190.114 516.356 190.694 505.111 180.58 502.59C173.886 500.909 168.902 506.705 167.626 509.893C168.061 504.676 169.22 502.242 171.452 499.575C173.654 496.909 176.697 491.953 171.77 487.605C171.046 486.968 170.785 488.649 170.495 490.301C170.119 492.532 169.8 494.735 168.467 491.402C167.279 487.837 165.105 479.577 157.803 478.186C157.165 478.157 157.368 479.374 157.426 480.592C157.542 481.925 157.542 483.258 156.296 482.968C154.76 482.649 154.093 474.36 148.385 468.216C145.052 464.622 142.183 463.347 139.691 463.347C138.387 463.347 137.199 463.724 136.098 464.274" fill="white" style="mix-blend-mode:overlay"/>
<path d="M304.435 468.216C298.726 474.36 298.088 482.649 296.553 482.968C295.278 483.229 295.278 481.925 295.393 480.592C295.48 479.374 295.683 478.128 295.017 478.186C287.714 479.577 285.512 487.866 284.353 491.402C283.02 494.735 282.672 492.532 282.324 490.301C282.034 488.649 281.744 486.997 281.049 487.605C276.094 491.953 279.165 496.938 281.368 499.575C283.57 502.242 284.729 504.676 285.135 509.893C283.889 506.676 278.905 500.909 272.21 502.59C262.097 505.14 262.676 516.356 264.763 513.632C268.124 508.647 270.53 512.009 272.297 513.342C270.24 513.023 268.82 513.661 268.269 514.299C267.777 514.849 267.98 515.4 269.023 515.342C273.225 515.11 276.181 516.53 277.803 517.979C279.832 519.747 279.716 521.544 277.34 520.124C259.344 511.806 255.258 529.428 254.823 533.195C254.446 536.586 256.591 537.369 256.939 535.978C259.692 525.196 273.543 532.934 269.776 533.079C262.995 533.079 260.88 539.513 263.691 538.847C280.788 536.789 277.977 550.643 275.166 556.121C274.732 556.903 274.181 556.584 274.21 555.976C274.587 549.686 270.646 547.339 268.704 547.194C265.806 547.136 270.385 551.425 269.313 552.44C268.588 552.614 267.487 551.194 265.951 549.802C264.038 548.005 261.43 546.209 258.04 547.658C254.765 549.078 253.78 551.773 253.838 554.527C253.838 555.773 254.533 555.686 255.026 555.396C259.199 552.962 261.372 558.323 260.097 562.468C258.504 567.656 254.417 570.728 244.855 571.366C243.724 571.452 243.377 572.554 244.304 572.525C244.304 572.525 252.012 572.554 257.982 572.554C263.256 572.409 268.646 560.787 262.3 552.961C261.807 552.295 262.3 552.063 262.821 552.324C269.255 555.309 268.385 563.888 266.009 568.815C265.69 569.482 266.154 569.829 266.733 569.395C272.732 565.105 278.673 558.439 280.209 549.136C281.889 538.934 279.281 532.152 275.253 528.036C272.558 525.254 269.573 524.587 265.98 525.312C265.4 525.428 265.198 524.732 265.748 524.327C268.791 522.066 272.239 522.385 275.195 524.471C278.876 527.109 280.933 531.398 282.498 536.76C282.643 537.311 283.135 537.282 283.222 536.499C283.512 533.514 283.889 528.964 284.555 526.152C284.382 520.24 282.324 514.907 279.89 511.69C278.18 509.4 275.833 507.719 273.167 507.401C272.587 507.314 272.5 506.734 273.138 506.56C275.543 505.865 278.296 506.502 280.585 508.792C282.904 511.11 284.41 513.748 285.425 516.994C285.599 517.574 286.178 517.747 286.381 517.023C287.366 513.719 289.453 507.864 290.786 504.966C289.859 501.691 288.468 495.808 290.467 489.315C290.728 488.504 291.192 488.591 291.163 489.402C290.844 494.474 291.8 497.981 292.669 501.082C294.756 496.967 298.697 491.779 301.218 488.33C301.16 479.027 304.145 472.737 308.666 469.578C309.361 469.085 310.202 468.97 309.883 469.346C306.956 472.65 305.217 477.78 304.493 483.026C304.348 484.099 305.014 484.214 305.391 483.867C316.49 473.259 326.864 468.651 336.949 466.1C337.615 465.926 337.644 465.289 337.007 465.144C328.4 463.347 322.633 465.637 319.011 467.926C316.084 469.781 314.519 471.636 313.94 471.346C311.824 469.897 318.692 465.463 316.664 464.274C315.563 463.695 314.375 463.347 313.07 463.347C310.607 463.347 307.738 464.651 304.377 468.216" fill="white" style="mix-blend-mode:overlay"/>
<path d="M72.7211 463.26C73.5614 466.274 76.7781 467.897 81.7044 468.1C83.5591 468.042 84.5444 468.999 83.3852 469.433C82.2261 469.897 75.6479 471.723 75.4451 480.36C75.2422 489.895 83.5011 490.997 86.7468 488.33C87.2684 487.924 87.703 487.287 85.8774 486.127C83.5881 484.707 85.066 482.881 87.1814 480.476C89.6446 477.665 95.4404 473.52 106.365 473.665C107.09 473.665 107.322 474.447 106.626 474.911C98.5701 480.302 88.2826 495.373 102.308 505.778C105.699 507.923 110.828 507.488 108.973 503.72C106.742 499.199 111.031 491.895 114.045 491.663C115.32 491.576 115.668 492.851 115.87 494.156C116.16 496.098 116.131 498.039 118.305 495.286C123.898 488.417 132.736 487.229 137.836 493.605C138.532 494.417 139.169 495.257 137.46 495.489C135.779 495.692 122.101 494.475 117.957 510.56C117.551 512.212 118.276 514.994 121.145 513.545C123.984 512.096 129.346 507.778 136.503 511.893C143.661 515.98 143.024 513.661 147.573 515.545C150.268 516.675 151.427 517.603 151.92 518.356C152.268 518.849 151.862 519.429 150.906 519.342C141.198 518.356 134.562 523.37 131.345 527.834C129.49 530.384 128.534 533.543 129.577 535.166C130.621 536.847 133.779 537.34 138.358 535.137C141.604 533.543 152.384 530.413 160.208 542.035C161.164 543.166 161.512 544.209 159.715 544.18C156.933 544.151 151.92 543.687 148.935 541.6C148.037 541.021 147.428 541.716 147.312 542.267C146.501 545.89 148.182 551.252 153.891 554.353C159.686 557.425 169.568 560.99 174.987 563.598C175.769 563.975 175.856 563.511 175.364 562.932C172.321 559.599 171.104 557.048 170.553 556.005C164.7 554.208 157.223 551.86 153.717 548.295C153.253 547.832 153.485 547.339 154.151 547.658C157.745 549.455 164.439 551.686 167.945 552.498C168.728 552.672 169.191 552.295 168.844 551.223C166.902 544.847 164.265 535.833 154.006 529.689C150.007 527.312 146.704 527.892 143.429 528.529C142.937 528.616 142.56 528.008 143.023 527.602C146.211 525.109 155.282 523.602 164.236 535.34C164.7 535.949 165.105 535.63 165.018 535.079C164.236 528.471 162.758 519.574 161.802 516.994C156.817 509.372 147.457 499.489 131.664 503.575C130.997 503.749 130.794 503.285 131.432 502.909C141.082 496.967 150.645 501.72 157.513 507.662C158.034 508.125 158.498 507.575 158.179 506.821C154.267 497.837 147.225 489.055 143.284 485.925C142.705 485.461 141.488 484.794 140.937 484.591C128.041 480.476 109.872 478.708 103.96 495.779C103.728 496.445 103.294 496.242 103.352 495.489C104.25 481.374 118.102 476.94 134.446 480.07C135.17 480.215 135.547 479.577 134.909 479.114C126.911 473.114 109.35 467.376 101.091 469.057C89.8475 471.346 84.6023 476.186 82.1391 479.201C81.6755 479.78 80.8061 479.085 80.98 478.244C82.1391 473.723 89.2389 468.796 95.4404 467.608C88.0798 466.883 79.9078 464.883 73.7353 462.275C73.5904 462.217 73.4745 462.217 73.3586 462.217C72.75 462.217 72.6051 462.825 72.692 463.231" fill="white" style="mix-blend-mode:overlay"/>
<path d="M379.023 462.333C372.822 464.97 364.708 466.941 357.318 467.665C363.52 468.854 370.649 473.781 371.808 478.302C372.011 479.143 371.112 479.809 370.649 479.258C368.185 476.244 362.94 471.404 351.667 469.115C343.438 467.434 325.876 473.143 317.878 479.172C317.241 479.664 317.617 480.302 318.342 480.128C334.686 476.998 348.538 481.461 349.436 495.547C349.494 496.329 349.059 496.532 348.828 495.837C342.916 478.795 324.746 480.534 311.88 484.649C311.3 484.823 310.112 485.49 309.532 485.982C305.562 489.113 298.549 497.865 294.608 506.879C294.29 507.633 294.753 508.183 295.275 507.719C302.143 501.778 311.706 497.025 321.356 502.966C321.993 503.343 321.819 503.807 321.124 503.633C305.359 499.546 295.999 509.429 291.015 517.052C290.03 519.631 288.523 528.529 287.769 535.137C287.711 535.688 288.088 536.007 288.581 535.398C297.535 523.66 306.606 525.196 309.764 527.66C310.257 528.065 309.851 528.674 309.388 528.587C306.113 527.949 302.809 527.341 298.81 529.746C288.552 535.891 285.944 544.904 283.973 551.281C283.654 552.353 284.118 552.73 284.871 552.556C288.378 551.744 295.101 549.513 298.694 547.716C299.303 547.397 299.564 547.861 299.1 548.353C295.594 551.918 288.117 554.266 282.263 556.063C281.742 557.077 280.496 559.657 277.453 562.99C276.96 563.569 277.047 564.033 277.859 563.656C283.249 561.048 293.159 557.483 298.926 554.411C304.664 551.339 306.345 545.948 305.504 542.325C305.388 541.745 304.78 541.079 303.882 541.658C300.926 543.716 295.883 544.18 293.101 544.238C291.334 544.238 291.653 543.223 292.609 542.093C300.433 530.442 311.213 533.601 314.488 535.195C319.037 537.398 322.196 536.905 323.239 535.224C324.283 533.572 323.326 530.413 321.472 527.891C318.255 523.428 311.59 518.414 301.882 519.4C300.926 519.487 300.52 518.907 300.897 518.414C301.389 517.661 302.52 516.733 305.244 515.603C309.764 513.719 309.127 516.038 316.313 511.951C323.442 507.835 328.832 512.154 331.672 513.603C334.512 515.052 335.266 512.27 334.831 510.618C330.716 494.532 317.038 495.75 315.357 495.547C313.676 495.315 314.256 494.474 314.98 493.663C320.052 487.287 328.89 488.475 334.483 495.344C336.657 498.097 336.656 496.155 336.946 494.214C337.12 492.909 337.497 491.605 338.772 491.721C341.786 491.953 346.075 499.257 343.872 503.778C341.989 507.546 347.147 507.98 350.508 505.836C364.592 495.431 354.276 480.331 346.22 474.969C345.524 474.505 345.756 473.723 346.48 473.723C357.405 473.578 363.201 477.722 365.664 480.534C367.78 482.91 369.258 484.736 366.939 486.185C365.085 487.316 365.548 487.982 366.07 488.388C369.316 491.025 377.575 489.953 377.372 480.418C377.198 471.752 370.591 469.955 369.431 469.491C368.272 469.057 369.258 468.129 371.112 468.158C376.039 467.955 379.255 466.361 380.067 463.318C380.183 462.941 380.067 462.304 379.429 462.304C379.342 462.304 379.197 462.304 379.081 462.362" fill="white" style="mix-blend-mode:overlay"/>
<path d="M81.9342 331.823C83.9337 341.735 80.4563 350.865 74.3128 351.126C72.719 351.184 72.632 348.169 71.6468 348.024C71.1831 347.967 70.6325 348.43 70.0529 348.923C69.4444 349.445 68.8068 349.966 68.1403 349.792C66.8653 349.503 65.4743 345.59 66.1698 343.561C67.184 340.721 69.0966 341.445 70.4296 342.199C71.4729 342.779 72.1684 343.358 71.6468 342.112C70.0819 337.591 64.7498 338.112 62.1127 339.909C58.8381 342.054 57.708 345.126 58.0557 348.314C58.1137 348.749 57.621 348.575 57.0415 348.372C56.4909 348.198 55.8823 348.024 55.4476 348.372C55.013 349.995 55.5635 353.473 59.5336 357.618C63.098 361.299 67.5318 361.617 70.9513 360.719C72.0814 360.429 71.4439 359.907 70.3137 359.676C65.909 358.864 62.3735 355.879 62.3156 349.966C62.3735 347.764 63.4458 347.996 64.0253 349.271C68.1983 361.067 79.7608 357.357 83.4701 351.85C87.614 345.677 86.0492 336.431 83.0934 331.33C82.7166 330.751 82.4558 330.519 82.282 330.519C81.9632 330.519 81.8473 331.214 81.9922 331.823" fill="white" style="mix-blend-mode:overlay"/>
<path d="M369.694 331.33C366.71 336.431 365.145 345.677 369.289 351.85C373.027 357.386 384.56 361.067 388.733 349.271C389.284 347.996 390.385 347.764 390.443 349.966C390.414 355.879 386.85 358.864 382.416 359.676C381.315 359.907 380.648 360.429 381.808 360.719C385.227 361.617 389.69 361.299 393.196 357.618C397.166 353.473 397.688 349.995 397.282 348.372C396.876 348.024 396.239 348.198 395.688 348.372C395.109 348.575 394.645 348.749 394.703 348.314C395.051 345.126 393.892 342.054 390.617 339.909C387.951 338.112 382.619 337.591 381.083 342.112C380.561 343.358 381.228 342.779 382.3 342.199C383.604 341.474 385.517 340.75 386.56 343.561C387.256 345.561 385.865 349.474 384.589 349.792C383.923 349.937 383.256 349.416 382.648 348.923C382.068 348.43 381.547 347.967 381.083 348.024C380.069 348.169 380.011 351.213 378.417 351.126C372.302 350.865 368.796 341.706 370.796 331.823C370.911 331.214 370.796 330.519 370.506 330.519C370.332 330.519 370.042 330.751 369.694 331.33Z" fill="white" style="mix-blend-mode:overlay"/>
<path d="M52.0869 332.896C46.0303 335.794 41.1619 340.924 37.9742 345.59C37.4236 346.373 37.6554 346.981 38.6117 346.547C41.4806 345.474 43.9438 345.445 45.9434 345.938C46.7258 346.141 46.494 346.807 45.6826 346.923C42.1761 347.474 38.322 349.271 34.4678 352.604C31.0773 355.56 28.4982 370.805 28.4982 381.326C28.4982 383.732 29.5704 382.514 30.034 381.877C33.7143 376.892 36.7281 372.921 42.2341 371.269C43.3063 370.95 43.683 371.675 42.6688 372.37C36.873 376.341 31.1352 382.949 29.5124 388.514C28.3533 392.484 32.9319 408.686 36.5253 417.612C36.931 418.656 37.5975 418.54 37.5975 417.438C37.6265 409.323 40.2925 396.716 48.3486 390.484C50.2612 389.006 50.8408 389.702 49.0731 391.76C42.7267 399.092 39.1044 412.83 40.7272 425.148C40.8141 425.959 41.1039 427.293 41.6835 428.655C43.4802 433.06 49.3049 440.393 56.6075 446.653C57.2741 447.204 58.0565 446.74 57.8247 445.957C54.0864 433.408 54.4631 416.714 68.6627 411.207C70.2855 410.57 70.6912 411.062 69.2133 411.874C51.9999 421.786 59.1287 449.059 63.5625 451.928C66.3444 453.725 74.7483 458.014 80.6889 459.956C81.3554 460.188 82.0799 459.724 81.4713 458.565C77.878 451.261 79.0661 445.146 81.848 440.943C82.2537 440.364 82.6884 440.625 82.5435 441.291C80.6309 448.682 81.4134 457.377 87.7597 461.811C91.527 462.507 97.4096 463.811 106.683 464.622C107.958 464.738 108.248 463.637 107.262 462.738C101.409 457.406 100.597 446.798 98.0762 446.508C95.4101 446.218 94.3089 450.334 93.8163 454.623C93.6714 455.638 92.86 455.261 92.5412 454.797C89.1507 450.334 90.5996 443.233 94.164 440.712C95.9317 439.61 91.8457 436.625 88.4842 439.06C86.6875 440.538 86.021 434.915 88.8899 431.553C89.2666 431.118 89.5274 430.133 88.4262 429.988C83.297 429.35 78.0229 432.567 76.6029 436.944C74.8931 442.798 72.0822 445.726 70.8071 445.726C68.7207 445.726 65.3302 436.567 70.8071 429.031C73.9658 424.684 72.6908 424.684 71.0679 424.713C70.0827 424.713 68.9815 424.713 68.6917 423.699C66.7501 417.091 76.545 410.743 83.9635 413.497C84.5141 413.7 85.6153 413.671 85.4704 412.569C84.688 404.541 79.7036 401.614 74.7193 402.657C72.1112 403.179 66.7791 406.483 65.8518 404.338C65.0114 402.86 69.7639 400.426 67.6774 398.455C66.2864 397.15 60.7225 401.121 58.2014 403.875C55.9121 406.367 51.4493 413.555 49.7975 422.713C49.6237 423.641 48.7543 423.873 48.6094 422.539C48.0588 418.54 48.3776 412.221 50.1163 407.236C51.7681 402.541 56.4337 400.57 57.1871 396.02C57.8826 391.789 58.4042 386.195 63.2147 387.847C64.258 388.195 64.6347 387.296 64.6637 386.949C65.1853 380.167 50.522 377.065 37.5685 389.093C37.1048 389.528 35.4241 389.644 36.0616 387.789C37.3946 382.543 46.407 376.051 48.2907 374.254C56.1439 366.806 55.5353 359.937 51.5363 362.081C44.5814 365.762 37.6265 366.342 36.1775 364.139C34.9315 362.313 36.4963 357.009 41.046 353.155C45.4218 349.445 50.4641 349.967 51.884 348.257C52.8983 347.01 52.7244 344.721 50.9567 343.301C49.4208 342.083 47.856 340.489 50.4061 338.431C54.3762 335.04 59.8242 332.316 66.6052 331.852C67.9383 331.765 68.5178 330.577 66.6342 330.316C65.7938 330.2 64.8665 330.142 63.9102 330.142C60.2879 330.142 55.941 330.954 52.1738 332.751" fill="white" style="mix-blend-mode:overlay"/>
<path d="M386.212 330.461C384.329 330.722 384.908 331.881 386.27 331.997C392.993 332.461 398.499 335.185 402.441 338.576C404.962 340.634 403.397 342.228 401.861 343.445C400.122 344.836 399.919 347.126 400.963 348.401C402.383 350.111 407.425 349.59 411.801 353.299C416.321 357.154 417.886 362.458 416.669 364.284C415.191 366.487 408.265 365.907 401.31 362.226C397.282 360.081 396.674 366.95 404.556 374.399C406.469 376.196 415.452 382.688 416.785 387.934C417.423 389.789 415.771 389.644 415.278 389.238C402.296 377.21 387.661 380.34 388.154 387.093C388.154 387.441 388.56 388.34 389.603 387.992C394.413 386.34 394.935 391.933 395.631 396.165C396.355 400.715 401.021 402.715 402.672 407.381C404.411 412.337 404.73 418.684 404.179 422.684C404.005 424.017 403.136 423.814 402.991 422.858C401.31 413.699 396.848 406.512 394.558 404.019C392.008 401.237 386.473 397.266 385.082 398.599C382.967 400.57 387.748 403.005 386.908 404.483C385.952 406.628 380.62 403.324 378.04 402.802C373.027 401.759 368.043 404.686 367.26 412.714C367.115 413.815 368.217 413.844 368.767 413.641C376.186 410.888 385.952 417.235 384.039 423.843C383.749 424.858 382.648 424.858 381.634 424.858C380.011 424.858 378.736 424.829 381.895 429.176C387.372 436.712 383.981 445.87 381.895 445.87C380.62 445.87 377.838 442.914 376.128 437.088C374.708 432.683 369.434 429.495 364.305 430.133C363.203 430.278 363.435 431.263 363.812 431.698C366.652 435.06 366.014 440.682 364.189 439.204C360.827 436.799 356.77 439.755 358.509 440.856C362.073 443.378 363.522 450.479 360.103 454.942C359.784 455.377 358.943 455.782 358.857 454.768C358.364 450.479 357.292 446.334 354.597 446.653C352.076 446.914 351.293 457.55 345.439 462.883C344.425 463.782 344.715 464.883 345.99 464.767C355.234 463.956 361.146 462.651 364.913 461.956C371.23 457.55 372.013 448.827 370.129 441.436C369.955 440.74 370.419 440.508 370.796 441.088C373.578 445.291 374.766 451.406 371.172 458.71C370.564 459.869 371.317 460.304 371.984 460.101C377.896 458.13 386.299 453.869 389.081 452.073C393.544 449.174 400.644 421.902 383.431 412.018C381.982 411.178 382.358 410.714 383.981 411.352C398.21 416.888 398.557 433.582 394.819 446.102C394.587 446.885 395.399 447.319 396.036 446.798C403.368 440.537 409.164 433.205 410.96 428.799C411.54 427.437 411.83 426.075 411.946 425.293C413.568 412.975 409.917 399.237 403.6 391.904C401.832 389.847 402.412 389.151 404.324 390.629C412.351 396.86 415.017 409.468 415.046 417.583C415.046 418.684 415.742 418.8 416.148 417.757C419.741 408.83 424.291 392.629 423.131 388.658C421.538 383.094 415.8 376.486 409.975 372.515C408.961 371.819 409.338 371.066 410.41 371.414C415.945 373.066 418.958 377.036 422.639 382.021C423.102 382.659 424.175 383.876 424.175 381.471C424.175 370.95 421.596 355.705 418.176 352.749C414.351 349.416 410.468 347.619 406.99 347.068C406.179 346.952 405.947 346.286 406.729 346.083C408.787 345.561 411.221 345.619 414.09 346.691C415.046 347.126 415.278 346.517 414.757 345.735C411.54 341.069 406.7 335.939 400.644 333.04C396.877 331.244 392.53 330.432 388.908 330.432C387.951 330.432 387.024 330.49 386.183 330.606" fill="white" style="mix-blend-mode:overlay"/>
<path d="M41.0457 323.708C37.2785 326.52 35.8585 328.664 33.9459 332.432C32.1203 336.084 31.0191 341.185 29.715 341.069C28.469 340.953 27.8314 335.968 26.4694 335.649C25.1364 335.33 15.5444 348.315 20.239 375.732C20.3839 376.515 19.9492 377.008 19.4855 376.254C17.5729 373.153 14.8779 367.994 14.1245 363.125C13.9216 361.821 13.1972 361.734 12.7915 362.052C8.2418 365.82 2.47502 380.978 18.4423 401.643C18.848 402.165 18.848 403.005 17.8627 403.15C12.3278 403.556 9.63277 408.222 8.09689 412.106C7.51732 413.265 8.38669 414.25 8.96627 414.366C14.0086 415.584 24.0062 418.221 33.4533 430.626C33.888 431.205 33.7141 432.046 32.7288 431.93C30.1497 431.321 27.4547 431.35 25.4262 432.509C24.6438 432.944 24.7017 433.698 25.3103 434.393C30.1208 439.958 37.6552 445.291 43.1902 449.03C48.3484 452.508 54.7527 455.754 62.0263 457.522C63.0696 457.782 63.2724 457.145 62.3741 456.565C57.1289 453.319 52.6952 449.117 50.5508 447.407C49.0439 446.769 39.9156 442.248 36.8728 438.886C36.3802 438.364 36.8148 437.813 37.2495 438.016C40.1184 439.291 42.3208 440.364 44.0885 441.146C44.726 441.436 45.4215 441.523 44.3493 440.074C40.2923 434.828 38.0319 430.597 35.5108 425.959C34.8733 424.829 33.4533 422.829 33.0476 422.395C29.4542 418.685 24.5568 414.801 19.7753 413.526C18.7611 413.265 18.7611 412.28 19.7753 412.222C22.8471 412.048 26.1507 413.787 29.744 416.076C30.9901 416.946 31.5987 416.888 31.0191 415.468C29.3093 410.975 28.1792 406.976 27.4837 404.715C27.1359 403.237 26.0348 401.672 25.5421 401.092C21.9487 396.861 14.2984 386.282 13.8347 378.66C13.7767 377.819 14.4143 377.761 14.6751 378.515C16.8485 384.804 20.7606 390.34 24.1221 394.484C24.7017 395.209 25.629 395.933 25.3972 393.991C23.6005 382.051 23.7164 368.284 26.0927 361.676C26.4115 360.545 26.3245 359.386 26.0058 357.879C25.3682 353.387 24.6148 348.518 25.0784 345.474C25.1944 344.721 25.9478 344.431 26.0637 345.214C26.4115 348.199 26.991 350.836 27.6865 352.691C28.0343 353.532 28.7008 354.43 29.2804 352.865C31.1929 348.836 33.3084 344.721 36.7279 340.518C37.3944 339.707 37.4813 338.489 37.5103 337.91C37.6262 334.896 37.974 331.65 39.5678 329.476C40.2923 328.49 41.1327 328.722 41.0168 329.215C40.669 331.041 40.2633 332.954 40.0894 334.867C40.0025 335.504 40.1764 336.461 41.2776 335.504C42.8424 334.113 44.4362 332.751 46.175 331.679C54.5208 326.607 72.1689 323.592 78.6022 335.33C79.4426 337.388 80.5728 334.345 77.8488 329.766C76.7766 327.969 74.5162 325.766 73.0672 325.331C71.7922 324.955 69.5608 323.708 73.1542 322.723C71.8212 319.622 59.0415 318.984 49.2467 325.592C48.0586 326.404 45.2477 327.795 46.6097 325.476C47.9717 323.158 49.6524 320.665 47.8557 320.201C47.7108 320.172 47.5659 320.143 47.3921 320.143C45.4795 320.143 42.5236 322.578 41.0747 323.65" fill="white" style="mix-blend-mode:overlay"/>
<path d="M404.904 320.259C403.078 320.723 404.759 323.215 406.121 325.534C407.483 327.852 404.672 326.461 403.513 325.65C393.689 319.042 380.938 319.708 379.605 322.781C383.17 323.737 380.938 325.012 379.663 325.389C378.185 325.824 375.954 328.026 374.882 329.823C372.158 334.403 373.259 337.446 374.128 335.388C380.532 323.65 398.181 326.635 406.555 331.736C408.323 332.809 409.888 334.171 411.453 335.562C412.554 336.518 412.699 335.562 412.641 334.924C412.438 333.011 412.061 331.099 411.714 329.273C411.598 328.751 412.438 328.548 413.163 329.533C414.756 331.707 415.075 334.953 415.22 337.967C415.22 338.547 415.365 339.764 416.031 340.576C419.422 344.778 421.566 348.865 423.45 352.923C424.03 354.488 424.696 353.589 425.044 352.749C425.739 350.865 426.319 348.256 426.696 345.271C426.783 344.489 427.536 344.778 427.652 345.532C428.145 348.546 427.362 353.444 426.725 357.937C426.406 359.444 426.319 360.603 426.667 361.733C429.014 368.341 429.13 382.108 427.333 394.049C427.072 395.991 428.029 395.266 428.608 394.542C431.97 390.368 435.882 384.861 438.055 378.572C438.287 377.819 438.925 377.877 438.867 378.717C438.432 386.34 430.753 396.918 427.159 401.15C426.696 401.729 425.594 403.295 425.247 404.773C424.522 407.033 423.421 411.033 421.711 415.525C421.132 416.945 421.74 417.003 422.986 416.134C426.58 413.844 429.854 412.105 432.926 412.279C433.94 412.337 433.94 413.294 432.955 413.583C428.174 414.859 423.247 418.742 419.683 422.452C419.306 422.887 417.857 424.887 417.22 426.017C414.669 430.654 412.467 434.857 408.381 440.132C407.309 441.581 408.004 441.494 408.642 441.204C410.41 440.421 412.612 439.349 415.452 438.074C415.887 437.9 416.321 438.451 415.858 438.943C412.786 442.305 403.658 446.827 402.122 447.464C400.006 449.145 395.572 453.377 390.327 456.623C389.371 457.202 389.603 457.84 390.646 457.579C397.949 455.811 404.324 452.565 409.511 449.087C415.046 445.348 422.61 440.016 427.391 434.451C428 433.755 428.058 433.002 427.275 432.567C425.247 431.408 422.523 431.35 419.973 431.987C418.958 432.103 418.784 431.263 419.219 430.683C428.666 418.25 438.664 415.612 443.735 414.424C444.315 414.279 445.184 413.323 444.604 412.163C443.098 408.28 440.403 403.613 434.868 403.208C433.853 403.063 433.911 402.222 434.288 401.701C450.255 381.036 444.489 365.907 439.939 362.11C439.533 361.762 438.809 361.878 438.606 363.182C437.881 368.052 435.128 373.21 433.245 376.312C432.781 377.065 432.375 376.572 432.491 375.79C437.186 348.372 427.623 335.388 426.261 335.707C424.899 336.026 424.261 341.011 423.015 341.127C421.74 341.242 420.639 336.113 418.813 332.49C416.901 328.722 415.51 326.577 411.714 323.766C410.294 322.694 407.309 320.259 405.396 320.259C405.251 320.259 405.077 320.288 404.933 320.317" fill="white" style="mix-blend-mode:overlay"/>
<path d="M60.6651 217.689C54.9563 223.834 54.3188 232.094 52.7539 232.442C51.4789 232.703 51.4788 231.369 51.5948 230.036C51.6817 228.819 51.8845 227.602 51.218 227.631C43.9154 229.022 41.742 237.311 40.5538 240.847C39.2208 244.209 38.9021 241.977 38.5253 239.745C38.2645 238.093 37.9747 236.441 37.2503 237.079C32.2949 241.397 35.3666 246.382 37.569 249.049C39.8004 251.715 40.9596 254.15 41.3653 259.367C40.1192 256.15 35.1348 250.382 28.4118 252.063C18.2982 254.613 18.8777 265.83 20.9932 263.105C24.3547 258.12 26.76 261.482 28.5277 262.816C26.4702 262.526 25.0212 263.134 24.4996 263.772C24.036 264.323 24.2098 264.873 25.2531 264.786C29.455 264.555 32.4398 266.004 34.0336 267.424C36.0621 269.192 35.9752 270.989 33.599 269.54C15.6032 261.251 11.4882 278.843 11.0535 282.64C10.6768 286.002 12.8502 286.813 13.1689 285.422C15.9509 274.612 29.7448 282.379 25.9775 282.524C19.2255 282.524 17.139 288.929 19.892 288.291C36.9895 286.205 34.2075 300.087 31.3676 305.565C30.9619 306.348 30.3823 306.029 30.4403 305.42C30.817 299.131 26.9049 296.783 24.9053 296.638C22.0364 296.551 26.5861 300.841 25.5429 301.884C24.7894 302.029 23.6882 300.638 22.1813 299.218C20.2397 297.421 17.6606 295.653 14.2991 297.073C10.9955 298.493 10.0392 301.218 10.0682 304C10.0682 305.217 10.7637 305.13 11.2563 304.841C15.4293 302.406 17.6027 307.768 16.3276 311.883C14.7048 317.071 10.6188 320.143 1.05581 320.781C-0.0453777 320.868 -0.393124 321.969 0.534196 321.94C0.534196 321.94 8.21358 321.969 14.2412 321.969C19.5153 321.824 24.8763 310.202 18.559 302.377C18.0663 301.71 18.559 301.479 19.0806 301.71C25.4849 304.725 24.6445 313.304 22.2683 318.202C21.9495 318.868 22.3842 319.216 22.9927 318.781C28.9623 314.492 34.903 307.826 36.4389 298.522C38.1196 288.32 35.5115 281.567 31.4835 277.394C28.7885 274.612 25.8037 273.974 22.2393 274.699C21.6597 274.814 21.4858 274.09 22.0075 273.713C25.0502 271.452 28.4697 271.742 31.4545 273.858C35.1348 276.495 37.1923 280.785 38.7862 286.118C38.931 286.668 39.4237 286.639 39.5106 285.857C39.8584 282.872 40.1771 278.35 40.8436 275.539C40.6987 269.598 38.5833 264.265 36.207 261.077C34.4973 258.787 32.121 257.106 29.484 256.758C28.8754 256.7 28.7885 256.092 29.455 255.918C31.8313 255.222 34.6132 255.889 36.8736 258.149C39.2208 260.468 40.7567 263.105 41.742 266.351C41.9448 266.931 42.4954 267.105 42.7272 266.351C43.7125 263.047 45.799 257.193 47.132 254.295C46.1757 251.02 44.7847 245.107 46.7843 238.644C47.0161 237.832 47.5088 237.919 47.4508 238.731C47.161 243.832 48.0883 247.31 48.9577 250.411C51.0442 246.266 55.0142 241.108 57.5354 237.659C57.4774 228.355 60.4333 222.066 64.954 218.907C65.6784 218.385 66.5188 218.298 66.2001 218.675C63.2732 221.979 61.5345 227.08 60.81 232.355C60.6651 233.427 61.3026 233.543 61.6794 233.195C72.7782 222.588 83.1526 218.008 93.2662 215.458C93.9617 215.284 93.9617 214.617 93.3242 214.501C84.7465 212.704 78.9797 214.994 75.3283 217.313C72.4015 219.168 70.8367 221.023 70.2861 220.733C68.1416 219.284 75.0386 214.849 72.9811 213.661C71.8799 213.11 70.6917 212.733 69.3587 212.733C66.8955 212.733 64.0266 214.009 60.6941 217.632" fill="white" style="mix-blend-mode:overlay"/>
<path d="M381.895 213.718C379.837 214.907 386.734 219.341 384.619 220.79C384.039 221.08 382.474 219.225 379.547 217.37C375.896 215.081 370.158 212.791 361.523 214.559C360.914 214.704 360.914 215.342 361.581 215.515C371.694 218.037 382.04 222.645 393.167 233.253C393.544 233.601 394.211 233.485 394.037 232.412C393.312 227.138 391.545 222.066 388.676 218.733C388.357 218.356 389.197 218.443 389.893 218.964C394.414 222.124 397.369 228.413 397.311 237.716C399.862 241.165 403.803 246.324 405.918 250.469C406.758 247.338 407.715 243.861 407.396 238.789C407.338 237.977 407.831 237.89 408.091 238.702C410.091 245.165 408.7 251.077 407.744 254.352C409.077 257.251 411.134 263.105 412.149 266.409C412.38 267.134 412.96 266.96 413.105 266.409C414.09 263.192 415.626 260.526 417.944 258.207C420.234 255.917 422.987 255.251 425.421 255.975C426.058 256.178 425.971 256.758 425.363 256.816C422.726 257.164 420.35 258.816 418.64 261.134C416.264 264.351 414.177 269.655 414.003 275.597C414.67 278.408 415.017 282.929 415.336 285.914C415.394 286.726 415.887 286.755 416.061 286.175C417.626 280.814 419.683 276.553 423.363 273.916C426.319 271.8 429.768 271.481 432.81 273.771C433.332 274.176 433.158 274.872 432.579 274.756C428.985 274.032 426 274.669 423.305 277.452C419.277 281.596 416.669 288.378 418.379 298.58C419.915 307.883 425.855 314.549 431.854 318.839C432.434 319.274 432.868 318.926 432.55 318.259C430.173 313.332 429.333 304.782 435.737 301.768C436.259 301.536 436.751 301.768 436.259 302.435C429.912 310.26 435.303 321.882 440.606 322.027C446.575 322.027 454.255 321.998 454.255 321.998C455.211 322.027 454.863 320.897 453.733 320.839C444.17 320.201 440.084 317.129 438.461 311.941C437.186 307.796 439.331 302.464 443.532 304.898C444.025 305.188 444.721 305.275 444.721 304.058C444.779 301.275 443.793 298.551 440.519 297.131C437.157 295.711 434.578 297.479 432.637 299.276C431.101 300.696 429.999 302.116 429.275 301.942C428.232 300.899 432.781 296.609 429.884 296.696C427.913 296.841 424.001 299.189 424.349 305.478C424.378 306.086 423.798 306.405 423.421 305.623C420.61 300.145 417.77 286.262 434.897 288.349C437.679 288.987 435.563 282.581 428.782 282.581C425.044 282.437 438.838 274.669 441.62 285.48C441.939 286.871 444.112 286.059 443.706 282.697C443.272 278.901 439.186 261.308 421.19 269.597C418.785 271.017 418.698 269.22 420.726 267.481C422.378 266.061 425.305 264.612 429.507 264.844C430.55 264.931 430.753 264.351 430.26 263.83C429.71 263.192 428.29 262.554 426.232 262.873C428.029 261.54 430.405 258.178 433.796 263.163C435.882 265.887 436.462 254.671 426.348 252.121C419.654 250.44 414.67 256.207 413.395 259.424C413.829 254.236 414.988 251.773 417.22 249.106C419.422 246.469 422.465 241.455 417.51 237.137C416.785 236.499 416.495 238.151 416.235 239.803C415.858 242.035 415.539 244.266 414.206 240.904C413.047 237.368 410.844 229.079 403.513 227.688C402.875 227.659 403.078 228.876 403.165 230.094C403.281 231.427 403.281 232.76 402.035 232.499C400.47 232.181 399.833 223.891 394.124 217.747C390.762 214.153 387.922 212.849 385.459 212.849C384.126 212.849 382.938 213.226 381.866 213.776" fill="white" style="mix-blend-mode:overlay"/>
<path d="M135.228 211.777C129.026 214.385 120.912 216.385 113.494 217.11C119.724 218.327 126.824 223.254 127.983 227.775C128.186 228.616 127.316 229.312 126.824 228.732C124.361 225.718 119.087 220.878 107.872 218.588C99.6128 216.907 82.0516 222.617 74.0535 228.645C73.416 229.138 73.7927 229.775 74.5172 229.601C90.8901 226.5 104.742 230.935 105.64 245.02C105.698 245.803 105.264 246.006 105.032 245.339C99.1201 228.297 80.9794 230.036 68.0549 234.181C67.5043 234.355 66.2872 235.021 65.7076 235.514C61.7375 238.644 54.6957 247.426 50.8125 256.41C50.4648 257.164 50.9285 257.686 51.4791 257.222C58.376 251.28 67.939 246.527 77.5599 252.469C78.1685 252.846 77.9946 253.309 77.3281 253.135C61.5347 249.078 52.2035 258.961 47.1902 266.554C46.2339 269.134 44.727 278.032 43.9446 284.64C43.8866 285.19 44.2633 285.509 44.727 284.9C53.7104 273.162 62.7808 274.699 65.9394 277.162C66.4321 277.568 65.9974 278.176 65.5337 278.09C62.2302 277.452 58.9556 276.843 54.9565 279.249C44.669 285.393 42.061 294.407 40.1194 300.783C39.7717 301.855 40.2353 302.232 41.0177 302.058C44.4952 301.276 51.2182 299.015 54.8406 297.247C55.4781 296.928 55.7389 297.392 55.2463 297.885C51.7399 301.45 44.2633 303.797 38.4096 305.594C37.859 306.609 36.6419 309.159 33.5992 312.521C33.0776 313.072 33.1935 313.535 34.0049 313.159C39.3949 310.55 49.2767 306.985 55.0724 303.884C60.7812 300.841 62.462 295.45 61.6506 291.827C61.5057 291.248 60.8971 290.581 60.0278 291.161C57.072 293.247 52.0296 293.711 49.2477 293.74C47.48 293.74 47.7988 292.697 48.7551 291.595C56.6083 279.973 67.3594 283.104 70.634 284.698C75.1837 286.9 78.3424 286.379 79.3856 284.727C80.4578 283.075 79.5015 279.915 77.6179 277.365C74.4013 272.931 67.7651 267.917 58.0283 268.902C57.072 268.989 56.6952 268.38 57.043 267.917C57.5066 267.192 58.6658 266.265 61.3608 265.134C65.8815 263.25 65.244 265.569 72.4307 261.482C79.5884 257.367 84.9495 261.714 87.7894 263.134C90.6293 264.555 91.3828 261.801 90.9481 260.149C86.8331 244.093 73.1552 245.31 71.4454 245.078C69.7936 244.846 70.3732 244.006 71.0687 243.194C76.1689 236.818 85.0075 238.006 90.5714 244.875C92.7738 247.629 92.7448 245.687 93.0346 243.745C93.2374 242.441 93.6142 241.137 94.8603 241.281C97.874 241.513 102.163 248.817 99.9605 253.338C98.1059 257.106 103.206 257.541 106.626 255.396C120.651 244.991 110.393 229.891 102.308 224.529C101.612 224.066 101.844 223.283 102.569 223.283C113.523 223.167 119.289 227.312 121.753 230.123C123.868 232.529 125.346 234.355 123.057 235.775C121.202 236.934 121.637 237.543 122.187 237.977C125.404 240.615 133.663 239.542 133.489 230.007C133.286 221.312 126.737 219.486 125.549 219.052C124.39 218.617 125.375 217.69 127.23 217.718C132.156 217.516 135.373 215.922 136.213 212.907C136.329 212.502 136.155 211.893 135.546 211.893C135.459 211.893 135.315 211.893 135.17 211.951" fill="white" style="mix-blend-mode:overlay"/>
<path d="M318.606 212.762C319.446 215.777 322.663 217.371 327.589 217.574C329.444 217.545 330.429 218.443 329.27 218.907C328.111 219.342 321.533 221.167 321.33 229.862C321.127 239.398 329.386 240.47 332.632 237.833C333.153 237.398 333.617 236.789 331.762 235.63C329.502 234.21 330.951 232.384 333.066 229.978C335.53 227.167 341.296 223.022 352.25 223.138C352.975 223.138 353.207 223.921 352.482 224.385C344.426 229.746 334.139 244.846 348.164 255.251C351.584 257.396 356.684 256.961 354.829 253.193C352.627 248.701 356.887 241.368 359.93 241.137C361.176 241.021 361.553 242.325 361.755 243.6C362.045 245.542 362.045 247.484 364.219 244.73C369.811 237.862 378.65 236.673 383.721 243.049C384.446 243.861 385.025 244.701 383.345 244.933C381.635 245.165 367.957 243.948 363.842 260.004C363.436 261.656 364.19 264.439 367.001 262.99C369.84 261.54 375.202 257.222 382.359 261.338C389.517 265.453 388.88 263.134 393.429 264.989C396.124 266.12 397.283 267.076 397.776 267.772C398.124 268.264 397.747 268.873 396.791 268.757C387.083 267.772 380.418 272.786 377.201 277.22C375.346 279.8 374.39 282.93 375.433 284.582C376.506 286.234 379.635 286.755 384.214 284.553C387.489 282.959 398.24 279.828 406.064 291.451C407.02 292.581 407.368 293.624 405.571 293.595C402.789 293.595 397.776 293.103 394.82 291.016C393.922 290.436 393.313 291.103 393.197 291.682C392.357 295.305 394.038 300.696 399.776 303.739C405.6 306.84 415.453 310.376 420.872 313.014C421.654 313.39 421.741 312.927 421.249 312.376C418.206 309.014 416.96 306.464 416.438 305.449C410.585 303.652 403.108 301.305 399.602 297.74C399.138 297.247 399.37 296.783 400.007 297.102C403.601 298.87 410.324 301.131 413.801 301.913C414.584 302.087 415.047 301.739 414.729 300.638C412.787 294.262 410.15 285.248 399.891 279.104C395.892 276.727 392.618 277.307 389.285 277.945C388.822 278.061 388.416 277.423 388.908 277.017C392.096 274.525 401.166 272.989 410.121 284.756C410.585 285.364 410.99 285.045 410.903 284.495C410.15 277.916 408.643 269.018 407.687 266.409C402.702 258.816 393.342 248.933 377.549 252.99C376.882 253.164 376.708 252.701 377.317 252.324C386.967 246.382 396.501 251.136 403.398 257.077C403.919 257.541 404.383 257.019 404.064 256.266C400.123 247.252 393.11 238.499 389.14 235.369C388.561 234.905 387.373 234.21 386.793 234.036C373.898 229.891 355.757 228.152 349.816 245.194C349.584 245.89 349.15 245.658 349.208 244.875C350.106 230.79 363.958 226.355 380.302 229.456C381.026 229.601 381.432 228.993 380.765 228.5C372.767 222.501 355.177 216.762 346.947 218.443C335.704 220.733 330.429 225.602 327.995 228.587C327.531 229.167 326.662 228.471 326.865 227.631C328.024 223.138 335.124 218.182 341.325 216.965C333.936 216.24 325.793 214.241 319.62 211.632C319.475 211.603 319.359 211.574 319.244 211.574C318.635 211.574 318.49 212.183 318.577 212.589" fill="white" style="mix-blend-mode:overlay"/>
<path d="M220.163 141.61V134.857C220.163 134.132 220.743 133.523 221.438 133.523H223.553C224.22 133.523 224.8 134.132 224.8 134.857V142.189C224.8 142.914 224.22 143.522 223.553 143.522H221.815C220.771 143.522 220.163 142.305 220.163 141.61Z" fill="white" style="mix-blend-mode:overlay"/>
<path d="M227.93 142.189V134.857C227.93 134.132 228.481 133.523 229.176 133.523H231.292C231.987 133.523 232.538 134.132 232.538 134.857V141.61C232.538 142.334 231.929 143.551 230.857 143.522H229.147C228.452 143.522 227.901 142.914 227.901 142.189" fill="white" style="mix-blend-mode:overlay"/>
<path d="M237.987 130.625H214.746C214.746 130.625 213.529 130.567 213.529 131.437C213.529 133.842 215.76 133.697 217.296 133.697C217.296 135.871 216.833 140.943 218.513 143.638C220.194 146.305 226.396 145.928 226.396 145.928C226.396 145.928 232.597 146.305 234.278 143.638C235.987 140.943 235.495 135.871 235.495 133.697C237.031 133.697 239.291 133.842 239.291 131.437C239.291 130.683 238.364 130.625 238.132 130.625H238.045" fill="white" style="mix-blend-mode:overlay"/>
<path d="M208.224 98.0485H198.197C197.994 98.0485 197.704 98.1645 197.733 98.5122C197.849 101.295 203.819 102.135 203.877 103.178C203.877 116.134 207.412 125.379 215.323 125.524C215.903 125.611 215.584 124.916 215.149 124.568C210.339 120.22 209.122 113.177 209.064 98.889C209.064 98.5992 209.035 98.0485 208.253 98.0485H208.224Z" fill="white" style="mix-blend-mode:overlay"/>
<path d="M244.507 98.0485C243.754 98.0485 243.667 98.5992 243.667 98.889C243.638 113.206 242.421 120.22 237.581 124.568C237.204 124.916 236.828 125.611 237.436 125.524C245.319 125.379 248.883 116.134 248.883 103.178C248.912 102.164 254.91 101.295 255.026 98.5122C255.026 98.1934 254.737 98.0485 254.563 98.0485H244.536H244.507Z" fill="white" style="mix-blend-mode:overlay"/>
<path d="M217.758 98.0485H214.165C213.498 98.0485 213.353 98.4833 213.353 98.6861C213.411 112.714 214.889 124.307 221.004 125.669C221.438 125.727 221.438 125.553 221.207 125.118C219.091 120.916 218.627 111.989 218.627 98.7731C218.627 98.5412 218.57 98.0485 217.787 98.0485H217.758Z" fill="white" style="mix-blend-mode:overlay"/>
<path d="M234.13 98.7731C234.13 111.989 233.637 120.916 231.522 125.118C231.29 125.553 231.319 125.727 231.753 125.669C237.868 124.307 239.346 112.714 239.375 98.6861C239.375 98.4833 239.23 98.0485 238.563 98.0485H234.97C234.188 98.0485 234.13 98.5412 234.13 98.7731Z" fill="white" style="mix-blend-mode:overlay"/>
<path d="M223.118 99.0629C223.118 122.162 223.785 126.075 226.364 126.075C228.943 126.075 229.581 122.162 229.61 99.0629C229.639 98.4253 229.552 98.0485 228.798 98.0485H223.959C223.234 98.0485 223.118 98.4253 223.147 99.0629" fill="white" style="mix-blend-mode:overlay"/>
<path d="M125.896 80.8041C122.94 85.905 121.347 95.1505 125.52 101.324C129.229 106.86 140.791 110.54 144.964 98.7444C145.544 97.4691 146.645 97.2373 146.703 99.44C146.645 105.352 143.081 108.309 138.705 109.149C137.546 109.381 136.908 109.932 138.067 110.193C141.487 111.091 145.921 110.801 149.485 107.091C153.455 102.947 153.977 99.4979 153.542 97.8459C153.107 97.4691 152.499 97.672 151.948 97.8459C151.369 98.0198 150.905 98.2227 150.963 97.7589C151.311 94.5708 150.152 91.4987 146.906 89.325C144.24 87.557 138.908 87.0353 137.343 91.5566C136.85 92.8029 137.517 92.2233 138.56 91.6436C139.893 90.919 141.806 90.1945 142.82 93.0348C143.544 95.0346 142.124 98.9472 140.878 99.2371C140.212 99.382 139.574 98.8603 138.966 98.3676C138.386 97.8749 137.836 97.4112 137.343 97.4691C136.387 97.643 136.3 100.657 134.677 100.57C128.562 100.309 125.085 91.1799 127.084 81.2678C127.2 80.6591 127.084 79.9636 126.795 79.9636C126.592 79.9636 126.331 80.1954 125.983 80.8041" fill="white" style="mix-blend-mode:overlay"/>
<path d="M327.82 81.2678C329.82 91.1799 326.343 100.309 320.228 100.57C318.634 100.628 318.547 97.614 317.562 97.4691C317.098 97.4112 316.548 97.8749 315.968 98.3676C315.36 98.8893 314.722 99.382 314.056 99.2371C312.78 98.9472 311.36 95.0056 312.085 93.0348C313.099 90.1945 315.012 90.919 316.345 91.6436C317.388 92.2233 318.055 92.8029 317.562 91.5566C316.026 87.0643 310.694 87.557 308.028 89.325C304.782 91.4987 303.623 94.5708 303.971 97.7589C304.029 98.1937 303.565 98.0198 302.986 97.8459C302.435 97.672 301.798 97.4691 301.363 97.8459C300.957 99.4689 301.479 102.918 305.449 107.091C309.013 110.801 313.418 111.091 316.866 110.193C318.026 109.932 317.359 109.381 316.229 109.149C311.824 108.338 308.26 105.352 308.231 99.44C308.26 97.2373 309.361 97.4401 309.941 98.7444C314.113 110.54 325.676 106.86 329.385 101.324C333.558 95.1215 331.964 85.905 328.98 80.8041C328.632 80.1954 328.342 79.9636 328.139 79.9636C327.82 79.9636 327.705 80.6591 327.849 81.2678" fill="white" style="mix-blend-mode:overlay"/>
<path d="M142.384 79.9344C140.529 80.1662 141.08 81.3255 142.442 81.4415C149.194 81.9052 154.642 84.6296 158.612 88.0205C161.104 90.1073 159.568 91.7014 158.032 92.9186C156.294 94.3098 156.091 96.6284 157.134 97.8747C158.525 99.5557 163.596 99.063 167.972 102.802C172.522 106.656 174.086 111.931 172.869 113.757C171.391 115.96 164.437 115.409 157.482 111.699C153.483 109.584 152.874 116.424 160.727 123.901C162.64 125.727 171.623 132.19 172.956 137.465C173.594 139.32 171.913 139.175 171.449 138.74C158.467 126.741 143.833 129.843 144.325 136.625C144.354 137.001 144.76 137.871 145.774 137.523C150.585 135.871 151.135 141.465 151.802 145.696C152.526 150.217 157.221 152.246 158.844 156.912C160.611 161.869 160.93 168.245 160.409 172.215C160.206 173.549 159.336 173.317 159.191 172.389C157.54 163.231 153.048 156.072 150.759 153.55C148.237 150.768 142.674 146.798 141.283 148.131C139.167 150.102 143.92 152.507 143.108 154.014C142.181 156.159 136.849 152.826 134.27 152.304C129.285 151.261 124.272 154.188 123.49 162.216C123.345 163.347 124.446 163.347 124.996 163.144C132.415 160.39 142.181 166.767 140.268 173.375C139.979 174.389 138.848 174.36 137.863 174.36C136.24 174.36 134.965 174.331 138.124 178.679C143.601 186.214 140.21 195.373 138.124 195.373C136.878 195.373 134.067 192.416 132.357 186.562C130.937 182.185 125.634 178.939 120.534 179.606C119.433 179.751 119.693 180.736 120.07 181.171C122.91 184.533 122.272 190.156 120.476 188.678C117.114 186.272 113.028 189.257 114.796 190.33C118.389 192.851 119.809 199.952 116.419 204.415C116.1 204.85 115.26 205.227 115.144 204.212C114.68 199.923 113.579 195.778 110.884 196.097C108.392 196.358 107.551 206.995 101.698 212.327C100.712 213.226 101.002 214.327 102.277 214.211C111.55 213.4 117.404 212.096 121.2 211.429C127.518 206.995 128.329 198.271 126.416 190.88C126.272 190.214 126.706 189.953 127.112 190.561C129.894 194.735 131.082 200.85 127.489 208.154C126.851 209.342 127.605 209.777 128.271 209.545C134.212 207.574 142.587 203.314 145.369 201.488C149.831 198.59 156.931 171.317 139.718 161.434C138.24 160.593 138.645 160.101 140.268 160.738C154.497 166.245 154.845 182.968 151.106 195.489C150.875 196.271 151.686 196.735 152.323 196.184C159.655 189.924 165.451 182.591 167.247 178.157C167.827 176.795 168.117 175.432 168.233 174.65C169.827 162.361 166.204 148.594 159.858 141.262C158.09 139.204 158.67 138.508 160.582 139.987C168.638 146.218 171.305 158.825 171.305 166.941C171.305 168.013 171.971 168.158 172.406 167.114C175.999 158.159 180.549 141.957 179.419 138.016C177.796 132.451 172.087 125.843 166.262 121.872C165.248 121.177 165.625 120.423 166.668 120.742C172.203 122.423 175.217 126.394 178.897 131.379C179.361 132.016 180.433 133.234 180.433 130.828C180.433 120.307 177.854 105.062 174.463 102.077C170.609 98.7152 166.755 96.9472 163.248 96.3965C162.437 96.2806 162.234 95.614 162.988 95.4401C165.016 94.9184 167.479 94.9764 170.348 96.0488C171.305 96.4835 171.536 95.8749 171.015 95.0923C167.827 90.4551 162.959 85.2962 156.902 82.3979C153.106 80.601 148.759 79.7894 145.137 79.7894C144.151 79.7894 143.253 79.8474 142.413 79.9633" fill="white" style="mix-blend-mode:overlay"/>
<path d="M297.971 82.3688C291.915 85.2671 287.047 90.397 283.859 95.0633C283.337 95.8458 283.54 96.4544 284.496 96.0197C287.365 94.9473 289.828 94.8894 291.857 95.411C292.61 95.6139 292.437 96.2515 291.596 96.3675C288.061 96.9182 284.236 98.7151 280.381 102.048C276.991 105.004 274.383 120.249 274.412 130.799C274.412 133.205 275.484 131.987 275.948 131.35C279.628 126.394 282.642 122.423 288.177 120.713C289.249 120.394 289.655 121.148 288.611 121.843C282.816 125.814 277.078 132.422 275.455 137.987C274.296 141.957 278.875 158.159 282.468 167.085C282.903 168.129 283.569 167.984 283.569 166.911C283.598 158.796 286.264 146.189 294.32 139.958C296.233 138.479 296.841 139.175 295.045 141.233C288.698 148.565 285.076 162.303 286.67 174.621C286.757 175.403 287.046 176.795 287.655 178.128C289.452 182.533 295.247 189.895 302.579 196.155C303.217 196.706 303.999 196.242 303.767 195.459C300.029 182.91 300.406 166.216 314.605 160.709C316.257 160.072 316.634 160.564 315.156 161.405C297.943 171.288 305.042 198.561 309.505 201.459C312.287 203.285 320.662 207.545 326.631 209.516C327.269 209.719 328.022 209.284 327.414 208.125C323.792 200.821 324.98 194.706 327.791 190.532C328.196 189.953 328.631 190.214 328.457 190.851C326.545 198.242 327.327 206.966 333.644 211.4C337.441 212.067 343.323 213.371 352.596 214.182C353.872 214.298 354.161 213.226 353.147 212.298C347.293 206.995 346.482 196.358 343.961 196.068C341.295 195.778 340.194 199.894 339.73 204.183C339.614 205.198 338.803 204.821 338.455 204.386C335.064 199.894 336.513 192.793 340.078 190.301C341.816 189.199 337.759 186.243 334.398 188.648C332.601 190.127 331.964 184.504 334.803 181.142C335.151 180.707 335.412 179.722 334.311 179.577C329.211 178.91 323.936 182.156 322.516 186.533C320.807 192.358 317.996 195.344 316.721 195.344C314.634 195.344 311.244 186.185 316.721 178.649C319.879 174.302 318.604 174.302 317.011 174.331C315.996 174.331 314.866 174.331 314.605 173.346C312.664 166.738 322.459 160.39 329.877 163.115C330.399 163.318 331.5 163.318 331.355 162.187C330.573 154.159 325.559 151.232 320.575 152.275C317.996 152.797 312.635 156.13 311.736 153.985C310.896 152.507 315.678 150.072 313.562 148.102C312.171 146.797 306.607 150.768 304.086 153.521C301.797 156.043 297.334 163.202 295.682 172.36C295.508 173.288 294.639 173.52 294.465 172.186C293.943 168.187 294.262 161.839 296.001 156.883C297.653 152.188 302.318 150.188 303.072 145.667C303.738 141.436 304.289 135.842 309.099 137.494C310.114 137.842 310.519 136.943 310.548 136.596C311.07 129.814 296.407 126.712 283.453 138.711C282.989 139.146 281.28 139.291 281.946 137.436C283.25 132.19 292.263 125.698 294.175 123.872C302.029 116.424 301.391 109.555 297.392 111.67C290.437 115.38 283.511 115.96 282.033 113.728C280.787 111.902 282.381 106.598 286.931 102.773C291.306 99.0339 296.378 99.5556 297.769 97.8456C298.812 96.5993 298.638 94.2807 296.87 92.8895C295.363 91.6723 293.77 90.0782 296.291 87.9915C300.261 84.6005 305.738 81.8761 312.461 81.4124C313.823 81.3254 314.373 80.1661 312.49 79.9053C311.649 79.7894 310.751 79.7314 309.766 79.7314C306.144 79.7314 301.797 80.5429 298.029 82.3398" fill="white" style="mix-blend-mode:overlay"/>
<path d="M195.965 88.9769V81.6733C195.965 80.9487 196.515 80.3401 197.24 80.3401H199.355C200.051 80.3401 200.601 80.9487 200.601 81.6733V88.9769C200.601 89.7015 200.022 90.3101 199.355 90.3101H197.24C196.515 90.3101 195.965 89.7305 195.965 88.9769Z" fill="white" style="mix-blend-mode:overlay"/>
<path d="M203.907 88.9769V81.6733C203.907 80.9487 204.487 80.3401 205.182 80.3401H207.298C207.993 80.3401 208.573 80.9487 208.573 81.6733V88.9769C208.573 89.7015 207.993 90.3101 207.298 90.3101H205.182C204.487 90.3101 203.907 89.7305 203.907 88.9769Z" fill="white" style="mix-blend-mode:overlay"/>
<path d="M211.819 88.9769V81.6733C211.819 80.9487 212.37 80.3401 213.094 80.3401H215.181C215.876 80.3401 216.427 80.9487 216.427 81.6733V88.9769C216.427 89.7015 215.876 90.3101 215.181 90.3101H213.094C212.37 90.3101 211.819 89.7305 211.819 88.9769Z" fill="white" style="mix-blend-mode:overlay"/>
<path d="M219.759 88.9769V81.6733C219.759 80.9487 220.339 80.3401 221.005 80.3401H223.121C223.816 80.3401 224.396 80.9487 224.396 81.6733V88.9769C224.396 89.7015 223.816 90.3101 223.121 90.3101H221.005C220.31 90.3101 219.759 89.7305 219.759 88.9769Z" fill="white" style="mix-blend-mode:overlay"/>
<path d="M228.335 88.9769V81.6733C228.335 80.9487 228.886 80.3401 229.581 80.3401H231.697C232.392 80.3401 232.943 80.9487 232.943 81.6733V88.9769C232.943 89.7015 232.392 90.3101 231.697 90.3101H229.581C228.886 90.3101 228.335 89.7305 228.335 88.9769Z" fill="white" style="mix-blend-mode:overlay"/>
<path d="M236.275 88.9769V81.6733C236.275 80.9487 236.855 80.3401 237.521 80.3401H239.637C240.332 80.3401 240.912 80.9487 240.912 81.6733V88.9769C240.912 89.7015 240.332 90.3101 239.637 90.3101H237.521C236.826 90.3101 236.275 89.7305 236.275 88.9769Z" fill="white" style="mix-blend-mode:overlay"/>
<path d="M244.187 88.9769V81.6733C244.187 80.9487 244.767 80.3401 245.462 80.3401H247.578C248.302 80.3401 248.824 80.9487 248.824 81.6733V88.9769C248.824 89.7015 248.273 90.3101 247.578 90.3101H245.462C244.767 90.3101 244.187 89.7305 244.187 88.9769Z" fill="white" style="mix-blend-mode:overlay"/>
<path d="M252.128 88.9769V81.6733C252.128 80.9487 252.707 80.3401 253.374 80.3401H255.46C256.185 80.3401 256.735 80.9487 256.735 81.6733V88.9769C256.735 89.7015 256.156 90.3101 255.46 90.3101H253.374C252.678 90.3101 252.128 89.7305 252.128 88.9769Z" fill="white" style="mix-blend-mode:overlay"/>
<path d="M190.143 77.4128C190.143 77.4128 189.302 77.4417 189.302 78.1953C189.36 80.6298 191.534 80.4559 193.07 80.4559C193.302 91.9911 193.446 92.6867 198.721 92.6867H254.041C259.286 92.6867 259.46 91.9621 259.692 80.4559C261.228 80.4559 263.43 80.6009 263.488 78.1953C263.488 77.4417 262.677 77.4128 262.677 77.4128H190.172H190.143Z" fill="white" style="mix-blend-mode:overlay"/>
<path d="M161.106 69.7325C159.281 70.1962 160.961 72.6597 162.352 75.0073C163.714 77.3259 160.904 75.9348 159.715 75.1233C149.921 68.4862 137.141 69.1818 135.808 72.283C139.401 73.2104 137.141 74.4856 135.866 74.8624C134.388 75.2972 132.157 77.5288 131.084 79.2968C128.331 83.876 129.462 86.9192 130.302 84.8904C136.735 73.1524 154.354 76.1377 162.729 81.2386C164.497 82.34 166.062 83.6732 167.627 85.0643C168.728 86.0208 168.902 85.0643 168.815 84.4267C168.612 82.5139 168.235 80.63 167.887 78.7751C167.771 78.2824 168.612 78.0795 169.336 79.0359C170.93 81.2386 171.278 84.4557 171.394 87.4989C171.423 88.0496 171.539 89.2958 172.176 90.1073C175.625 94.2808 177.711 98.3964 179.624 102.454C180.203 104.019 180.87 103.121 181.218 102.251C181.913 100.367 182.493 97.7878 182.84 94.7736C182.927 94.02 183.681 94.2808 183.797 95.0634C184.289 98.0776 183.507 102.976 182.869 107.468C182.551 108.975 182.464 110.134 182.782 111.265C185.13 117.873 185.246 131.64 183.449 143.58C183.217 145.522 184.144 144.798 184.724 144.073C188.086 139.9 191.998 134.393 194.171 128.075C194.432 127.35 195.069 127.379 195.011 128.249C194.577 135.842 186.868 146.421 183.304 150.681C182.811 151.232 181.71 152.797 181.362 154.275C180.667 156.565 179.537 160.564 177.827 165.028C177.248 166.477 177.885 166.506 179.102 165.665C182.695 163.376 185.999 161.637 189.042 161.782C190.085 161.84 190.085 162.825 189.1 163.086C184.289 164.39 179.363 168.274 175.799 171.984C175.393 172.389 173.973 174.418 173.335 175.548C170.814 180.186 168.583 184.388 164.497 189.663C163.454 191.112 164.12 190.996 164.758 190.735C166.525 189.953 168.728 188.852 171.568 187.576C172.002 187.373 172.437 187.953 171.973 188.475C168.931 191.808 159.773 196.329 158.266 196.996C156.122 198.677 151.717 202.879 146.443 206.154C145.516 206.734 145.719 207.371 146.762 207.082C154.065 205.314 160.469 202.097 165.627 198.619C171.162 194.851 178.725 189.547 183.536 184.011C184.115 183.316 184.173 182.562 183.391 182.099C181.362 180.939 178.667 180.881 176.088 181.519C175.103 181.635 174.929 180.794 175.364 180.215C184.84 167.781 194.809 165.144 199.88 163.955C200.459 163.81 201.329 162.825 200.749 161.695C199.213 157.782 196.518 153.116 191.012 152.71C189.998 152.565 190.027 151.725 190.404 151.232C206.371 130.567 200.604 115.409 196.055 111.642C195.649 111.323 194.925 111.439 194.722 112.714C193.968 117.583 191.273 122.742 189.361 125.843C188.926 126.597 188.462 126.104 188.607 125.321C193.302 97.9037 183.71 84.9194 182.377 85.2382C181.015 85.586 180.377 90.5711 179.131 90.658C177.856 90.7739 176.755 85.644 174.9 82.0211C173.017 78.2534 171.597 76.1087 167.829 73.2973C166.409 72.225 163.425 69.8194 161.541 69.8194C161.396 69.8194 161.222 69.8194 161.077 69.8774" fill="white" style="mix-blend-mode:overlay"/>
<path d="M286.96 73.1524C283.164 75.9637 281.773 78.1085 279.889 81.8762C278.064 85.4991 276.933 90.629 275.658 90.5131C274.412 90.3971 273.775 85.4121 272.413 85.0933C271.08 84.7745 261.488 97.7587 266.182 125.176C266.327 125.959 265.893 126.452 265.429 125.698C263.516 122.597 260.792 117.438 260.068 112.569C259.865 111.294 259.141 111.178 258.735 111.497C254.185 115.264 248.389 130.422 264.386 151.087C264.791 151.609 264.791 152.42 263.806 152.565C258.3 152.971 255.576 157.637 254.069 161.55C253.49 162.68 254.359 163.665 254.939 163.81C259.981 164.999 269.979 167.636 279.455 180.07C279.889 180.649 279.686 181.461 278.701 181.374C276.122 180.736 273.427 180.794 271.399 181.954C270.616 182.388 270.674 183.142 271.283 183.866C276.064 189.402 283.628 194.735 289.162 198.474C294.321 201.981 300.696 205.169 308.028 206.937C309.071 207.227 309.274 206.56 308.346 206.009C303.13 202.734 298.696 198.532 296.523 196.851C295.016 196.213 285.888 191.692 282.816 188.33C282.323 187.808 282.787 187.257 283.193 187.431C286.062 188.707 288.264 189.779 290.003 190.59C290.669 190.88 291.336 190.967 290.293 189.518C286.207 184.272 283.975 180.041 281.454 175.403C280.788 174.273 279.397 172.244 278.991 171.839C275.427 168.129 270.5 164.245 265.69 162.941C264.704 162.68 264.704 161.724 265.719 161.637C268.79 161.463 272.094 163.231 275.687 165.52C276.904 166.39 277.542 166.332 276.962 164.883C275.282 160.419 274.122 156.42 273.427 154.13C273.079 152.652 271.949 151.087 271.485 150.536C267.892 146.305 260.242 135.726 259.778 128.104C259.749 127.234 260.358 127.205 260.618 127.93C262.821 134.248 266.704 139.755 270.065 143.928C270.645 144.653 271.601 145.348 271.341 143.436C269.544 131.495 269.66 117.728 272.007 111.12C272.326 109.989 272.239 108.859 271.949 107.323C271.312 102.831 270.529 97.9326 271.022 94.9184C271.138 94.1359 271.891 93.8751 271.978 94.6286C272.326 97.6428 272.963 100.222 273.63 102.106C273.978 102.976 274.644 103.874 275.224 102.309C277.107 98.2515 279.194 94.1359 282.642 89.9624C283.309 89.1509 283.396 87.9046 283.425 87.3539C283.541 84.3397 283.888 81.0937 285.482 78.891C286.207 77.9346 287.018 78.1374 286.931 78.6301C286.554 80.485 286.178 82.3689 285.975 84.2818C285.888 84.9194 286.091 85.8758 287.163 84.9194C288.699 83.5282 290.293 82.166 292.031 81.0937C300.377 75.9927 318.025 73.0075 324.459 84.7455C325.299 86.8033 326.429 83.7601 323.705 79.1518C322.633 77.3839 320.402 75.1522 318.924 74.7175C317.649 74.3407 315.417 73.0944 319.011 72.138C317.678 69.0369 304.898 68.3703 295.103 74.9783C293.915 75.7898 291.104 77.181 292.466 74.8624C293.828 72.5148 295.538 70.0513 293.683 69.5875C293.538 69.5296 293.393 69.5296 293.219 69.5296C291.307 69.5296 288.322 71.9641 286.902 73.0075" fill="white" style="mix-blend-mode:overlay"/>
<path d="M225.381 0.521689C222.483 3.91267 221.932 6.5501 221.758 8.95566C221.44 13.1582 223.381 19.2156 222.396 19.5923C221.527 19.9111 218.049 14.9551 216.455 11.825C216.079 11.1294 215.528 11.6221 215.267 12.2017C213.442 16.3752 211.674 25.5918 218.803 33.2722C220.136 34.8952 223.091 36.7501 222.164 37.6196C221.266 38.5181 217.759 35.185 214.108 33.7939C210.457 32.3737 203.415 30.5478 202.314 33.2142C201.184 35.8806 206.661 41.0975 209.935 43.7929C213.673 46.8361 220.657 53.3282 218.571 53.3282C211.906 50.1111 206.487 52.1399 204.748 55.8497C202.98 59.5305 204.893 63.0664 206.632 64.5156C206.892 64.7184 207.008 64.3996 207.095 64.1388C207.646 62.3419 209.964 60.6609 212.601 60.9797C215.47 61.3275 218.861 65.385 219.208 70.457C219.237 70.7179 219.44 71.1816 220.107 71.2685H223.352C224.164 71.2396 224.222 70.8338 224.222 70.6019C224.309 64.6315 219.411 53.5891 208.283 58.0814C207.675 58.1683 207.936 57.6467 208.283 57.2699C211.645 53.705 218.861 54.1108 223.642 61.2115C223.845 61.4724 224.251 61.5883 224.193 60.9217V52.6616C221.585 46.8071 214.398 40.286 208.892 37.3008C208.08 36.895 208.689 36.4023 209.385 36.4603C214.282 36.953 221.121 43.4451 223.816 46.6622C224.048 46.923 224.425 47.039 224.425 46.3434C224.425 42.8075 224.511 35.4169 224.598 33.62C221.034 29.4754 217.035 24.6933 216.919 19.6793C216.919 19.2156 217.238 18.9547 217.586 19.5633C219.121 22.7514 221.816 26.7221 224.048 29.0407C224.309 29.3015 224.772 29.4754 224.772 28.8958C224.859 25.0411 225.265 19.8532 225.7 15.2739C225.844 14.0276 226.076 13.0422 226.308 12.9553C226.569 13.0422 226.772 14.0276 226.917 15.2739C227.38 19.8532 227.757 25.0411 227.873 28.8958C227.873 29.4754 228.366 29.3015 228.626 29.0407C230.858 26.7511 233.524 22.7514 235.06 19.5633C235.379 18.9547 235.726 19.2156 235.697 19.6793C235.581 24.7223 231.582 29.5044 228.047 33.62C228.105 35.3879 228.221 42.7785 228.192 46.3434C228.221 47.039 228.597 46.952 228.8 46.6622C231.495 43.4741 238.334 36.982 243.261 36.4603C243.927 36.3733 244.565 36.895 243.753 37.3008C238.247 40.286 231.061 46.8071 228.453 52.6616V60.9217C228.366 61.5883 228.8 61.5014 229.003 61.2115C233.785 54.1108 241 53.705 244.391 57.2699C244.768 57.6467 245.028 58.1683 244.391 58.0814C233.263 53.5891 228.366 64.6315 228.453 70.6019C228.453 70.8338 228.511 71.2106 229.293 71.2685H232.539C233.234 71.1816 233.408 70.7468 233.408 70.457C233.785 65.3561 237.175 61.3275 240.015 60.9797C242.681 60.6609 244.999 62.3419 245.521 64.1388C245.608 64.3706 245.724 64.6895 245.956 64.5156C247.694 63.0664 249.636 59.5305 247.868 55.8497C246.13 52.1399 240.682 50.1111 234.045 53.3282C231.93 53.3282 238.972 46.8361 242.681 43.7929C245.985 41.0975 251.462 35.8806 250.332 33.2142C249.201 30.5478 242.189 32.4027 238.537 33.7939C234.886 35.185 231.379 38.5181 230.452 37.6196C229.554 36.7501 232.51 34.8952 233.843 33.2722C240.942 25.5628 239.175 16.3752 237.378 12.2017C237.146 11.6511 236.596 11.1584 236.19 11.825C234.625 14.9551 231.148 19.9111 230.278 19.5923C229.293 19.2156 231.235 13.1582 230.916 8.95566C230.742 6.5501 230.22 3.91267 227.293 0.521689C227.033 0.202879 226.743 0.0289827 226.308 0C225.902 0 225.613 0.202879 225.323 0.521689" fill="white" style="mix-blend-mode:overlay"/>
</svg>
