<svg width="247" height="82" viewBox="0 0 247 82" fill="none" xmlns="http://www.w3.org/2000/svg">
<g id="Group 427319236">
<path id="Vector" d="M4.34596 30.651H0L12.8495 7.03503L25.625 30.651H21.2252V30.4248C21.4136 30.4248 21.5683 30.3796 21.676 30.2967C21.7836 30.2137 21.8374 30.1006 21.8374 29.9573C21.8374 29.8593 21.824 29.7764 21.8038 29.6934C21.7836 29.618 21.75 29.5502 21.7231 29.5125L17.3973 21.5424H11.1475C10.8514 21.5424 10.6563 21.5424 10.5622 21.5651C10.468 21.5801 10.4007 21.6178 10.3603 21.6706L9.94323 22.0552L9.80196 21.927L11.6184 18.4132H15.6683L12.8428 13.1954L3.82794 29.4974C3.79431 29.5577 3.76067 29.6331 3.74049 29.716C3.7203 29.7914 3.71358 29.8819 3.71358 29.9649C3.71358 30.1081 3.7674 30.2137 3.87504 30.3042C3.98268 30.3871 4.13741 30.4324 4.33251 30.4324V30.6586L4.34596 30.651Z" fill="black"/>
<path id="Vector_2" d="M31.2021 27.5143H43.9103C44.0314 27.5143 44.1458 27.4916 44.24 27.4539C44.3342 27.4087 44.4418 27.3333 44.5562 27.2277L45.1145 26.6999L45.2625 26.8206L43.4394 30.651H25.625L38.3063 10.9408H27.7173C27.5894 10.9408 27.4818 10.971 27.3809 11.0162C27.28 11.069 27.1723 11.1444 27.058 11.25L26.513 11.7627L26.3583 11.6345L28.1747 7.82672H43.9103L31.2021 27.5218V27.5143Z" fill="black"/>
<path id="Vector_3" d="M62.438 24.5283V8.99545C62.4245 8.88234 62.4111 8.77678 62.3775 8.70138C62.3505 8.62598 62.2967 8.53549 62.216 8.45255L61.8729 8.05292V7.82672H65.9767V8.05292L65.6336 8.45255C65.5596 8.52795 65.5057 8.6109 65.4721 8.69384C65.4452 8.78433 65.425 8.88235 65.4116 9.003V25.5613C65.4116 27.3861 64.6984 28.7508 63.2789 29.6708C61.8527 30.5907 59.7201 31.0506 56.8744 31.0506C54.0286 31.0506 51.9027 30.5907 50.4698 29.6708C49.0368 28.7508 48.3304 27.3785 48.3304 25.5613V9.003C48.3304 8.88989 48.317 8.78433 48.2901 8.70893C48.2632 8.63352 48.2026 8.54304 48.1286 8.4601L47.7855 8.06047V7.83426H51.8893V8.06047L51.5462 8.4601C51.4655 8.5355 51.4116 8.61844 51.3847 8.70893C51.3511 8.79941 51.3309 8.89743 51.3309 9.003V24.5359C51.3309 25.8177 51.7278 26.715 52.5217 27.2277C53.3155 27.7329 54.7552 27.9893 56.8475 27.9893C58.9397 27.9893 60.4399 27.7405 61.2405 27.2353C62.0343 26.7301 62.438 25.8328 62.438 24.5434" fill="black"/>
<path id="Vector_4" d="M81.7454 7.81927C83.1245 7.81927 84.2951 8.26415 85.2639 9.1539C86.2326 10.0436 86.8448 11.235 87.087 12.7204L81.9607 16.958C84.4364 17.3878 86.3941 18.7074 87.8472 20.9242C89.3004 23.141 90.0269 25.9309 90.0269 29.2938V30.6436H86.4748V30.4174L86.8583 30.0177C86.9256 29.9423 86.9727 29.8518 87.0063 29.7613C87.0399 29.6633 87.0601 29.5502 87.0601 29.422V28.6982C87.0601 26.0139 86.3268 23.7895 84.8468 22.0326C83.3667 20.2757 81.5032 19.4011 79.2495 19.4011C78.9602 19.4011 78.6575 19.4161 78.3346 19.4388C78.0116 19.4614 77.6551 19.5066 77.2851 19.5594L82.7209 14.7865C83.1178 14.4245 83.4004 14.1078 83.5484 13.8439C83.7031 13.58 83.7771 13.2935 83.7771 12.9693C83.7771 12.3283 83.5349 11.8231 83.0438 11.4537C82.5594 11.0842 81.8732 10.9032 81.0054 10.9032H73.8675V29.4296C73.8675 29.5578 73.881 29.6709 73.9213 29.7689C73.955 29.8594 74.0088 29.9499 74.0895 30.0253L74.4326 30.4249V30.6511H70.3356V30.4249L70.6787 30.0253C70.7459 29.9499 70.793 29.8594 70.8267 29.7689C70.8603 29.6709 70.8805 29.5578 70.8805 29.4296V8.99555C70.8805 8.88245 70.867 8.77688 70.8401 8.70148C70.8132 8.62608 70.7594 8.53559 70.6854 8.45265L70.3423 8.05302V7.82682H81.7521L81.7454 7.81927Z" fill="black"/>
<path id="Vector_5" d="M94.4003 30.651H90.061L102.917 7.03503L115.686 30.651H111.286V30.4248C111.481 30.4248 111.629 30.3796 111.737 30.2967C111.845 30.2137 111.898 30.1006 111.898 29.9573C111.898 29.8593 111.885 29.7764 111.865 29.6934C111.845 29.618 111.811 29.5502 111.784 29.5125L107.452 21.5424H101.202C100.906 21.5424 100.711 21.5424 100.616 21.5651C100.522 21.5801 100.455 21.6178 100.415 21.6706L99.9975 22.0552L99.8563 21.927L101.679 18.4132H105.736L102.911 13.1954L93.8957 29.4974C93.8553 29.5577 93.8284 29.6331 93.8083 29.716C93.7881 29.7914 93.7813 29.8819 93.7813 29.9649C93.7813 30.1081 93.8352 30.2137 93.9428 30.3042C94.0504 30.3871 94.1984 30.4324 94.3935 30.4324V30.6586L94.4003 30.651Z" fill="black"/>
<path id="Vector_6" d="M134.354 10.9031H128.037V27.5143H134.253C135.579 27.5143 136.621 27.4011 137.375 27.1674C138.122 26.9336 138.808 26.5491 139.434 25.9987C140.322 25.2296 140.988 24.2719 141.432 23.1409C141.876 22.0099 142.098 20.6979 142.098 19.22C142.098 17.8703 141.876 16.6111 141.432 15.4348C140.988 14.2661 140.362 13.2783 139.548 12.4866C138.99 11.9361 138.297 11.5365 137.456 11.2801C136.621 11.0238 135.585 10.8956 134.354 10.8956M124.492 30.651V30.4248L124.869 30.0251C124.936 29.9497 124.99 29.8593 125.017 29.7688C125.05 29.6708 125.07 29.5576 125.07 29.4295V8.99545C125.07 8.88234 125.057 8.77678 125.03 8.70138C124.996 8.62598 124.949 8.53549 124.869 8.45255L124.492 8.05292V7.82672H134.354C135.962 7.82672 137.335 8.01522 138.478 8.38469C139.622 8.75416 140.624 9.33476 141.479 10.1265C142.69 11.25 143.618 12.6223 144.257 14.2435C144.89 15.8646 145.206 17.6366 145.206 19.5744C145.206 21.369 144.91 23.0052 144.324 24.4755C143.739 25.9459 142.871 27.1976 141.721 28.2532C140.766 29.1203 139.756 29.7386 138.687 30.1081C137.617 30.4776 136.144 30.6585 134.26 30.6585H124.499L124.492 30.651Z" fill="black"/>
<path id="Vector_7" d="M151.247 19.6951L152.478 16.5583H166.512L164.635 20.5094H164.467L164.494 20.1852V20.1173C164.494 19.9891 164.447 19.8836 164.359 19.8082C164.272 19.7252 164.144 19.6875 163.996 19.6875H151.254L151.247 19.6951ZM158.244 10.9032C157.033 10.9032 156.024 11.0238 155.216 11.2726C154.416 11.5215 153.736 11.8985 153.178 12.4112C152.297 13.2482 151.637 14.2435 151.187 15.3896C150.736 16.5433 150.514 17.8176 150.514 19.22C150.514 20.713 150.736 22.0175 151.173 23.1485C151.611 24.2795 152.27 25.2296 153.151 25.9987C153.77 26.5491 154.463 26.9337 155.223 27.1674C155.983 27.3936 157.026 27.5143 158.358 27.5143H167.185C167.312 27.5143 167.42 27.4917 167.514 27.454C167.608 27.4087 167.716 27.3333 167.83 27.2278L168.389 26.6999H168.631L166.707 30.651H158.351C156.421 30.651 154.927 30.4625 153.857 30.1006C152.788 29.7311 151.792 29.1053 150.857 28.2457C149.713 27.1901 148.846 25.9308 148.253 24.4605C147.661 22.9901 147.372 21.3464 147.372 19.5443C147.372 18.1418 147.54 16.8222 147.883 15.5932C148.22 14.3641 148.724 13.2331 149.397 12.2076C149.861 11.4913 150.4 10.8504 151.005 10.2773C151.604 9.71181 152.263 9.22169 152.983 8.81452C153.615 8.46013 154.295 8.2113 155.021 8.0605C155.748 7.90969 156.824 7.83429 158.244 7.83429H168.362L166.451 11.7401H166.31L166.337 11.4536V11.3857C166.337 11.25 166.29 11.1369 166.196 11.0464C166.102 10.9635 165.98 10.9182 165.839 10.9182H158.244V10.9032Z" fill="black"/>
<path id="Vector_8" d="M171.759 29.4295V8.99545C171.759 8.88234 171.746 8.77678 171.719 8.70138C171.692 8.62598 171.638 8.53549 171.564 8.45255L171.221 8.05292V7.82672H175.318V8.05292L174.975 8.45255C174.901 8.52795 174.841 8.6109 174.814 8.70138C174.78 8.79186 174.76 8.88988 174.76 8.99545V27.5143H182.2C182.308 27.5143 182.402 27.4992 182.49 27.4615C182.584 27.4238 182.692 27.3484 182.813 27.2277L183.358 26.6999L183.546 26.8206L181.696 30.651H171.221V30.4248L171.564 30.0252C171.625 29.9497 171.679 29.8593 171.712 29.7688C171.746 29.6708 171.759 29.5576 171.759 29.4295Z" fill="black"/>
<path id="Vector_9" d="M199.632 24.5283V8.99545C199.625 8.88234 199.605 8.77678 199.578 8.70138C199.544 8.62598 199.497 8.53549 199.416 8.45255L199.073 8.05292V7.82672H203.17V8.05292L202.827 8.45255C202.746 8.52795 202.699 8.6109 202.666 8.69384C202.639 8.78433 202.612 8.88235 202.605 9.003V25.5613C202.605 27.3861 201.892 28.7508 200.473 29.6708C199.053 30.5907 196.914 31.0506 194.068 31.0506C191.222 31.0506 189.096 30.5907 187.67 29.6708C186.244 28.7508 185.531 27.3785 185.531 25.5613V9.003C185.531 8.88989 185.517 8.78433 185.49 8.70893C185.463 8.63352 185.41 8.54304 185.329 8.4601L184.986 8.06047V7.83426H189.083V8.06047L188.74 8.4601C188.666 8.5355 188.612 8.61844 188.578 8.70893C188.545 8.79941 188.531 8.89743 188.531 9.003V24.5359C188.531 25.8177 188.928 26.715 189.722 27.2277C190.516 27.7329 191.956 27.9893 194.048 27.9893C196.14 27.9893 197.64 27.7405 198.441 27.2353C199.235 26.7301 199.632 25.8328 199.632 24.5434" fill="black"/>
<path id="Vector_10" d="M214.95 15.9778L218.906 9.79482C219.061 9.56108 219.162 9.37256 219.216 9.24438C219.269 9.10865 219.29 8.97293 219.29 8.83721C219.29 8.74673 219.276 8.66378 219.236 8.56576C219.202 8.46774 219.162 8.39233 219.121 8.33955L218.852 8.05302V7.82682H223.669L216.531 18.3831L225.102 30.6511H220.11V30.4249L220.386 30.1157C220.433 30.063 220.474 29.9876 220.507 29.8895C220.541 29.7915 220.554 29.7086 220.554 29.6332C220.554 29.4899 220.527 29.3466 220.467 29.2034C220.406 29.0601 220.305 28.8791 220.164 28.668L214.762 20.6678L209.636 28.668C209.494 28.9168 209.387 29.1053 209.333 29.2486C209.272 29.3843 209.245 29.5125 209.245 29.6332C209.245 29.7312 209.259 29.8141 209.299 29.8971C209.333 29.9725 209.373 30.0479 209.434 30.1082L209.723 30.4174V30.6436H204.879L213.161 18.3756L205.767 7.81927H210.752V8.04548L210.483 8.33202C210.409 8.41496 210.355 8.4979 210.322 8.5733C210.295 8.6487 210.281 8.72411 210.281 8.79197C210.281 8.93524 210.315 9.09358 210.382 9.27455C210.45 9.45551 210.551 9.62893 210.672 9.78728L214.957 15.9703L214.95 15.9778Z" fill="black"/>
<path id="Vector_11" d="M229.602 19.6951L230.833 16.5583H244.867L242.99 20.5094H242.815L242.849 20.1852V20.1173C242.849 19.9891 242.802 19.8836 242.714 19.8082C242.627 19.7252 242.499 19.6875 242.351 19.6875H229.609L229.602 19.6951ZM236.599 10.9032C235.381 10.9032 234.372 11.0238 233.572 11.2726C232.771 11.5215 232.091 11.8985 231.54 12.4112C230.659 13.2482 229.999 14.2435 229.548 15.3896C229.098 16.5433 228.869 17.8176 228.869 19.22C228.869 20.713 229.091 22.0175 229.528 23.1485C229.972 24.2795 230.632 25.2296 231.506 25.9987C232.125 26.5491 232.818 26.9337 233.578 27.1674C234.338 27.3936 235.381 27.5143 236.713 27.5143H245.54C245.661 27.5143 245.775 27.4917 245.869 27.454C245.97 27.4087 246.071 27.3333 246.186 27.2278L246.744 26.6999H246.986L245.069 30.651H236.713C234.782 30.651 233.282 30.4625 232.219 30.1006C231.156 29.7311 230.154 29.1053 229.219 28.2457C228.075 27.1901 227.207 25.9308 226.622 24.4605C226.03 22.9901 225.741 21.3464 225.741 19.5443C225.741 18.1418 225.909 16.8222 226.252 15.5932C226.595 14.3641 227.093 13.2331 227.766 12.2076C228.237 11.4913 228.768 10.8504 229.367 10.2773C229.972 9.71181 230.632 9.22169 231.345 8.81452C231.97 8.46013 232.65 8.2113 233.376 8.0605C234.103 7.90969 235.179 7.83429 236.606 7.83429H246.724L244.82 11.7401H244.672L244.699 11.4536V11.3857C244.699 11.25 244.652 11.1369 244.558 11.0464C244.463 10.9635 244.342 10.9182 244.201 10.9182H236.606L236.599 10.9032Z" fill="black"/>
<path id="Vector_12" d="M243.744 2.96331H244.047C244.397 2.96331 244.686 2.82758 244.686 2.50335C244.686 2.22436 244.497 2.02832 244.094 2.02832C243.926 2.02832 243.804 2.05095 243.737 2.06603V2.95577L243.744 2.96331ZM243.724 4.72773H243.085V1.62869C243.34 1.56837 243.69 1.53067 244.148 1.53067C244.672 1.53067 244.908 1.62869 245.11 1.75688C245.258 1.8926 245.379 2.13389 245.379 2.44304C245.379 2.78235 245.143 3.04625 244.8 3.16689V3.2046C245.069 3.3177 245.224 3.54391 245.311 3.95862C245.392 4.43366 245.446 4.62216 245.513 4.73526H244.82C244.74 4.62216 244.686 4.33563 244.605 3.98124C244.558 3.64193 244.383 3.49113 244.033 3.49113H243.724V4.7428V4.72773ZM242.022 3.09904C242.022 4.48644 242.93 5.57977 244.181 5.57977C245.433 5.57977 246.294 4.48644 246.294 3.12166C246.294 1.75687 245.399 0.625841 244.168 0.625841C242.937 0.625841 242.022 1.74179 242.022 3.09904ZM247 3.09904C247 4.85591 245.769 6.24331 244.168 6.24331C242.567 6.24331 241.309 4.85591 241.309 3.09904C241.309 1.34216 242.58 0 244.168 0C245.755 0 247 1.37986 247 3.09904Z" fill="black"/>
<path id="Vector_13" fill-rule="evenodd" clip-rule="evenodd" d="M152.505 65.1325L154.376 71.5794H160.417L155.533 75.5531L157.403 82L152.512 78.0188L147.628 82L149.492 75.5531L144.607 71.5794H150.649L152.512 65.1325H152.505ZM123.497 65.1325L125.367 71.5794H131.408L126.524 75.5531L128.387 82L123.497 78.0188L118.612 82L120.476 75.5531L115.592 71.5794H121.633L123.497 65.1325ZM94.4876 65.1325L96.3578 71.5794H102.399L97.5082 75.5531L99.3718 82L94.4809 78.0188L89.5967 82L91.4602 75.5531L86.5693 71.5794H92.6174L94.4809 65.1325H94.4876ZM181.521 65.1325L183.391 71.5794H189.433L184.542 75.5531L186.412 82L181.521 78.0188L176.63 82L178.494 75.5531L173.61 71.5794H179.651L181.521 65.1325ZM65.4787 65.1325L67.3489 71.5794H73.3902L68.506 75.5531L70.3695 82L65.4787 78.0188L60.5945 82L62.458 75.5531L57.5739 71.5794H63.6219L65.4854 65.1325H65.4787Z" fill="black"/>
<path id="Vector_14" fill-rule="evenodd" clip-rule="evenodd" d="M1.41943 40.2573C1.41943 39.7068 56.0736 39.262 123.496 39.262C190.919 39.262 245.574 39.7068 245.574 40.2573C245.574 40.8077 190.919 41.2526 123.496 41.2526C56.0736 41.2526 1.41943 40.8077 1.41943 40.2573Z" fill="black"/>
<path id="Vector_15" d="M84.8537 61.4227V47.7598C84.8537 47.6844 84.847 47.6166 84.8268 47.5638C84.8066 47.511 84.773 47.4582 84.7191 47.3979L84.4702 47.1264V46.9756H87.2285V47.1264L86.9796 47.3979C86.9257 47.4507 86.8921 47.5035 86.8719 47.5638C86.8518 47.6241 86.8383 47.692 86.8383 47.7598V61.4227C86.8383 61.5057 86.8518 61.5811 86.8719 61.6489C86.8921 61.7093 86.9325 61.7696 86.9796 61.8224L87.2285 62.0938V62.2446H84.4702V62.0938L84.7191 61.8224C84.7662 61.7696 84.7999 61.7168 84.82 61.6489C84.8402 61.5811 84.8537 61.5057 84.8537 61.4227ZM94.4 61.4227V54.7873H87.9618C87.8878 54.7873 87.8205 54.8024 87.76 54.825C87.6994 54.8477 87.6321 54.9004 87.5514 54.9834L87.1747 55.3378L87.0603 55.2699L88.278 52.6911H94.4V47.7598C94.4 47.692 94.3865 47.6241 94.3664 47.5638C94.3462 47.5035 94.3058 47.4507 94.2587 47.3979L94.0098 47.1264V46.9756H96.7815V47.1264L96.5259 47.3979C96.4788 47.4431 96.4519 47.4884 96.4317 47.5487C96.4182 47.609 96.4048 47.6769 96.4048 47.7674V61.4303C96.4048 61.5283 96.4115 61.6112 96.4317 61.6716C96.4519 61.7319 96.4788 61.7846 96.5192 61.8299L96.7748 62.1013V62.2522H94.0031V62.1013L94.252 61.8299C94.3058 61.7771 94.3394 61.7243 94.3596 61.6565C94.3798 61.5886 94.3933 61.5132 94.3933 61.4303L94.4 61.4227Z" fill="black"/>
<path id="Vector_16" d="M106.557 46.7042C107.586 46.7042 108.541 46.8701 109.429 47.1943C110.311 47.5185 111.071 47.986 111.703 48.5968C112.531 49.381 113.15 50.2858 113.567 51.2962C113.984 52.3066 114.192 53.4074 114.192 54.5988C114.192 55.7901 113.984 56.8759 113.56 57.8939C113.136 58.9043 112.517 59.8015 111.703 60.5857C111.064 61.2116 110.304 61.6866 109.416 62.0108C108.528 62.3426 107.579 62.5085 106.557 62.5085C105.534 62.5085 104.592 62.3426 103.704 62.0108C102.816 61.6791 102.056 61.204 101.417 60.5857C100.596 59.8091 99.9704 58.9193 99.5533 57.909C99.1362 56.8986 98.9276 55.7977 98.9276 54.5988C98.9276 53.3999 99.1362 52.3216 99.56 51.3037C99.9838 50.2858 100.603 49.3885 101.417 48.5968C102.049 47.986 102.809 47.5185 103.691 47.1943C104.572 46.8701 105.527 46.7042 106.55 46.7042H106.557ZM106.557 48.7551C104.929 48.7551 103.596 49.298 102.574 50.3913C101.545 51.4847 101.033 52.8872 101.033 54.5988C101.033 56.3104 101.545 57.7204 102.574 58.8138C103.603 59.9071 104.929 60.45 106.557 60.45C108.185 60.45 109.517 59.9071 110.546 58.8138C111.575 57.7204 112.093 56.318 112.093 54.5988C112.093 52.8796 111.575 51.4847 110.546 50.3913C109.517 49.298 108.185 48.7551 106.557 48.7551Z" fill="black"/>
<path id="Vector_17" d="M121.324 49.0341H115.861C115.8 49.0341 115.733 49.0492 115.679 49.0794C115.625 49.1095 115.545 49.1699 115.451 49.2603L115.074 49.5846L114.959 49.5242L116.177 46.9756H129.861L128.576 49.5846H128.482V49.3508C128.482 49.2603 128.455 49.1849 128.394 49.1246C128.334 49.0643 128.26 49.0417 128.166 49.0417H123.328V61.4227C123.328 61.5208 123.335 61.6037 123.355 61.6565C123.369 61.7168 123.402 61.7696 123.45 61.8148L123.698 62.0863V62.2371H120.94V62.0863L121.189 61.8148C121.243 61.762 121.277 61.7092 121.297 61.6414C121.317 61.5735 121.33 61.4981 121.33 61.4152V49.0341H121.324Z" fill="black"/>
<path id="Vector_18" d="M137.947 49.0341C137.133 49.0341 136.46 49.117 135.929 49.2829C135.391 49.4488 134.94 49.7052 134.57 50.0445C133.985 50.6025 133.541 51.266 133.238 52.0351C132.935 52.8042 132.787 53.6563 132.787 54.5988C132.787 55.5941 132.935 56.4688 133.231 57.2228C133.527 57.9768 133.964 58.6102 134.556 59.1305C134.973 59.4924 135.431 59.7563 135.942 59.9071C136.454 60.0579 137.146 60.1409 138.034 60.1409H143.935C144.015 60.1409 144.089 60.1258 144.157 60.0956C144.217 60.0655 144.291 60.0202 144.365 59.9448L144.742 59.5904H144.903L143.618 62.2295H138.034C136.743 62.2295 135.74 62.1089 135.034 61.86C134.321 61.6112 133.655 61.1965 133.029 60.6159C132.262 59.9147 131.684 59.0701 131.294 58.0899C130.903 57.1097 130.702 56.0088 130.702 54.7948C130.702 53.8599 130.816 52.9776 131.045 52.1558C131.273 51.3339 131.61 50.5799 132.054 49.8937C132.363 49.4111 132.727 48.9813 133.123 48.6043C133.527 48.2273 133.964 47.9031 134.449 47.6241C134.873 47.3903 135.323 47.2169 135.808 47.1189C136.292 47.0209 137.012 46.9681 137.961 46.9681H144.722L143.45 49.577H143.356L143.376 49.381V49.3357C143.376 49.2452 143.342 49.1698 143.282 49.1095C143.221 49.0492 143.141 49.0266 143.04 49.0266H137.961L137.947 49.0341ZM133.271 54.9079L134.092 52.8118H143.47L142.212 55.4508H142.098L142.118 55.2322V55.1869C142.118 55.104 142.091 55.0286 142.031 54.9758C141.97 54.923 141.889 54.8929 141.788 54.8929H133.271V54.9079Z" fill="black"/>
<path id="Vector_19" d="M146.982 61.4227V47.7598C146.982 47.6844 146.975 47.6166 146.955 47.5638C146.935 47.511 146.901 47.4582 146.847 47.3979L146.619 47.1264V46.9756H149.357V47.1264L149.128 47.3979C149.074 47.4507 149.041 47.5035 149.02 47.5638C149 47.6241 148.987 47.692 148.987 47.7598V60.1409H153.958C154.026 60.1409 154.093 60.1258 154.153 60.1032C154.214 60.0806 154.288 60.0278 154.369 59.9448L154.732 59.5904L154.86 59.6734L153.622 62.2295H146.619V62.0787L146.847 61.8073C146.894 61.7545 146.928 61.7017 146.948 61.6339C146.968 61.566 146.982 61.4906 146.982 61.4076V61.4227Z" fill="black"/>
<path id="Vector_20" d="M160.666 52.2463L164.864 53.4602C166.499 53.9353 167.743 54.6893 168.598 55.7374C169.452 56.7855 169.883 58.0673 169.883 59.5904V62.2295H155.405L156.233 60.1333H167.824C167.824 60.0806 167.837 60.0278 167.837 59.9599C167.837 59.8921 167.837 59.8016 167.837 59.6734C167.837 58.6178 167.555 57.7506 166.983 57.072C166.411 56.3858 165.543 55.8731 164.373 55.5187L158.742 53.9202C157.753 53.6337 157.013 53.1963 156.529 52.6082C156.044 52.0201 155.802 51.2585 155.802 50.3386C155.802 49.283 156.125 48.4611 156.777 47.8654C157.43 47.2697 158.338 46.9756 159.509 46.9756H168.813L167.528 49.5846H167.414L167.434 49.3885V49.3433C167.434 49.2528 167.407 49.1774 167.346 49.1171C167.286 49.0567 167.205 49.0341 167.104 49.0341H159.516C158.957 49.0341 158.54 49.1321 158.271 49.3433C158.002 49.5469 157.867 49.8636 157.867 50.2933C157.867 51.07 158.762 51.7109 160.558 52.2161C160.612 52.2312 160.646 52.2387 160.673 52.2463H160.666Z" fill="black"/>
</g>
</svg>
